<svg width="498" height="498" viewBox="0 0 498 498" fill="none" xmlns="http://www.w3.org/2000/svg">
<mask id="mask0_121_1076" style="mask-type:alpha" maskUnits="userSpaceOnUse" x="0" y="0" width="498" height="498">
<circle cx="249" cy="249" r="249" fill="#2B479D"/>
</mask>
<g mask="url(#mask0_121_1076)">
<rect x="-37" y="249" width="571" height="67" fill="#F0F0F0"/>
<rect x="-37" y="383" width="571" height="67" fill="#F0F0F0"/>
<rect x="-37" y="316" width="571" height="67" fill="#D80027"/>
<rect x="-37" y="450" width="571" height="67" fill="#D80027"/>
<rect x="-37" y="-19" width="571" height="67" fill="#F0F0F0"/>
<rect x="-37" y="115" width="571" height="67" fill="#F0F0F0"/>
<rect x="-37" y="48" width="571" height="67" fill="#D80027"/>
<rect x="-37" y="182" width="571" height="67" fill="#D80027"/>
<rect x="-37" y="-19" width="288" height="268" fill="#0052B4"/>
<path d="M193.5 159L201.246 182.839H226.311L206.033 197.572L213.779 221.411L193.5 206.678L173.221 221.411L180.967 197.572L160.689 182.839H185.754L193.5 159Z" fill="#F0F0F0"/>
<path d="M101.5 159L109.246 182.839H134.311L114.033 197.572L121.779 221.411L101.5 206.678L81.2214 221.411L88.9671 197.572L68.6885 182.839H93.7543L101.5 159Z" fill="#F0F0F0"/>
<path d="M101.5 159L109.246 182.839H134.311L114.033 197.572L121.779 221.411L101.5 206.678L81.2214 221.411L88.9671 197.572L68.6885 182.839H93.7543L101.5 159Z" fill="#F0F0F0"/>
<path d="M9.5 159L17.2457 182.839H42.3114L22.0329 197.572L29.7786 221.411L9.5 206.678L-10.7786 221.411L-3.03286 197.572L-23.3115 182.839H1.75427L9.5 159Z" fill="#F0F0F0"/>
<path d="M193.5 159L201.246 182.839H226.311L206.033 197.572L213.779 221.411L193.5 206.678L173.221 221.411L180.967 197.572L160.689 182.839H185.754L193.5 159Z" fill="#F0F0F0"/>
<path d="M193.5 84L201.246 107.839H226.311L206.033 122.572L213.779 146.411L193.5 131.678L173.221 146.411L180.967 122.572L160.689 107.839H185.754L193.5 84Z" fill="#F0F0F0"/>
<path d="M193.5 9L201.246 32.8389H226.311L206.033 47.5722L213.779 71.4111L193.5 56.6778L173.221 71.4111L180.967 47.5722L160.689 32.8389H185.754L193.5 9Z" fill="#F0F0F0"/>
<path d="M101.5 159L109.246 182.839H134.311L114.033 197.572L121.779 221.411L101.5 206.678L81.2214 221.411L88.9671 197.572L68.6885 182.839H93.7543L101.5 159Z" fill="#F0F0F0"/>
<path d="M101.5 84L109.246 107.839H134.311L114.033 122.572L121.779 146.411L101.5 131.678L81.2214 146.411L88.9671 122.572L68.6885 107.839H93.7543L101.5 84Z" fill="#F0F0F0"/>
<path d="M101.5 9L109.246 32.8389H134.311L114.033 47.5722L121.779 71.4111L101.5 56.6778L81.2214 71.4111L88.9671 47.5722L68.6885 32.8389H93.7543L101.5 9Z" fill="#F0F0F0"/>
<path d="M9.5 159L17.2457 182.839H42.3114L22.0329 197.572L29.7786 221.411L9.5 206.678L-10.7786 221.411L-3.03286 197.572L-23.3115 182.839H1.75427L9.5 159Z" fill="#F0F0F0"/>
<path d="M9.5 84L17.2457 107.839H42.3114L22.0329 122.572L29.7786 146.411L9.5 131.678L-10.7786 146.411L-3.03286 122.572L-23.3115 107.839H1.75427L9.5 84Z" fill="#F0F0F0"/>
<path d="M9.5 9L17.2457 32.8389H42.3114L22.0329 47.5722L29.7786 71.4111L9.5 56.6778L-10.7786 71.4111L-3.03286 47.5722L-23.3115 32.8389H1.75427L9.5 9Z" fill="#F0F0F0"/>
</g>
</svg>
