<svg width="379" height="368" viewBox="0 0 379 368" fill="none" xmlns="http://www.w3.org/2000/svg">
<g clip-path="url(#clip0_130_1326)">
<path d="M51.4 279.59L59.5299 274.9C59.5299 274.9 63.82 255.77 57.43 231.47C51.04 207.17 32.6099 189 22.9999 192.81C13.3899 196.62 13.64 203.81 18.94 211.1C23.34 217.1 37.6099 231.7 44.4699 248.52C48.5567 258.399 50.9014 268.911 51.4 279.59Z" fill="#0077C8"/>
<path opacity="0.1" d="M51.4 279.59L59.5299 274.9C59.5299 274.9 63.82 255.77 57.43 231.47C51.04 207.17 32.6099 189 22.9999 192.81C13.3899 196.62 13.64 203.81 18.94 211.1C23.34 217.1 37.6099 231.7 44.4699 248.52C48.5567 258.399 50.9014 268.911 51.4 279.59Z" fill="black"/>
<path d="M55.73 277.59H55.66C55.5306 277.57 55.4142 277.5 55.3357 277.396C55.2571 277.291 55.2228 277.16 55.24 277.03C60.79 237.03 36 204.69 24.72 197.94C24.6546 197.912 24.596 197.87 24.5482 197.817C24.5003 197.764 24.4643 197.702 24.4425 197.634C24.4207 197.566 24.4136 197.495 24.4217 197.424C24.4299 197.353 24.4531 197.285 24.4897 197.224C24.5264 197.163 24.5756 197.11 24.6342 197.07C24.6928 197.029 24.7594 197.002 24.8295 196.989C24.8996 196.976 24.9716 196.979 25.0407 196.996C25.1097 197.014 25.1743 197.046 25.23 197.09C36.68 203.93 61.85 236.7 56.23 277.17C56.209 277.287 56.1474 277.394 56.056 277.471C55.9647 277.547 55.8493 277.59 55.73 277.59Z" fill="white"/>
<path d="M51.3999 279.59L39.2199 286.59C36.6761 285.319 33.9204 284.526 31.0899 284.25C25.9099 283.6 22.4599 278.6 22.9699 274.87C23.3099 272.35 24.1199 269.48 23.7299 266.93C23.3899 264.65 21.1799 262.6 19.1199 261.8C17.3667 261.252 15.5363 260.992 13.6999 261.03C10.7699 260.89 7.69994 260.56 5.22994 259.03C2.75994 257.5 0.939944 254.44 1.73994 251.61C2.27793 250.145 3.15121 248.827 4.28994 247.76C5.42412 246.69 6.34389 245.414 6.99994 244C8.07994 241.18 6.16994 239.38 3.89994 238.07C-4.10006 233.47 -7.70006 229.84 -4.82006 226.36C-1.94006 222.88 5.96994 221.36 14.0799 225.62C22.1899 229.88 28.9199 225.31 34.2699 226.21C42.6499 227.61 43.1399 233.53 42.0999 238.67C41.0599 243.81 51.4299 246 53.9999 252.17C55.9299 256.65 57.5099 271.37 51.3999 279.59Z" fill="#0077C8"/>
<path d="M47.3398 282.43C47.2106 282.43 47.0864 282.38 46.9932 282.291C46.9 282.201 46.845 282.079 46.8398 281.95C45.8398 253.4 9.24983 228.5 0.619831 227.07C0.55479 227.06 0.492315 227.038 0.435985 227.004C0.379655 226.97 0.330579 226.925 0.291565 226.872C0.25255 226.819 0.224362 226.759 0.208622 226.695C0.192881 226.631 0.189895 226.565 0.199833 226.5C0.224243 226.37 0.298452 226.254 0.406726 226.177C0.515001 226.101 0.648824 226.07 0.779831 226.09C9.86983 227.59 46.8298 252.3 47.8398 281.91C47.8425 281.976 47.8322 282.041 47.8095 282.103C47.7869 282.165 47.7522 282.221 47.7076 282.27C47.6631 282.318 47.6094 282.357 47.5497 282.384C47.49 282.412 47.4255 282.427 47.3598 282.43H47.3398Z" fill="white"/>
<path d="M204.26 334C203.86 329 200 320.46 194.26 314.38C188.52 308.3 179.4 305.38 173.76 307.82C168.51 310.1 169.67 317.14 176.6 321.31C183.53 325.48 193.85 330.58 197.39 338.47L204.23 347.94L204.26 334Z" fill="#0077C8"/>
<path opacity="0.1" d="M204.26 334C203.86 329 200 320.46 194.26 314.38C188.52 308.3 179.4 305.38 173.76 307.82C168.51 310.1 169.67 317.14 176.6 321.31C183.53 325.48 193.85 330.58 197.39 338.47L204.23 347.94L204.26 334Z" fill="black"/>
<path d="M204.26 343.16H204.36C204.449 343.148 204.534 343.118 204.611 343.073C204.688 343.027 204.756 342.967 204.81 342.896C204.864 342.824 204.903 342.742 204.925 342.656C204.948 342.569 204.953 342.479 204.94 342.39C202.45 323.86 183.62 310.97 176.13 309.55C176.042 309.533 175.951 309.533 175.863 309.55C175.775 309.568 175.692 309.603 175.617 309.653C175.543 309.704 175.479 309.768 175.43 309.843C175.381 309.918 175.347 310.002 175.33 310.09C175.312 310.178 175.313 310.269 175.33 310.357C175.348 310.444 175.383 310.528 175.433 310.602C175.483 310.677 175.548 310.74 175.623 310.79C175.698 310.839 175.782 310.873 175.87 310.89C182.87 312.22 201.21 324.97 203.58 342.57C203.604 342.733 203.686 342.883 203.81 342.991C203.935 343.099 204.095 343.159 204.26 343.16Z" fill="white"/>
<path d="M203.52 354.7C202.52 351.95 198.68 347.58 192.81 344.2C186.32 340.45 178.39 339.12 176.33 335.97C173.86 332.17 176.9 328.16 183.27 328.43C189.64 328.7 201.45 336.43 204.27 349.26L203.52 354.7Z" fill="#0077C8"/>
<path d="M204 352H204.13C204.219 351.983 204.304 351.949 204.38 351.899C204.455 351.849 204.52 351.784 204.571 351.709C204.621 351.633 204.656 351.549 204.673 351.459C204.69 351.37 204.689 351.279 204.67 351.19C202.78 341.69 189.01 331.85 180.11 331.44C179.931 331.439 179.757 331.505 179.624 331.626C179.491 331.746 179.407 331.911 179.39 332.09C179.384 332.272 179.45 332.45 179.574 332.584C179.697 332.719 179.868 332.8 180.05 332.81C188.31 333.19 201.58 342.66 203.33 351.46C203.362 351.613 203.447 351.751 203.569 351.849C203.691 351.948 203.843 352.001 204 352Z" fill="white"/>
<path d="M42.6599 287C42.0828 286.613 41.6338 286.063 41.3702 285.42C41.1067 284.777 41.0404 284.071 41.1799 283.39L76.6399 126.45C77.0667 124.932 78.0296 123.621 79.3499 122.76L290.35 0.960014C290.995 0.618835 291.712 0.434682 292.442 0.422519C293.171 0.410356 293.894 0.570526 294.55 0.890014C295.118 1.27937 295.559 1.82767 295.817 2.46626C296.074 3.10485 296.138 3.80534 296 4.48001L260.53 161.42C260.102 162.94 259.135 164.252 257.81 165.11L46.8599 286.91C46.2163 287.254 45.5005 287.442 44.7707 287.458C44.0409 287.473 43.3177 287.316 42.6599 287Z" fill="#F0F0F0"/>
<path d="M80.6999 128.77L45.2399 285.77C44.9399 287.11 45.6599 287.65 46.8599 286.96L257.86 165.16C259.185 164.302 260.152 162.99 260.58 161.47L296 4.47997C296.3 3.12997 295.58 2.59997 294.38 3.28997L83.3799 125.09C82.0734 125.955 81.122 127.261 80.6999 128.77Z" fill="#E6E6E6"/>
<path d="M298.57 3.21C297.913 2.89205 297.19 2.73358 296.46 2.74748C295.731 2.76139 295.014 2.94726 294.37 3.29L83.3699 125.09C82.7578 125.486 82.2656 126.042 81.9466 126.698C81.6276 127.353 81.4939 128.084 81.5599 128.81L109.33 323.2C109.465 323.937 109.747 324.639 110.157 325.266C110.567 325.893 111.099 326.431 111.72 326.85C112.374 327.17 113.096 327.33 113.825 327.316C114.553 327.302 115.268 327.115 115.91 326.77L326.87 205C327.484 204.603 327.977 204.045 328.296 203.388C328.615 202.73 328.748 201.998 328.68 201.27L301 6.86C300.86 6.11981 300.573 5.41526 300.156 4.78823C299.738 4.1612 299.199 3.62449 298.57 3.21Z" fill="#F0F0F0"/>
<path d="M85.6598 131.16L113.39 325.55C113.395 325.84 113.481 326.123 113.637 326.367C113.794 326.611 114.014 326.807 114.275 326.933C114.536 327.06 114.827 327.111 115.116 327.082C115.404 327.054 115.679 326.945 115.91 326.77L326.87 205C327.483 204.603 327.977 204.045 328.296 203.388C328.615 202.73 328.748 201.998 328.68 201.27L301 6.86001C300.996 6.56929 300.912 6.2853 300.756 6.03969C300.601 5.79408 300.38 5.5965 300.119 5.46897C299.857 5.34144 299.566 5.28897 299.276 5.3174C298.987 5.34584 298.711 5.45406 298.48 5.63001L87.4798 127.43C86.8643 127.826 86.3691 128.383 86.0482 129.04C85.7273 129.698 85.5929 130.431 85.6598 131.16Z" fill="#FAFAFA"/>
<path d="M45.4299 284.89L99.4299 253.7L101 265L76.2399 279.3C76.2399 279.3 69.6399 281.64 67.0199 282.3C64.3999 282.96 45.4299 284.89 45.4299 284.89Z" fill="#E0E0E0"/>
<path d="M101.03 265.01L109.13 321.81L76.27 279.31L101.03 265.01Z" fill="#E6E6E6"/>
<path d="M108.16 323.7L78.71 285.45C78.2211 284.88 77.6031 284.434 76.9074 284.151C76.2117 283.867 75.4584 283.754 74.71 283.82L47.17 287.82C45.6191 287.986 44.0532 287.701 42.66 287C41.54 286.36 41.73 285.62 43.08 285.36L74.73 279.27C75.4721 279.158 76.2304 279.241 76.9314 279.509C77.6323 279.777 78.2519 280.222 78.73 280.8L112.26 326C113.08 327.11 112.84 327.48 111.72 326.83C110.37 325.989 109.167 324.931 108.16 323.7Z" fill="#E0E0E0"/>
<path d="M296.05 3.70999C296.046 3.14654 295.904 2.59266 295.635 2.09733C295.367 1.602 294.98 1.18046 294.51 0.869993C293.852 0.555133 293.13 0.398397 292.4 0.412287C291.671 0.426177 290.955 0.61031 290.31 0.949995L79.3098 122.75C78.6665 123.153 78.1064 123.676 77.6599 124.29C77.1642 124.929 76.8005 125.66 76.5898 126.44L71.5898 148.61L75.6498 150.94L291 26.64L296 4.47999C296.047 4.22622 296.068 3.96807 296.06 3.70999H296.05Z" fill="#0077C8"/>
<path opacity="0.2" d="M296 4.47997C296.3 3.12997 295.58 2.59997 294.38 3.28997L83.3799 125.09C82.0622 125.949 81.0997 127.257 80.6699 128.77L75.6699 150.94L291 26.64L296 4.47997Z" fill="black"/>
<path opacity="0.1" d="M81.7599 126.63C81.2634 127.263 80.9026 127.991 80.6999 128.77L75.6999 150.94L71.6399 148.6L76.6399 126.43C76.8506 125.649 77.2143 124.919 77.7099 124.28L81.7599 126.63Z" fill="black"/>
<path opacity="0.4" d="M296.05 3.69999C295.95 2.94999 295.3 2.69999 294.37 3.28999L83.3699 125.08C82.722 125.481 82.1609 126.008 81.7199 126.63L77.6599 124.28C78.1064 123.666 78.6665 123.143 79.3099 122.74L290.31 0.939985C290.955 0.6003 291.671 0.416167 292.4 0.402277C293.13 0.388387 293.852 0.545127 294.51 0.859987C294.98 1.17046 295.367 1.59199 295.635 2.08732C295.904 2.58266 296.046 3.13653 296.05 3.69999Z" fill="white"/>
<path d="M301.21 8.72L301 6.86C300.985 6.76901 300.965 6.67888 300.94 6.59C300.944 6.56351 300.944 6.53649 300.94 6.51C300.6 5.16434 299.778 3.99019 298.63 3.21C297.973 2.89205 297.25 2.73358 296.52 2.74748C295.791 2.76139 295.074 2.94726 294.43 3.29L83.4299 125.09C82.7912 125.486 82.286 126.064 81.9799 126.75C81.6675 127.389 81.5427 128.103 81.6199 128.81L85.6199 156.66L89.6799 159.01L304.93 34.72L301.21 8.72Z" fill="#0077C8"/>
<path opacity="0.1" d="M89.6398 159L85.5798 156.65L81.5798 128.8C81.5026 128.093 81.6275 127.379 81.9398 126.74L86.0098 129.08C85.6903 129.717 85.5618 130.432 85.6398 131.14L89.6398 159Z" fill="black"/>
<path opacity="0.4" d="M300.88 6.51C300.823 6.25808 300.703 6.0246 300.532 5.83106C300.361 5.63753 300.144 5.49016 299.901 5.40251C299.658 5.31486 299.397 5.28976 299.141 5.32952C298.886 5.36927 298.645 5.4726 298.44 5.63L87.44 127.43C86.7988 127.823 86.2929 128.402 85.99 129.09L82 126.75C82.3086 126.063 82.813 125.482 83.45 125.08L294.45 3.29C295.094 2.94726 295.811 2.76139 296.54 2.74748C297.27 2.73358 297.993 2.89205 298.65 3.21C299.771 4.00155 300.564 5.17503 300.88 6.51Z" fill="white"/>
<path d="M145.65 293.34L143.13 275.63C143.126 275.399 143.06 275.174 142.937 274.979C142.814 274.784 142.64 274.626 142.434 274.523C142.227 274.42 141.997 274.375 141.767 274.394C141.537 274.413 141.317 274.495 141.13 274.63L122.74 285.25C122.244 285.567 121.847 286.015 121.591 286.545C121.335 287.075 121.231 287.665 121.29 288.25L123.8 306C123.8 306.232 123.865 306.46 123.987 306.657C124.109 306.855 124.283 307.014 124.491 307.118C124.699 307.222 124.931 307.266 125.162 307.245C125.393 307.224 125.614 307.139 125.8 307L144.19 296.38C144.695 296.062 145.099 295.608 145.358 295.07C145.616 294.532 145.717 293.933 145.65 293.34Z" fill="#0077C8"/>
<path d="M174.09 276.94L171.56 259.24C171.56 259.008 171.495 258.78 171.373 258.583C171.251 258.385 171.076 258.226 170.869 258.122C170.661 258.018 170.429 257.974 170.198 257.995C169.966 258.016 169.746 258.101 169.56 258.24L151.17 268.85C150.675 269.168 150.278 269.616 150.022 270.146C149.766 270.675 149.662 271.265 149.72 271.85L152.25 289.56C152.25 289.792 152.314 290.02 152.437 290.217C152.559 290.415 152.733 290.574 152.941 290.678C153.148 290.782 153.381 290.826 153.612 290.805C153.843 290.784 154.064 290.699 154.25 290.56L172.64 279.94C173.136 279.624 173.535 279.176 173.791 278.646C174.047 278.116 174.15 277.525 174.09 276.94Z" fill="#EBEBEB"/>
<path d="M202.53 260.54L200 242.84C200 242.608 199.935 242.38 199.813 242.183C199.691 241.985 199.517 241.826 199.309 241.722C199.101 241.618 198.869 241.574 198.638 241.595C198.407 241.616 198.186 241.701 198 241.84L179.6 252.47C179.105 252.788 178.708 253.236 178.452 253.766C178.196 254.295 178.092 254.885 178.15 255.47L180.68 273.18C180.68 273.412 180.745 273.64 180.867 273.837C180.989 274.035 181.163 274.194 181.371 274.298C181.579 274.402 181.811 274.446 182.042 274.425C182.273 274.404 182.494 274.319 182.68 274.18L201.07 263.56C201.571 263.243 201.974 262.793 202.232 262.259C202.49 261.725 202.593 261.13 202.53 260.54Z" fill="#EBEBEB"/>
<path d="M231 244.15L228.47 226.44C228.47 226.208 228.405 225.98 228.283 225.783C228.161 225.585 227.986 225.426 227.779 225.322C227.571 225.218 227.339 225.174 227.108 225.195C226.876 225.216 226.656 225.301 226.47 225.44L208 236.08C207.503 236.396 207.105 236.844 206.849 237.374C206.593 237.904 206.489 238.495 206.55 239.08L209.08 256.78C209.08 257.012 209.144 257.24 209.267 257.437C209.389 257.635 209.563 257.794 209.771 257.898C209.978 258.002 210.211 258.046 210.442 258.025C210.673 258.004 210.894 257.919 211.08 257.78L229.47 247.17C229.983 246.861 230.398 246.414 230.668 245.88C230.939 245.346 231.054 244.746 231 244.15Z" fill="#EBEBEB"/>
<path d="M259.41 227.75L256.88 210C256.88 209.768 256.815 209.54 256.693 209.343C256.571 209.145 256.396 208.986 256.189 208.882C255.981 208.778 255.749 208.734 255.518 208.755C255.286 208.776 255.066 208.861 254.88 209L236.49 219.62C235.993 219.936 235.595 220.384 235.339 220.914C235.083 221.444 234.979 222.035 235.04 222.62L237.57 240.32C237.57 240.552 237.634 240.78 237.756 240.977C237.879 241.175 238.053 241.334 238.261 241.438C238.468 241.542 238.701 241.586 238.932 241.565C239.163 241.544 239.384 241.459 239.57 241.32L258 230.73C258.484 230.409 258.871 229.961 259.12 229.436C259.368 228.911 259.468 228.328 259.41 227.75Z" fill="#EBEBEB"/>
<path d="M287.85 211.35L285.32 193.64C285.32 193.408 285.255 193.18 285.133 192.983C285.011 192.785 284.837 192.626 284.629 192.522C284.421 192.418 284.189 192.374 283.958 192.395C283.727 192.416 283.506 192.501 283.32 192.64L264.93 203.26C264.434 203.576 264.035 204.024 263.779 204.554C263.523 205.084 263.419 205.675 263.48 206.26L266 224C266 224.232 266.065 224.46 266.187 224.657C266.309 224.855 266.483 225.014 266.691 225.118C266.899 225.222 267.131 225.266 267.362 225.245C267.593 225.224 267.814 225.139 268 225L286.39 214.38C286.892 214.062 287.295 213.609 287.553 213.074C287.811 212.538 287.914 211.941 287.85 211.35Z" fill="#EBEBEB"/>
<path d="M316.29 195L313.76 177.29C313.76 177.058 313.695 176.83 313.573 176.633C313.451 176.435 313.276 176.276 313.069 176.172C312.861 176.068 312.629 176.024 312.398 176.045C312.166 176.066 311.946 176.151 311.76 176.29L293.37 186.91C292.874 187.227 292.476 187.675 292.22 188.205C291.964 188.734 291.86 189.325 291.92 189.91L294.44 207.62C294.443 207.851 294.51 208.076 294.633 208.271C294.756 208.466 294.93 208.624 295.136 208.727C295.342 208.83 295.573 208.875 295.803 208.856C296.033 208.837 296.253 208.755 296.44 208.62L314.83 198C315.327 197.684 315.727 197.237 315.985 196.707C316.243 196.177 316.348 195.586 316.29 195Z" fill="#EBEBEB"/>
<path d="M140.71 258.69L138.18 241C138.176 240.769 138.11 240.544 137.987 240.349C137.864 240.154 137.69 239.996 137.484 239.893C137.277 239.79 137.047 239.745 136.817 239.764C136.587 239.783 136.367 239.865 136.18 240L117.79 250.62C117.294 250.937 116.897 251.385 116.641 251.915C116.385 252.445 116.281 253.035 116.34 253.62L118.86 271.33C118.864 271.561 118.93 271.786 119.053 271.981C119.176 272.176 119.35 272.334 119.556 272.437C119.763 272.54 119.993 272.585 120.223 272.566C120.453 272.547 120.673 272.465 120.86 272.33L139.25 261.71C139.747 261.389 140.147 260.938 140.404 260.405C140.662 259.872 140.768 259.279 140.71 258.69Z" fill="#0077C8"/>
<path d="M169.15 242.29L166.62 224.58C166.616 224.349 166.549 224.124 166.427 223.929C166.304 223.734 166.13 223.576 165.924 223.473C165.717 223.37 165.487 223.325 165.257 223.344C165.027 223.363 164.807 223.444 164.62 223.58L146.23 234.2C145.734 234.517 145.337 234.965 145.081 235.495C144.825 236.024 144.721 236.615 144.78 237.2L147.3 254.91C147.304 255.141 147.37 255.366 147.493 255.561C147.616 255.756 147.79 255.914 147.996 256.017C148.203 256.12 148.433 256.165 148.663 256.146C148.893 256.127 149.113 256.045 149.3 255.91L167.69 245.29C168.184 244.971 168.581 244.523 168.839 243.994C169.096 243.465 169.204 242.876 169.15 242.29Z" fill="#EBEBEB"/>
<path d="M197.59 225.89L195.06 208.18C195.056 207.949 194.989 207.724 194.867 207.529C194.744 207.334 194.57 207.176 194.364 207.073C194.157 206.97 193.927 206.925 193.697 206.944C193.467 206.963 193.247 207.045 193.06 207.18L174.67 217.8C174.174 218.117 173.776 218.565 173.521 219.095C173.265 219.625 173.16 220.215 173.22 220.8L175.74 238.51C175.743 238.741 175.81 238.966 175.933 239.161C176.056 239.356 176.23 239.514 176.436 239.617C176.643 239.72 176.873 239.765 177.103 239.746C177.333 239.727 177.553 239.646 177.74 239.51L196.13 228.89C196.624 228.571 197.021 228.123 197.279 227.594C197.536 227.065 197.644 226.476 197.59 225.89Z" fill="#EBEBEB"/>
<path d="M226 209.49L223.47 191.78C223.466 191.549 223.4 191.324 223.277 191.129C223.154 190.934 222.98 190.776 222.774 190.673C222.567 190.57 222.337 190.525 222.107 190.544C221.877 190.563 221.657 190.644 221.47 190.78L203.1 201.42C202.605 201.738 202.208 202.186 201.952 202.716C201.696 203.245 201.592 203.835 201.65 204.42L204.17 222.13C204.174 222.361 204.24 222.586 204.363 222.781C204.486 222.976 204.66 223.134 204.866 223.237C205.073 223.34 205.303 223.385 205.533 223.366C205.763 223.347 205.983 223.265 206.17 223.13L224.56 212.51C225.054 212.188 225.451 211.735 225.705 211.202C225.959 210.67 226.061 210.077 226 209.49Z" fill="#EBEBEB"/>
<path d="M254.47 193.09L251.94 175.39C251.94 175.158 251.875 174.93 251.753 174.733C251.631 174.535 251.457 174.376 251.249 174.272C251.041 174.168 250.809 174.124 250.578 174.145C250.346 174.166 250.126 174.251 249.94 174.39L231.54 185C231.045 185.318 230.648 185.766 230.392 186.296C230.136 186.825 230.032 187.415 230.09 188L232.61 205.71C232.614 205.941 232.68 206.166 232.803 206.361C232.926 206.556 233.1 206.714 233.306 206.817C233.513 206.92 233.743 206.965 233.973 206.946C234.203 206.927 234.423 206.846 234.61 206.71L253 196.07C253.494 195.755 253.891 195.31 254.151 194.785C254.41 194.26 254.52 193.674 254.47 193.09Z" fill="#EBEBEB"/>
<path d="M282.91 176.69L280.38 159C280.38 158.768 280.315 158.54 280.193 158.343C280.071 158.145 279.896 157.986 279.689 157.882C279.481 157.778 279.249 157.734 279.018 157.755C278.786 157.776 278.566 157.861 278.38 158L260 168.63C259.503 168.946 259.105 169.394 258.849 169.924C258.593 170.454 258.489 171.045 258.55 171.63L261.07 189.33C261.073 189.561 261.14 189.786 261.263 189.981C261.386 190.176 261.56 190.334 261.766 190.437C261.972 190.54 262.203 190.585 262.433 190.566C262.663 190.547 262.883 190.465 263.07 190.33L281.46 179.71C281.956 179.389 282.354 178.937 282.61 178.404C282.866 177.871 282.97 177.278 282.91 176.69Z" fill="#EBEBEB"/>
<path d="M311.35 160.3L308.82 142.59C308.82 142.358 308.755 142.13 308.633 141.933C308.511 141.735 308.337 141.576 308.129 141.472C307.921 141.368 307.689 141.324 307.458 141.345C307.227 141.366 307.006 141.451 306.82 141.59L288.42 152.21C287.926 152.528 287.53 152.977 287.276 153.507C287.022 154.036 286.92 154.626 286.98 155.21L289.5 172.91C289.504 173.141 289.57 173.366 289.693 173.561C289.816 173.756 289.99 173.914 290.196 174.017C290.403 174.12 290.633 174.165 290.863 174.146C291.093 174.127 291.313 174.045 291.5 173.91L309.89 163.3C310.383 162.98 310.78 162.532 311.037 162.003C311.295 161.474 311.403 160.886 311.35 160.3Z" fill="#EBEBEB"/>
<path d="M135.76 224L133.24 206.29C133.236 206.059 133.169 205.834 133.047 205.639C132.924 205.444 132.75 205.286 132.543 205.183C132.337 205.08 132.107 205.035 131.877 205.054C131.647 205.073 131.427 205.154 131.24 205.29L112.83 216C112.337 216.319 111.941 216.768 111.685 217.297C111.429 217.826 111.324 218.415 111.38 219L113.91 236.7C113.91 236.932 113.974 237.16 114.097 237.357C114.219 237.555 114.393 237.714 114.601 237.818C114.808 237.922 115.041 237.966 115.272 237.945C115.503 237.924 115.724 237.839 115.91 237.7L134.31 227C134.805 226.682 135.202 226.234 135.458 225.704C135.714 225.175 135.818 224.585 135.76 224Z" fill="#0077C8"/>
<path d="M164.2 207.64L161.68 189.93C161.676 189.699 161.609 189.474 161.487 189.279C161.364 189.084 161.19 188.926 160.983 188.823C160.777 188.72 160.546 188.675 160.317 188.694C160.087 188.713 159.866 188.795 159.68 188.93L141.29 199.55C140.797 199.869 140.401 200.318 140.145 200.847C139.889 201.376 139.784 201.965 139.84 202.55L142.37 220.26C142.373 220.491 142.44 220.716 142.563 220.911C142.686 221.106 142.86 221.264 143.066 221.367C143.272 221.47 143.503 221.515 143.733 221.496C143.963 221.477 144.183 221.396 144.37 221.26L162.76 210.64C163.253 210.322 163.649 209.873 163.904 209.343C164.158 208.814 164.26 208.224 164.2 207.64Z" fill="#EBEBEB"/>
<path d="M192.64 191.24L190.12 173.53C190.116 173.299 190.05 173.074 189.927 172.879C189.804 172.684 189.63 172.526 189.424 172.423C189.217 172.32 188.987 172.275 188.757 172.294C188.527 172.313 188.307 172.394 188.12 172.53L169.73 183.15C169.238 183.47 168.842 183.919 168.587 184.448C168.331 184.977 168.225 185.565 168.28 186.15L170.81 203.86C170.814 204.091 170.88 204.316 171.003 204.511C171.126 204.706 171.3 204.864 171.506 204.967C171.713 205.07 171.943 205.115 172.173 205.096C172.403 205.077 172.623 204.995 172.81 204.86L191.2 194.24C191.694 193.922 192.09 193.473 192.344 192.943C192.598 192.414 192.7 191.824 192.64 191.24Z" fill="#EBEBEB"/>
<path d="M221.08 174.84L218.56 157.13C218.556 156.899 218.489 156.674 218.367 156.479C218.244 156.284 218.07 156.126 217.864 156.023C217.657 155.92 217.427 155.875 217.197 155.894C216.967 155.913 216.747 155.994 216.56 156.13L198.17 166.75C197.678 167.07 197.282 167.519 197.027 168.048C196.771 168.577 196.665 169.165 196.72 169.75L199.25 187.46C199.254 187.691 199.32 187.916 199.443 188.111C199.566 188.306 199.74 188.464 199.946 188.567C200.153 188.67 200.383 188.715 200.613 188.696C200.843 188.677 201.063 188.595 201.25 188.46L219.64 177.84C220.134 177.522 220.529 177.073 220.784 176.543C221.038 176.014 221.14 175.424 221.08 174.84Z" fill="#EBEBEB"/>
<path d="M249.52 158.44L247 140.73C246.996 140.499 246.929 140.274 246.807 140.079C246.684 139.884 246.51 139.726 246.303 139.623C246.097 139.52 245.867 139.475 245.637 139.494C245.407 139.513 245.186 139.594 245 139.73L226.61 150.35C226.118 150.67 225.722 151.119 225.467 151.648C225.211 152.177 225.105 152.765 225.16 153.35L227.69 171.06C227.693 171.291 227.76 171.516 227.883 171.711C228.006 171.906 228.18 172.064 228.386 172.167C228.592 172.27 228.823 172.315 229.053 172.296C229.283 172.277 229.503 172.195 229.69 172.06L248.08 161.44C248.574 161.122 248.969 160.673 249.224 160.143C249.478 159.614 249.58 159.024 249.52 158.44Z" fill="#EBEBEB"/>
<path d="M278 142L275.48 124.29C275.476 124.059 275.41 123.834 275.287 123.639C275.164 123.444 274.99 123.286 274.784 123.183C274.577 123.08 274.347 123.035 274.117 123.054C273.887 123.073 273.667 123.154 273.48 123.29L255 134C254.508 134.32 254.112 134.769 253.857 135.298C253.601 135.827 253.495 136.415 253.55 137L256.08 154.71C256.084 154.941 256.15 155.166 256.273 155.361C256.396 155.556 256.57 155.714 256.776 155.817C256.983 155.92 257.213 155.965 257.443 155.946C257.673 155.927 257.893 155.845 258.08 155.71L276.51 145C277.014 144.689 277.42 144.243 277.684 143.713C277.947 143.183 278.057 142.589 278 142Z" fill="#EBEBEB"/>
<path d="M306.4 125.64L303.88 107.94C303.876 107.709 303.81 107.484 303.687 107.289C303.564 107.094 303.39 106.936 303.184 106.833C302.977 106.73 302.747 106.685 302.517 106.704C302.287 106.723 302.067 106.805 301.88 106.94L283.49 117.55C282.997 117.869 282.601 118.318 282.345 118.847C282.09 119.376 281.984 119.965 282.04 120.55L284.57 138.26C284.574 138.491 284.64 138.716 284.763 138.911C284.886 139.106 285.06 139.264 285.266 139.367C285.473 139.47 285.703 139.515 285.933 139.496C286.163 139.477 286.383 139.396 286.57 139.26L305 128.62C305.484 128.299 305.87 127.852 306.117 127.326C306.364 126.801 306.462 126.217 306.4 125.64Z" fill="#EBEBEB"/>
<path d="M130.82 189.38L128.29 171.68C128.29 171.448 128.225 171.22 128.103 171.023C127.981 170.825 127.806 170.666 127.599 170.562C127.391 170.458 127.159 170.414 126.928 170.435C126.696 170.456 126.475 170.541 126.29 170.68L107.9 181.29C107.405 181.608 107.008 182.056 106.752 182.586C106.496 183.115 106.392 183.705 106.45 184.29L109 202C109 202.232 109.064 202.46 109.186 202.657C109.309 202.855 109.483 203.014 109.691 203.118C109.898 203.222 110.131 203.266 110.362 203.245C110.593 203.224 110.814 203.139 111 203L129.39 192.38C129.882 192.061 130.277 191.612 130.529 191.082C130.782 190.553 130.882 189.963 130.82 189.38Z" fill="#0077C8"/>
<path d="M159.26 173L156.73 155.3C156.73 155.068 156.665 154.84 156.543 154.643C156.421 154.445 156.247 154.286 156.039 154.182C155.831 154.078 155.599 154.034 155.368 154.055C155.136 154.076 154.916 154.161 154.73 154.3L136.34 164.92C135.844 165.236 135.445 165.684 135.189 166.214C134.933 166.744 134.829 167.335 134.89 167.92L137.42 185.62C137.42 185.852 137.485 186.08 137.607 186.277C137.729 186.475 137.903 186.634 138.111 186.738C138.319 186.842 138.551 186.886 138.782 186.865C139.013 186.844 139.234 186.759 139.42 186.62L157.81 176C158.306 175.684 158.705 175.236 158.961 174.706C159.217 174.176 159.32 173.585 159.26 173Z" fill="#EBEBEB"/>
<path d="M187.7 156.59L185.17 138.88C185.17 138.648 185.105 138.42 184.983 138.223C184.861 138.025 184.686 137.866 184.479 137.762C184.271 137.658 184.039 137.614 183.808 137.635C183.576 137.656 183.356 137.741 183.17 137.88L164.78 148.5C164.283 148.816 163.885 149.264 163.629 149.794C163.373 150.324 163.269 150.915 163.33 151.5L165.86 169.2C165.86 169.432 165.924 169.66 166.047 169.857C166.169 170.055 166.343 170.214 166.551 170.318C166.758 170.422 166.991 170.466 167.222 170.445C167.453 170.424 167.674 170.339 167.86 170.2L186.25 159.59C186.745 159.272 187.142 158.824 187.398 158.294C187.654 157.765 187.758 157.175 187.7 156.59Z" fill="#EBEBEB"/>
<path d="M216.14 140.19L213.61 122.48C213.61 122.248 213.545 122.02 213.423 121.823C213.301 121.625 213.127 121.466 212.919 121.362C212.711 121.258 212.479 121.214 212.248 121.235C212.017 121.256 211.796 121.341 211.61 121.48L193.22 132.1C192.724 132.416 192.325 132.864 192.069 133.394C191.813 133.924 191.709 134.515 191.77 135.1L194.29 152.81C194.294 153.041 194.36 153.266 194.483 153.461C194.606 153.656 194.78 153.814 194.986 153.917C195.193 154.02 195.423 154.065 195.653 154.046C195.883 154.027 196.103 153.945 196.29 153.81L214.68 143.19C215.177 142.873 215.576 142.426 215.833 141.896C216.091 141.367 216.197 140.776 216.14 140.19Z" fill="#EBEBEB"/>
<path d="M244.58 123.79L242.05 106.08C242.05 105.848 241.985 105.62 241.863 105.423C241.741 105.225 241.567 105.066 241.359 104.962C241.151 104.858 240.919 104.814 240.688 104.835C240.457 104.856 240.236 104.941 240.05 105.08L221.66 115.7C221.164 116.016 220.765 116.464 220.509 116.994C220.253 117.524 220.149 118.115 220.21 118.7L222.73 136.41C222.734 136.641 222.8 136.866 222.923 137.061C223.046 137.256 223.22 137.414 223.426 137.517C223.633 137.62 223.863 137.665 224.093 137.646C224.323 137.627 224.543 137.545 224.73 137.41L243.12 126.79C243.617 126.474 244.017 126.027 244.275 125.497C244.533 124.967 244.638 124.376 244.58 123.79Z" fill="#EBEBEB"/>
<path d="M273 107.39L270.47 89.68C270.47 89.4479 270.405 89.2203 270.283 89.0228C270.161 88.8254 269.987 88.6658 269.779 88.562C269.571 88.4582 269.339 88.4142 269.108 88.435C268.877 88.4559 268.656 88.5407 268.47 88.68L250.08 99.3C249.585 99.617 249.187 100.065 248.931 100.595C248.675 101.125 248.571 101.715 248.63 102.3L251.16 120C251.164 120.231 251.23 120.456 251.353 120.651C251.476 120.846 251.65 121.004 251.856 121.107C252.063 121.21 252.293 121.255 252.523 121.236C252.753 121.217 252.973 121.135 253.16 121L271.55 110.38C272.044 110.064 272.441 109.617 272.697 109.089C272.953 108.562 273.058 107.974 273 107.39Z" fill="#EBEBEB"/>
<path d="M301.46 91L298.93 73.29C298.93 73.0578 298.865 72.8303 298.743 72.6328C298.621 72.4353 298.447 72.2758 298.239 72.1719C298.031 72.0681 297.799 72.0242 297.568 72.045C297.337 72.0659 297.116 72.1507 296.93 72.29L278.54 82.91C278.044 83.227 277.647 83.6752 277.391 84.2049C277.135 84.7345 277.031 85.3247 277.09 85.91L279.61 103.62C279.614 103.851 279.68 104.076 279.803 104.271C279.926 104.466 280.1 104.624 280.306 104.727C280.513 104.83 280.743 104.875 280.973 104.856C281.203 104.837 281.423 104.755 281.61 104.62L300 94C300.497 93.6842 300.897 93.2365 301.155 92.7068C301.413 92.1771 301.518 91.5862 301.46 91Z" fill="#EBEBEB"/>
<path d="M126.45 158.08L125.81 153.56C125.81 153.328 125.745 153.1 125.623 152.903C125.501 152.705 125.327 152.546 125.119 152.442C124.911 152.338 124.679 152.294 124.448 152.315C124.216 152.336 123.996 152.421 123.81 152.56L105.41 163.2C104.914 163.517 104.516 163.965 104.26 164.495C104.005 165.025 103.9 165.615 103.96 166.2L104.59 170.72C104.593 170.951 104.66 171.176 104.783 171.371C104.906 171.566 105.08 171.724 105.286 171.827C105.493 171.93 105.723 171.975 105.953 171.956C106.183 171.937 106.403 171.855 106.59 171.72L125 161.06C125.49 160.742 125.884 160.297 126.139 159.772C126.395 159.246 126.502 158.662 126.45 158.08Z" fill="#E6E6E6"/>
<path d="M154.89 141.68L154.25 137.16C154.25 136.928 154.185 136.7 154.063 136.503C153.941 136.305 153.766 136.146 153.559 136.042C153.351 135.938 153.119 135.894 152.888 135.915C152.656 135.936 152.436 136.021 152.25 136.16L133.85 146.8C133.354 147.117 132.956 147.565 132.7 148.095C132.444 148.624 132.34 149.215 132.4 149.8L133.03 154.32C133.033 154.551 133.1 154.776 133.223 154.971C133.346 155.166 133.52 155.324 133.726 155.427C133.932 155.53 134.163 155.575 134.393 155.556C134.623 155.537 134.843 155.455 135.03 155.32L153.43 144.7C153.928 144.38 154.328 143.929 154.586 143.396C154.843 142.863 154.949 142.269 154.89 141.68Z" fill="#E6E6E6"/>
<path d="M183.33 125.28L182.69 120.76C182.686 120.529 182.62 120.304 182.497 120.109C182.374 119.914 182.2 119.756 181.994 119.653C181.787 119.55 181.557 119.505 181.327 119.524C181.097 119.543 180.877 119.624 180.69 119.76L162.29 130.4C161.794 130.717 161.397 131.165 161.141 131.695C160.885 132.224 160.781 132.815 160.84 133.4L161.47 137.92C161.47 138.152 161.535 138.38 161.657 138.577C161.779 138.775 161.953 138.934 162.161 139.038C162.369 139.142 162.601 139.186 162.832 139.165C163.063 139.144 163.284 139.059 163.47 138.92L181.87 128.3C182.368 127.98 182.768 127.529 183.026 126.996C183.284 126.463 183.389 125.869 183.33 125.28Z" fill="#E6E6E6"/>
<path d="M211.77 108.89L211.13 104.36C211.126 104.129 211.06 103.904 210.937 103.709C210.814 103.514 210.64 103.356 210.434 103.253C210.227 103.15 209.997 103.105 209.767 103.124C209.537 103.143 209.317 103.225 209.13 103.36L190.73 114C190.234 114.317 189.837 114.765 189.581 115.295C189.325 115.825 189.221 116.415 189.28 117L189.91 121.52C189.91 121.752 189.975 121.98 190.097 122.177C190.219 122.375 190.393 122.534 190.601 122.638C190.809 122.742 191.041 122.786 191.272 122.765C191.503 122.744 191.724 122.659 191.91 122.52L210.31 111.91C210.807 111.589 211.205 111.137 211.463 110.604C211.72 110.072 211.826 109.479 211.77 108.89Z" fill="#E6E6E6"/>
<path d="M240.21 92.49L239.57 87.96C239.566 87.7294 239.499 87.5041 239.377 87.3089C239.254 87.1136 239.08 86.9558 238.873 86.8527C238.667 86.7495 238.437 86.705 238.207 86.7239C237.977 86.7428 237.756 86.8245 237.57 86.96L219.17 97.6C218.675 97.9178 218.278 98.3662 218.022 98.8956C217.766 99.425 217.662 100.015 217.72 100.6L218.35 105.12C218.35 105.352 218.414 105.58 218.536 105.777C218.659 105.975 218.833 106.134 219.041 106.238C219.248 106.342 219.481 106.386 219.712 106.365C219.943 106.344 220.164 106.259 220.35 106.12L238.75 95.51C239.246 95.1885 239.645 94.7369 239.903 94.2044C240.16 93.6718 240.266 93.0788 240.21 92.49Z" fill="#E6E6E6"/>
<path d="M268.65 76.09L268.01 71.57C268.01 71.3379 267.945 71.1103 267.823 70.9128C267.701 70.7154 267.527 70.5558 267.319 70.452C267.111 70.3482 266.879 70.3042 266.648 70.3251C266.417 70.3459 266.196 70.4307 266.01 70.57L247.61 81.2C247.115 81.5178 246.718 81.9662 246.462 82.4956C246.206 83.0251 246.102 83.6149 246.16 84.2L246.79 88.73C246.794 88.9606 246.86 89.1858 246.983 89.3811C247.106 89.5763 247.28 89.7341 247.486 89.8373C247.693 89.9404 247.923 89.985 248.153 89.9661C248.383 89.9472 248.603 89.8655 248.79 89.73L267.19 79.11C267.687 78.7894 268.087 78.3379 268.344 77.8051C268.602 77.2724 268.708 76.6789 268.65 76.09Z" fill="#E6E6E6"/>
<path d="M297.08 59.69L296.45 55.17C296.45 54.9378 296.385 54.7103 296.263 54.5128C296.141 54.3153 295.967 54.1558 295.759 54.0519C295.551 53.9481 295.319 53.9042 295.088 53.925C294.856 53.9459 294.636 54.0307 294.45 54.17L276.06 64.79C275.564 65.1062 275.165 65.5543 274.909 66.0841C274.653 66.614 274.549 67.2046 274.61 67.79L275.24 72.31C275.243 72.5406 275.31 72.7658 275.433 72.9611C275.556 73.1563 275.73 73.3141 275.936 73.4173C276.143 73.5204 276.373 73.565 276.603 73.546C276.833 73.5271 277.053 73.4455 277.24 73.31L295.64 62.69C296.133 62.3709 296.528 61.922 296.782 61.3926C297.036 60.8633 297.139 60.2741 297.08 59.69Z" fill="#E6E6E6"/>
<path opacity="0.2" d="M105 131.38C104.909 130.059 105.182 128.738 105.788 127.56C106.395 126.383 107.312 125.394 108.44 124.7C110.68 123.41 112.77 124.3 113.12 126.7C113.213 128.023 112.94 129.346 112.331 130.524C111.723 131.702 110.802 132.69 109.67 133.38C107.44 134.67 105.35 133.78 105 131.38Z" fill="black"/>
<path opacity="0.2" d="M133.47 115C133.377 113.678 133.649 112.357 134.256 111.179C134.862 110.001 135.78 109.012 136.91 108.32C139.15 107.02 141.24 107.91 141.59 110.32C141.682 111.641 141.409 112.962 140.8 114.139C140.192 115.315 139.271 116.302 138.14 116.99C135.9 118.24 133.81 117.35 133.47 115Z" fill="black"/>
<path opacity="0.2" d="M161.88 98.55C161.787 97.2284 162.059 95.9067 162.665 94.7288C163.272 93.551 164.19 92.5621 165.32 91.87C167.56 90.57 169.66 91.46 170 93.87C170.092 95.1901 169.82 96.5102 169.213 97.6863C168.606 98.8624 167.689 99.8495 166.56 100.54C164.32 101.83 162.22 100.94 161.88 98.55Z" fill="black"/>
<path opacity="0.2" d="M218.74 65.72C218.647 64.3983 218.919 63.0766 219.526 61.8988C220.132 60.7209 221.05 59.7321 222.18 59.04C224.42 57.75 226.51 58.64 226.85 61.04C226.947 62.3622 226.677 63.6856 226.07 64.8643C225.463 66.043 224.543 67.0312 223.41 67.72C221.17 69 219.08 68.12 218.74 65.72Z" fill="black"/>
<path opacity="0.2" d="M247.2 49.3C247.105 47.9781 247.376 46.6555 247.983 45.4773C248.589 44.299 249.509 43.3105 250.64 42.62C252.88 41.32 254.97 42.21 255.32 44.62C255.413 45.9428 255.14 47.2656 254.532 48.4437C253.923 49.6219 253.002 50.61 251.87 51.3C249.63 52.58 247.54 51.69 247.2 49.3Z" fill="black"/>
<path opacity="0.2" d="M275.61 32.89C275.517 31.5683 275.789 30.2466 276.396 29.0688C277.002 27.8909 277.92 26.9021 279.05 26.21C281.29 24.91 283.39 25.8 283.73 28.21C283.822 29.5301 283.55 30.8501 282.943 32.0263C282.337 33.2024 281.419 34.1895 280.29 34.88C278 36.17 276 35.28 275.61 32.89Z" fill="black"/>
<path d="M102.06 104.36C99.0599 102.61 96.1199 102.36 93.8799 103.65C91.6399 104.94 90.3999 107.58 90.3999 111.09C90.4194 112.732 90.6616 114.363 91.1199 115.94L92.8999 114.94C92.5803 113.688 92.4125 112.402 92.3999 111.11C92.3999 108.35 93.2799 106.32 94.8799 105.4C95.5364 105.033 96.2781 104.847 97.0299 104.86C98.4482 104.928 99.8254 105.358 101.03 106.11C106.35 109.19 110.68 116.69 110.68 122.83C110.683 123.268 110.659 123.705 110.61 124.14C110.585 125.011 110.355 125.863 109.938 126.628C109.521 127.393 108.929 128.048 108.21 128.54C107.293 129.035 106.235 129.204 105.21 129.02C105.008 129.666 104.923 130.344 104.96 131.02C105.334 131.079 105.711 131.109 106.09 131.11C107.191 131.124 108.276 130.84 109.23 130.29C110.123 129.73 110.879 128.978 111.445 128.089C112.011 127.2 112.371 126.196 112.5 125.15C112.635 124.391 112.702 123.621 112.7 122.85C112.71 116 107.93 107.75 102.06 104.36Z" fill="#F5F5F5"/>
<path d="M130.52 87.94C127.52 86.19 124.58 85.94 122.34 87.23C120.1 88.52 118.86 91.16 118.86 94.67C118.879 96.3118 119.122 97.9433 119.58 99.52L121.36 98.52C121.04 97.268 120.872 95.9821 120.86 94.69C120.86 91.93 121.74 89.9 123.34 88.98C123.996 88.6134 124.738 88.4271 125.49 88.44C126.908 88.5076 128.285 88.938 129.49 89.69C134.81 92.77 139.14 100.27 139.14 106.41C139.143 106.848 139.119 107.285 139.07 107.72C139.045 108.591 138.815 109.443 138.398 110.208C137.981 110.973 137.389 111.628 136.67 112.12C135.753 112.615 134.695 112.784 133.67 112.6C133.468 113.246 133.383 113.924 133.42 114.6C133.794 114.659 134.171 114.689 134.55 114.69C135.651 114.704 136.736 114.42 137.69 113.87C138.583 113.31 139.339 112.558 139.905 111.669C140.471 110.78 140.831 109.776 140.96 108.73C141.095 107.971 141.162 107.201 141.16 106.43C141.17 99.61 136.39 91.33 130.52 87.94Z" fill="#F5F5F5"/>
<path d="M158.93 71.53C155.93 69.78 152.99 69.53 150.75 70.82C148.51 72.11 147.27 74.75 147.27 78.26C147.29 79.9018 147.532 81.5333 147.99 83.11L149.77 82.11C149.45 80.858 149.283 79.5721 149.27 78.28C149.27 75.52 150.15 73.49 151.75 72.57C152.406 72.2034 153.148 72.0171 153.9 72.03C155.318 72.0977 156.696 72.528 157.9 73.28C163.22 76.36 167.55 83.86 167.55 90C167.553 90.4377 167.53 90.8751 167.48 91.31C167.456 92.1807 167.225 93.0334 166.808 93.7981C166.391 94.5628 165.799 95.218 165.08 95.71C164.163 96.2051 163.106 96.3744 162.08 96.19C161.878 96.8364 161.793 97.5138 161.83 98.19C162.204 98.2494 162.582 98.2794 162.96 98.28C164.061 98.2937 165.146 98.0105 166.1 97.46C166.993 96.9001 167.75 96.1482 168.315 95.2591C168.881 94.37 169.241 93.3659 169.37 92.32C169.505 91.5608 169.572 90.7911 169.57 90.02C169.58 83.2 164.8 74.92 158.93 71.53Z" fill="#F5F5F5"/>
<path d="M215.8 38.75C212.8 37 209.86 36.75 207.62 38.04C205.38 39.33 204.14 41.97 204.14 45.48C204.159 47.1218 204.402 48.7533 204.86 50.33L206.64 49.33C206.32 48.078 206.152 46.7921 206.14 45.5C206.14 42.74 207.02 40.71 208.62 39.79C209.276 39.4234 210.018 39.2371 210.77 39.25C212.188 39.3176 213.565 39.748 214.77 40.5C220.09 43.58 224.42 51.08 224.42 57.22C224.423 57.6576 224.399 58.0951 224.35 58.53C224.325 59.4007 224.095 60.2533 223.678 61.0181C223.261 61.7828 222.669 62.4379 221.95 62.93C221.033 63.4251 219.975 63.5944 218.95 63.41C218.748 64.0564 218.663 64.7337 218.7 65.41C219.074 65.4693 219.451 65.4994 219.83 65.5C220.931 65.5137 222.016 65.2304 222.97 64.68C223.863 64.1201 224.619 63.3682 225.185 62.4791C225.751 61.5899 226.111 60.5859 226.24 59.54C226.375 58.7807 226.442 58.011 226.44 57.24C226.45 50.42 221.67 42.14 215.8 38.75Z" fill="#F5F5F5"/>
<path d="M244.26 22.32C241.26 20.57 238.32 20.32 236.08 21.61C233.84 22.9 232.6 25.54 232.6 29.05C232.619 30.6918 232.862 32.3233 233.32 33.9L235.1 32.9C234.78 31.648 234.612 30.3621 234.6 29.07C234.6 26.31 235.48 24.28 237.08 23.36C237.736 22.9934 238.478 22.8071 239.23 22.82C240.648 22.8876 242.025 23.318 243.23 24.07C248.55 27.15 252.88 34.65 252.88 40.79C252.883 41.2276 252.859 41.6651 252.81 42.1C252.785 42.9707 252.555 43.8233 252.138 44.5881C251.721 45.3528 251.129 46.008 250.41 46.5C249.493 46.9951 248.435 47.1644 247.41 46.98C247.208 47.6264 247.123 48.3037 247.16 48.98C247.534 49.0393 247.911 49.0694 248.29 49.07C249.391 49.0837 250.476 48.8004 251.43 48.25C252.323 47.6901 253.079 46.9382 253.645 46.0491C254.211 45.1599 254.571 44.1559 254.7 43.11C254.835 42.3508 254.902 41.581 254.9 40.81C254.91 34 250.13 25.71 244.26 22.32Z" fill="#F5F5F5"/>
<path d="M272.67 5.91C269.67 4.16 266.73 3.91 264.49 5.2C262.25 6.49 261 9.13 261 12.64C261.02 14.2818 261.262 15.9133 261.72 17.49L263.5 16.49C263.18 15.238 263.013 13.9521 263 12.66C263 9.9 263.88 7.87 265.48 6.95C266.136 6.58342 266.878 6.39711 267.63 6.41C269.048 6.47766 270.426 6.90804 271.63 7.66C276.95 10.74 281.28 18.24 281.28 24.38C281.283 24.8177 281.26 25.2551 281.21 25.69C281.186 26.5608 280.955 27.4134 280.538 28.1781C280.121 28.9428 279.529 29.598 278.81 30.09C277.893 30.5851 276.835 30.7544 275.81 30.57C275.608 31.2164 275.523 31.8938 275.56 32.57C275.934 32.6294 276.312 32.6595 276.69 32.66C277.791 32.6737 278.876 32.3905 279.83 31.84C280.723 31.2801 281.48 30.5283 282.045 29.6391C282.611 28.75 282.971 27.7459 283.1 26.7C283.235 25.9408 283.302 25.1711 283.3 24.4C283.32 17.58 278.54 9.3 272.67 5.91Z" fill="#F5F5F5"/>
<path d="M302.22 266L295.5 277.67C295.058 278.399 294.925 279.274 295.128 280.102C295.332 280.93 295.856 281.643 296.585 282.085C297.314 282.527 298.189 282.66 299.017 282.457C299.845 282.253 300.558 281.729 301 281L307.76 269.26C308.41 268.14 307.71 266.51 306.19 265.63C304.67 264.75 302.87 264.91 302.22 266Z" fill="#455A64"/>
<path d="M355.7 245.45L367.37 252.17C367.729 252.392 368.128 252.54 368.545 252.607C368.961 252.673 369.387 252.656 369.797 252.556C370.207 252.456 370.593 252.275 370.932 252.025C371.272 251.774 371.558 251.459 371.774 251.096C371.99 250.734 372.133 250.332 372.192 249.915C372.252 249.497 372.227 249.072 372.121 248.663C372.014 248.255 371.828 247.872 371.572 247.537C371.316 247.201 370.996 246.92 370.63 246.71L358.89 240C357.77 239.35 356.14 240.05 355.26 241.57C354.38 243.09 354.58 244.8 355.7 245.45Z" fill="#455A64"/>
<path d="M368.63 192.84H368.57L340.14 176.43H340.06C333.82 172.88 325.22 173.43 315.73 178.89C296.66 189.89 281.2 216.68 281.2 238.7C281.2 249.7 285.05 257.39 291.26 261.01H291.31L319.74 277.43H319.81C326.05 281 334.66 280.43 344.16 274.98C363.22 263.98 378.68 237.19 378.68 215.18C378.68 204.18 374.84 196.46 368.63 192.84Z" fill="#0077C8"/>
<path opacity="0.1" d="M319.28 277.1L291.28 260.96H291.22C285.01 257.33 281.17 249.61 281.17 238.65C281.17 228.83 284.25 218.07 289.34 208.19L317.77 224.6C312.67 234.48 309.6 245.24 309.6 255.06C309.62 265.76 313.3 273.38 319.28 277.1Z" fill="black"/>
<path opacity="0.4" d="M368.572 249.177C382.056 225.822 382.057 200.579 368.574 192.794C355.091 185.01 333.23 197.632 319.746 220.987C306.262 244.342 306.261 269.586 319.744 277.37C333.227 285.155 355.088 272.532 368.572 249.177Z" fill="white"/>
<path d="M328.73 272.67C317.81 272.67 316.63 260.33 316.63 255.02C316.63 235.6 330.84 211.02 347.63 201.28C351.91 198.81 356.03 197.51 359.55 197.51C370.47 197.51 371.65 209.85 371.65 215.16C371.65 234.58 357.44 259.16 340.65 268.9C336.36 271.37 332.24 272.67 328.73 272.67Z" fill="#FAFAFA"/>
<path d="M336.5 257.59C336.447 257.6 336.393 257.6 336.34 257.59C336.215 257.545 336.113 257.452 336.055 257.333C335.997 257.213 335.988 257.076 336.03 256.95L343.68 235.1C343.724 234.974 343.816 234.871 343.936 234.812C344.056 234.754 344.194 234.746 344.32 234.79C344.446 234.834 344.549 234.926 344.608 235.046C344.666 235.166 344.674 235.304 344.63 235.43L337 257.25C336.967 257.354 336.899 257.445 336.809 257.506C336.718 257.568 336.609 257.597 336.5 257.59Z" fill="#0077C8"/>
<path d="M355.62 241.69C355.417 241.694 355.215 241.653 355.03 241.57L342.66 236.22V213.78C342.66 213.382 342.818 213.001 343.099 212.719C343.381 212.438 343.762 212.28 344.16 212.28C344.558 212.28 344.939 212.438 345.221 212.719C345.502 213.001 345.66 213.382 345.66 213.78V234.25L356.22 238.82C356.533 238.96 356.789 239.202 356.945 239.507C357.101 239.812 357.148 240.162 357.077 240.497C357.007 240.832 356.824 241.134 356.559 241.351C356.294 241.568 355.963 241.688 355.62 241.69Z" fill="#37474F"/>
<path d="M344.16 230.4C346.4 229.1 348.22 230.15 348.22 232.74C348.137 234.143 347.726 235.506 347.021 236.722C346.316 237.938 345.336 238.971 344.16 239.74C341.91 241.04 340.09 239.99 340.09 237.39C340.176 235.988 340.589 234.626 341.295 233.412C342.002 232.198 342.983 231.167 344.16 230.4Z" fill="#0077C8"/>
<path d="M311.12 214.3C306.22 222.77 296.99 226.61 290.05 222.6C285.979 220.246 283.01 216.372 281.795 211.828C280.581 207.285 281.221 202.446 283.575 198.375C285.929 194.304 289.803 191.335 294.346 190.12C298.889 188.906 303.729 189.546 307.8 191.9C314.72 196 316 205.82 311.12 214.3Z" fill="#455A64"/>
<path d="M290.05 222.6C296.99 226.6 306.22 222.77 311.12 214.3C312.215 212.401 313.027 210.353 313.53 208.22C313.25 208.59 305.09 218.99 294.95 216.06C284.63 213.06 282.69 205.13 283.58 198.37C282.413 200.386 281.655 202.611 281.349 204.92C281.043 207.229 281.195 209.575 281.795 211.825C282.396 214.075 283.435 216.185 284.851 218.034C286.267 219.883 288.034 221.434 290.05 222.6Z" fill="#37474F"/>
<path d="M287.2 196.65L281.94 193.65C281.581 193.428 281.182 193.279 280.765 193.213C280.349 193.147 279.923 193.164 279.513 193.264C279.103 193.364 278.717 193.545 278.378 193.795C278.038 194.046 277.752 194.361 277.536 194.724C277.32 195.086 277.178 195.488 277.118 195.905C277.058 196.323 277.083 196.748 277.189 197.156C277.296 197.565 277.482 197.948 277.738 198.283C277.994 198.618 278.314 198.9 278.68 199.11L284 202.19C285.13 202.84 286.76 202.14 287.64 200.62C288.52 199.1 288.32 197.3 287.2 196.65Z" fill="#0077C8"/>
<path d="M365.66 171.28L368.66 166.03C368.882 165.671 369.03 165.272 369.097 164.855C369.163 164.439 369.145 164.013 369.046 163.603C368.946 163.193 368.765 162.807 368.515 162.468C368.264 162.128 367.948 161.842 367.586 161.626C367.224 161.41 366.822 161.268 366.405 161.208C365.987 161.148 365.562 161.173 365.153 161.279C364.745 161.386 364.362 161.572 364.027 161.828C363.691 162.084 363.41 162.404 363.2 162.77L360.12 168.09C359.47 169.21 360.12 170.84 361.69 171.72C363.26 172.6 365 172.41 365.66 171.28Z" fill="#0077C8"/>
<path d="M340.25 173.45C341.415 171.431 342.967 169.661 344.817 168.242C346.666 166.822 348.777 165.781 351.029 165.178C353.281 164.574 355.629 164.42 357.941 164.724C360.252 165.028 362.481 165.784 364.5 166.95C366.519 168.115 368.289 169.667 369.708 171.517C371.128 173.366 372.169 175.477 372.772 177.729C373.376 179.981 373.53 182.329 373.226 184.641C372.922 186.952 372.165 189.181 371 191.2L340.25 173.45Z" fill="#455A64"/>
<path d="M367.1 168.84C368.1 170.93 370.82 179.78 367.1 181.98C363.38 184.18 346.2 176.88 346.2 176.88L371 191.2C373.065 187.605 373.806 183.399 373.094 179.315C372.381 175.23 370.261 171.524 367.1 168.84Z" fill="#37474F"/>
<path d="M254.87 219.51C237.17 195.72 231.35 193.07 228.02 192.26L233.86 208.26L246 223.83" fill="#FFA8A7"/>
<path d="M226.29 192C226.29 192 230.05 190.86 235.49 196.19C240.93 201.52 247.49 209.29 247.49 209.29C247.49 209.29 245.72 215.64 240.19 217.61L232.19 209.29L226.29 192Z" fill="#0077C8"/>
<path opacity="0.1" d="M226.29 192C226.29 192 230.05 190.86 235.49 196.19C240.93 201.52 247.49 209.29 247.49 209.29C247.49 209.29 245.72 215.64 240.19 217.61L232.19 209.29L226.29 192Z" fill="black"/>
<path d="M229.736 178.837C235.198 177.548 238.58 172.076 237.291 166.615C236.002 161.153 230.53 157.771 225.069 159.06C219.608 160.349 216.225 165.821 217.514 171.282C218.803 176.744 224.275 180.126 229.736 178.837Z" fill="#263238"/>
<path d="M203.08 353.12H210.24V340.87H203.08V353.12Z" fill="#FFA8A7"/>
<path d="M226.42 344.22L233.57 344.47L233.93 331.5L226.77 331.25L226.42 344.22Z" fill="#FFA8A7"/>
<path d="M203.54 243.74V293.25C203.37 295.25 201.92 298.62 201.54 306.99C201.06 317.26 202.63 345.52 202.63 345.52C202.63 345.52 205.98 348.85 210.72 345.52C210.72 345.52 217.07 305.18 218.36 295.01C219.48 286.13 221.36 262.01 221.36 262.01L225.64 298.34C225.64 298.34 224.47 305.01 224.22 309.71C223.97 314.41 226.28 339.54 226.28 339.54C227.44 340.265 228.77 340.672 230.136 340.723C231.503 340.774 232.859 340.466 234.07 339.83C234.07 339.83 238.97 302.18 239.71 297.93C240.45 293.68 237.02 243.73 237.02 243.73L203.54 243.74Z" fill="#37474F"/>
<path d="M210.42 194.29C209.418 194.429 208.43 194.66 207.47 194.98C205.47 195.75 204.6 198.17 204.13 200.3C203.737 202.087 203.539 203.911 203.54 205.74V243.74C208.54 249.2 226.06 251.74 237.02 243.74C237.02 243.74 236.81 210.18 236.02 204.66C234.59 195.08 230.02 191.66 225.4 192.02L214.35 193.6L210.42 194.29Z" fill="#0077C8"/>
<path d="M209.84 176.16C209.84 176.16 211.49 183.89 212.15 185.16C212.586 185.939 213.3 186.525 214.15 186.8L214.03 181.35L209.84 176.16Z" fill="#263238"/>
<path d="M211.91 165.07C211.334 165.004 210.75 165.07 210.203 165.262C209.655 165.455 209.159 165.768 208.75 166.18C207.4 167.57 208.16 171.91 209.84 176.18L212.95 176.53L211.91 165.07Z" fill="#263238"/>
<path d="M213.88 176.51C213.25 176.89 212.37 175.69 211.6 174.89C210.83 174.09 208.33 172.99 207.08 175.62C205.83 178.25 208.18 181.85 210.15 182.47C213.55 183.53 214.06 181.35 214.06 181.35L214.32 193.61C215.07 195.254 216.217 196.687 217.657 197.779C219.096 198.872 220.785 199.59 222.57 199.87C228.57 200.68 227.35 195.72 225.37 193.28V189.55C226.884 189.793 228.419 189.874 229.95 189.79C232.45 189.4 234.02 187.43 234.78 184.73C236 180.38 236.46 176.88 235.43 168.33C234.29 158.97 223.43 158.87 217.52 162.57C211.61 166.27 213.88 176.51 213.88 176.51Z" fill="#FFA8A7"/>
<path d="M213.88 177.56C213.56 177.56 212.37 175.56 211.6 174.89C210.53 173.89 211.91 165.07 211.91 165.07C211.624 164.308 211.566 163.48 211.743 162.686C211.921 161.892 212.326 161.167 212.91 160.6C214.37 158.98 216.83 158.81 221.02 158.15C223.22 157.8 226.56 157.15 228.76 156.78C231.38 156.29 233.55 155.78 235.4 157.38C236.13 158.007 236.646 158.845 236.877 159.779C237.108 160.713 237.043 161.695 236.69 162.59C236.499 163 236.246 163.378 235.94 163.71C235.41 164.3 235.32 165.1 234.57 165.34C234.57 165.34 232.98 166.78 229 167.26C225.335 167.534 221.652 167.464 218 167.05C216.84 166.89 216.53 167.26 215.91 170.31C215.38 173 214.93 177.54 213.88 177.56Z" fill="#263238"/>
<path d="M211.92 165.76L208.16 163.76C208.279 163.507 208.448 163.28 208.657 163.094C208.867 162.908 209.112 162.767 209.378 162.679C209.643 162.591 209.924 162.558 210.203 162.582C210.482 162.607 210.753 162.688 211 162.82C211.498 163.101 211.871 163.562 212.042 164.108C212.213 164.654 212.169 165.245 211.92 165.76Z" fill="#263238"/>
<path d="M225.36 189.55C225.36 189.55 219.79 188.43 217.84 187.39C216.692 186.796 215.751 185.869 215.14 184.73C215.437 185.868 215.957 186.935 216.67 187.87C218.1 189.69 225.36 191.04 225.36 191.04V189.55Z" fill="#F28F8F"/>
<path d="M224.38 176.14C224.372 176.36 224.3 176.572 224.172 176.751C224.044 176.93 223.867 177.067 223.662 177.146C223.456 177.224 223.232 177.241 223.018 177.193C222.803 177.146 222.608 177.036 222.455 176.878C222.302 176.72 222.199 176.52 222.159 176.304C222.119 176.088 222.144 175.865 222.23 175.663C222.315 175.46 222.459 175.288 222.642 175.166C222.825 175.045 223.04 174.98 223.26 174.98C223.41 174.981 223.558 175.012 223.696 175.072C223.834 175.131 223.959 175.217 224.063 175.325C224.168 175.433 224.249 175.561 224.304 175.701C224.358 175.841 224.384 175.99 224.38 176.14Z" fill="#263238"/>
<path d="M223.19 171.93L220.8 173.24C220.632 172.912 220.597 172.532 220.701 172.178C220.805 171.825 221.041 171.525 221.36 171.34C221.518 171.255 221.692 171.202 221.871 171.185C222.05 171.169 222.23 171.189 222.401 171.244C222.572 171.299 222.73 171.388 222.866 171.506C223.001 171.624 223.112 171.768 223.19 171.93Z" fill="#263238"/>
<path d="M224.86 182.84L227.41 183.84C227.355 184.011 227.266 184.169 227.148 184.305C227.03 184.441 226.886 184.551 226.725 184.63C226.563 184.708 226.387 184.753 226.207 184.762C226.028 184.771 225.848 184.743 225.68 184.68C225.504 184.615 225.343 184.515 225.206 184.386C225.069 184.258 224.96 184.104 224.883 183.932C224.807 183.761 224.766 183.576 224.762 183.389C224.758 183.201 224.791 183.014 224.86 182.84Z" fill="#F28F8F"/>
<path d="M234.34 172.86L232.16 171.18C232.262 171.032 232.394 170.906 232.546 170.811C232.699 170.715 232.869 170.652 233.047 170.625C233.225 170.598 233.407 170.607 233.581 170.653C233.755 170.698 233.918 170.779 234.06 170.89C234.351 171.119 234.543 171.452 234.595 171.819C234.647 172.186 234.556 172.559 234.34 172.86Z" fill="#263238"/>
<path d="M233.67 175.83C233.673 175.979 233.646 176.128 233.591 176.266C233.536 176.405 233.454 176.532 233.35 176.638C233.246 176.745 233.121 176.831 232.984 176.889C232.847 176.948 232.699 176.979 232.55 176.98C232.319 176.988 232.09 176.927 231.894 176.804C231.698 176.681 231.543 176.502 231.449 176.29C231.356 176.078 231.327 175.843 231.368 175.616C231.409 175.388 231.518 175.177 231.679 175.011C231.841 174.846 232.048 174.732 232.275 174.685C232.502 174.638 232.737 174.66 232.951 174.748C233.165 174.836 233.348 174.986 233.476 175.179C233.604 175.372 233.672 175.599 233.67 175.83Z" fill="#263238"/>
<path d="M227.62 173.74L227.99 180.46L231.5 179.27L227.62 173.74Z" fill="#F28F8F"/>
<path d="M210.23 349.59V348.59C210.92 348.88 212.51 354.96 215.35 357.59C217.61 359.65 220.69 362.02 221.47 364.32C222.25 366.62 217.18 368.03 215.07 367.65C212.62 367.22 208.37 365.49 207.31 363.89C206.25 362.29 205.74 359.89 204.87 358.76C204 357.63 202.01 356.28 201.54 354.92C201.398 353.652 201.538 352.368 201.95 351.16C202.28 349.9 202.64 348.51 203.07 348.63C203.07 348.78 203.07 349.41 203.07 349.41C204.093 350.205 205.354 350.632 206.65 350.62C207.7 350.6 210.24 350.39 210.23 349.59Z" fill="#263238"/>
<path d="M233.64 342.26C234.02 342.26 234.32 342.8 235.14 343.69C236.367 344.917 237.79 345.931 239.35 346.69C242.03 348.04 247.24 350.1 249.6 351.16C251.07 351.83 251 353.61 249.48 354.62C247.96 355.63 244.28 356.36 239.87 355.37C237.46 354.84 234.33 352.61 232.35 352.73C230.37 352.85 226.66 352.83 225.2 351.82C223.74 350.81 224.32 348.66 224.73 346.82C225.18 344.82 225.83 341.71 226.5 341.82V342.46C227.37 343.76 231.75 344.29 233.64 343.34V342.26Z" fill="#263238"/>
<path d="M221.36 262C225.072 260.854 228.486 258.904 231.36 256.29C231.36 256.29 229.44 259.89 223.72 263.24L223.84 282.75L221.36 262Z" fill="#263238"/>
<path d="M207.79 261.7C206.61 260.7 205.87 259.41 204.09 258.1C202.801 257.303 201.72 256.209 200.94 254.91C199.94 253.23 198.94 247.63 198.64 242.31C198.461 236.369 199.296 230.441 201.11 224.78C203.54 218.07 208.47 209.07 210.11 205.27C211.75 201.47 210.87 199.56 209.4 197.63C207.68 195.37 204.49 195.36 201.48 200.51C197.47 207.669 194.27 215.252 191.94 223.12C190.369 229.006 189.784 235.112 190.21 241.19C190.54 246.82 191.77 251.12 193.35 256.53C193.79 258 193.74 259.2 194.24 262.11C194.371 263.326 194.681 264.515 195.16 265.64C195.838 266.991 196.703 268.24 197.73 269.35C199.031 270.759 200.685 271.795 202.52 272.35C203.529 272.651 204.594 272.709 205.63 272.52C206.671 272.332 207.611 271.779 208.28 270.96C208.42 270.797 208.516 270.601 208.56 270.39C208.556 270.017 208.41 269.659 208.15 269.39C206.729 267.726 205.394 265.99 204.15 264.19C203.23 262.64 202.79 261.41 203.15 261.48C203.51 261.55 203.98 262.48 205.32 263.32C206.66 264.16 208.32 264.13 208.71 263.38C209.1 262.63 209 262.72 207.79 261.7Z" fill="#FFA8A7"/>
<path d="M208.28 194.75C205.42 194.92 202.82 195.56 199.96 201.23C197.1 206.9 192.61 217.52 192.61 217.52C193.693 219.46 195.281 221.07 197.206 222.181C199.13 223.292 201.318 223.861 203.54 223.83C203.54 223.83 210.12 210.09 211.19 206.47C212.26 202.85 213 197 208.28 194.75Z" fill="#0077C8"/>
<path opacity="0.1" d="M208.28 194.75C205.42 194.92 202.82 195.56 199.96 201.23C197.1 206.9 192.61 217.52 192.61 217.52C193.693 219.46 195.281 221.07 197.206 222.181C199.13 223.292 201.318 223.861 203.54 223.83C203.54 223.83 210.12 210.09 211.19 206.47C212.26 202.85 213 197 208.28 194.75Z" fill="black"/>
<path d="M246 223.83C245.35 225.73 239.11 231.52 234.52 233.36C233.433 233.735 232.264 233.804 231.14 233.56C230.064 233.108 228.906 232.884 227.74 232.9C226.4 233.02 225.04 233.28 223.69 233.44C223.409 233.449 223.133 233.517 222.88 233.64C222.06 234.09 222.53 234.78 223.18 235.03C224.227 235.408 225.3 235.712 226.39 235.94V236.23C223.597 237.206 220.683 237.792 217.73 237.97C217.205 237.975 216.696 238.151 216.28 238.47C216.11 238.66 215.991 238.89 215.933 239.138C215.876 239.386 215.881 239.645 215.95 239.89C216.09 240.377 216.328 240.829 216.65 241.22C217.855 243.044 219.731 244.319 221.87 244.77C224.032 244.935 226.205 244.663 228.26 243.97C229.253 243.69 230.233 243.38 231.2 243.04C234.03 241.998 236.786 240.765 239.45 239.35C245.153 236.357 250.444 232.635 255.19 228.28C258.07 225.47 257.36 222.77 254.94 219.51" fill="#FFA8A7"/>
<path d="M233.85 233.54C233.85 233.54 234.85 233.17 235.99 235C237.13 236.83 237.85 240.17 236.42 240.83C236.913 240.858 237.404 240.758 237.846 240.539C238.288 240.32 238.665 239.989 238.94 239.58C239.234 238.276 239.153 236.916 238.707 235.657C238.261 234.397 237.468 233.289 236.42 232.46C235.457 232.48 234.538 232.867 233.85 233.54Z" fill="#37474F"/>
<path d="M239.14 234.21C239.354 234.572 239.456 234.989 239.432 235.409C239.408 235.829 239.26 236.232 239.006 236.568C238.752 236.903 238.405 237.155 238.007 237.293C237.61 237.43 237.181 237.446 236.774 237.339C236.368 237.231 236.002 237.006 235.724 236.69C235.446 236.375 235.268 235.984 235.213 235.567C235.158 235.15 235.228 234.726 235.415 234.349C235.601 233.972 235.895 233.659 236.26 233.45C236.743 233.17 237.317 233.093 237.857 233.235C238.397 233.378 238.858 233.728 239.14 234.21Z" fill="#0077C8"/>
<path d="M238.65 234.49C238.806 234.757 238.878 235.065 238.859 235.373C238.84 235.682 238.729 235.978 238.541 236.223C238.354 236.469 238.097 236.653 237.804 236.752C237.511 236.852 237.196 236.862 236.897 236.782C236.599 236.702 236.331 236.534 236.127 236.302C235.924 236.069 235.794 235.781 235.755 235.474C235.716 235.167 235.768 234.856 235.906 234.579C236.044 234.302 236.261 234.073 236.53 233.92C236.707 233.818 236.902 233.752 237.104 233.725C237.306 233.698 237.511 233.712 237.708 233.765C237.905 233.818 238.09 233.909 238.251 234.034C238.413 234.158 238.548 234.313 238.65 234.49Z" fill="#FAFAFA"/>
</g>
<defs>
<clipPath id="clip0_130_1326">
<rect width="379" height="368" fill="white"/>
</clipPath>
</defs>
</svg>
