<svg width="76" height="88" viewBox="0 0 76 88" fill="none" xmlns="http://www.w3.org/2000/svg">
<path fill-rule="evenodd" clip-rule="evenodd" d="M38 76C58.9868 76 76 58.9868 76 38C76 17.0132 58.9868 0 38 0C17.0132 0 0 17.0132 0 38C0 58.9868 17.0132 76 38 76ZM37.5 50C43.2991 50 48 45.2991 48 39.5C48 33.7009 43.2991 29 37.5 29C31.7009 29 27 33.7009 27 39.5C27 45.2991 31.7009 50 37.5 50Z" fill="#114857"/>
<path fill-rule="evenodd" clip-rule="evenodd" d="M45.7192 31.7781C41.4236 27.4825 34.4587 27.4825 30.1631 31.7781L11.7783 50.1629C7.48242 54.4588 7.48242 61.4236 11.7783 65.7193L30.1631 84.1041C34.4587 88.4 41.4236 88.4 45.7192 84.1041L64.104 65.7193C68.3999 61.4236 68.3999 54.4588 64.104 50.1629L45.7192 31.7781ZM37.5 50.0001C43.2991 50.0001 48 45.2991 48 39.5001C48 33.701 43.2991 29.0001 37.5 29.0001C31.7009 29.0001 27 33.701 27 39.5001C27 45.2991 31.7009 50.0001 37.5 50.0001Z" fill="#114857"/>
</svg>
