<svg width="90" height="83" viewBox="0 0 90 83" fill="none" xmlns="http://www.w3.org/2000/svg">
<path fill-rule="evenodd" clip-rule="evenodd" d="M23.9975 70.9993C22.8929 70.9993 21.9975 70.1038 21.9975 68.9993L21.9975 33.9993C21.9975 32.8947 21.102 31.9993 19.9975 31.9993H11.9996C10.895 31.9993 9.99961 32.8947 9.99961 33.9993L9.99961 68.9993C9.99961 70.1038 9.10417 70.9993 7.9996 70.9993H4.00171C2.89714 70.9993 2.00171 71.8947 2.00171 72.9993V80.9993C2.00171 82.1038 2.89714 82.9993 4.00171 82.9993H85.9821C87.0867 82.9993 87.9821 82.1038 87.9821 80.9993V72.9993C87.9821 71.8947 87.0867 70.9993 85.9821 70.9993H81.9842C80.8796 70.9993 79.9842 70.1038 79.9842 68.9993V33.9993C79.9842 32.8947 79.0888 31.9993 77.9842 31.9993H69.9863C68.8818 31.9993 67.9863 32.8947 67.9863 33.9993V68.9993C67.9863 70.1038 67.0909 70.9993 65.9863 70.9993H52.9909C51.8864 70.9993 50.9909 70.1038 50.9909 68.9993L50.9909 33.9993C50.9909 32.8947 50.0955 31.9993 48.9909 31.9993H40.9931C39.8885 31.9993 38.9931 32.8947 38.9931 33.9993L38.9931 68.9993C38.9931 70.1038 38.0977 70.9993 36.9931 70.9993H23.9975Z" fill="#114857"/>
<g clip-path="url(#clip0_125_1105)">
<path d="M44.0328 0.534306C44.6346 0.201782 45.3652 0.201781 45.967 0.534305L88.4405 23.9994C90.2491 24.9986 89.5396 27.75 87.4734 27.75H2.52645C0.460191 27.75 -0.2493 24.9986 1.5593 23.9994L44.0328 0.534306Z" fill="#114857"/>
</g>
<defs>
<clipPath id="clip0_125_1105">
<rect width="89.9795" height="28" fill="white" transform="translate(0.00439453)"/>
</clipPath>
</defs>
</svg>
