<svg width="16" height="16" viewBox="0 0 16 16" fill="none" xmlns="http://www.w3.org/2000/svg">
<path fill-rule="evenodd" clip-rule="evenodd" d="M2 0C0.895508 0 0 0.895386 0 2V14C0 15.1046 0.895508 16 2 16H14C15.1045 16 16 15.1046 16 14V2C16 0.895386 15.1045 0 14 0H2ZM12.707 4.70715C13.0977 4.31653 13.0977 3.68347 12.707 3.29285C12.3167 2.90234 11.6833 2.90234 11.293 3.29285L3.29297 11.2928C2.90234 11.6835 2.90234 12.3165 3.29297 12.7072C3.68335 13.0977 4.31665 13.0977 4.70703 12.7072L12.707 4.70715ZM6 4.5C6 5.32837 5.32837 6 4.5 6C3.67163 6 3 5.32837 3 4.5C3 3.67163 3.67163 3 4.5 3C5.32837 3 6 3.67163 6 4.5ZM11.5 13C12.3284 13 13 12.3284 13 11.5C13 10.6716 12.3284 10 11.5 10C10.6716 10 10 10.6716 10 11.5C10 12.3284 10.6716 13 11.5 13Z" fill="#114857"/>
</svg>
