<svg width="334" height="457" viewBox="0 0 334 457" fill="none" xmlns="http://www.w3.org/2000/svg">
<path d="M302 20L174.5 1.99996C146.1 -2.00945 135 15.996 133 25.5C106.833 131.667 52.6 351.3 45 380.5C37.4 409.7 50.5 420 58 421.5C93.1667 429.5 169.6 446.6 194 451C218.4 455.4 231.249 438.5 234 427C259.833 319 313.5 96 321 64.5C328.064 34.8294 311.5 22 302 20Z" fill="#111111" stroke="#111111"/>
<path d="M47.5 391.5C43.9 409.5 56.8333 417.333 64 419.5C99.3333 426.833 175.4 443.5 197 447.5C218.6 451.5 228.667 431.167 231 420.5C257.833 308.833 312.7 79.6 317.5 56C322.3 32.4 305.5 24.5 296.5 23.5C263.833 18.8333 193 8.7 171 5.5C149 2.3 138.167 19.1667 135.5 28C107.5 141.667 51.1 373.5 47.5 391.5Z" fill="url(#paint0_linear_118_975)"/>
<path d="M329.5 70.5C336.7 40.1 316.5 24 302.5 20C323.3 26.8 324.167 49.8333 322 60.5C296.833 165 245.37 383.279 235.5 419C225.276 456 202.5 452.5 191 450.5C156.056 444.423 83.8 427.3 71 424.5C58.2 421.7 52.8333 420 51.5 419C58.7 426.6 155.333 447.167 201.5 456C205.667 456.833 216.5 457.4 226.5 453C236.5 448.6 242.333 435.833 244 430C269.5 322.833 322.3 100.9 329.5 70.5Z" fill="#00546C"/>
<rect x="305.194" y="141.85" width="5.22095" height="50.5237" rx="2.61047" transform="rotate(13.9243 305.194 141.85)" fill="#01C8BC"/>
<rect x="204.319" y="18.3198" width="51.1322" height="17.2711" rx="8.63556" transform="rotate(7.26331 204.319 18.3198)" fill="#111111"/>
<rect x="217.556" y="10.1708" width="29" height="4.39709" rx="1" transform="rotate(7.26 217.556 10.1708)" fill="#111111"/>
<rect x="4" y="179.974" width="219" height="144.046" rx="16" transform="rotate(-3.65843 4 179.974)" fill="#363636"/>
<rect y="176.974" width="219" height="144.046" rx="16" transform="rotate(-3.65843 0 176.974)" fill="#00546C"/>
<mask id="mask0_118_975" style="mask-type:alpha" maskUnits="userSpaceOnUse" x="14" y="187" width="47" height="32">
<rect x="14" y="189.884" width="45.1953" height="29.7268" rx="14.8634" transform="rotate(-3.65843 14 189.884)" fill="#DEAC64"/>
</mask>
<g mask="url(#mask0_118_975)">
<rect x="14" y="189.884" width="45.1953" height="29.7268" rx="14.8634" transform="rotate(-3.65843 14 189.884)" fill="#DEAC64"/>
<rect x="28.0674" y="198.565" width="17.3498" height="11.0695" rx="5.53473" transform="rotate(-3.65843 28.0674 198.565)" stroke="#E9E6E1"/>
<rect x="14.7024" y="204.492" width="46.0572" height="0.525497" rx="0.262748" transform="rotate(-3.65843 14.7024 204.492)" stroke="#E9E6E1" stroke-width="0.525497"/>
<rect x="36.7481" y="180.274" width="46.0572" height="0.525497" rx="0.262748" transform="rotate(86.9755 36.7481 180.274)" stroke="#E9E6E1" stroke-width="0.525497"/>
<rect x="53.7832" y="187.574" width="45.5098" height="0.525497" rx="0.262748" transform="rotate(135 53.7832 187.574)" stroke="#E9E6E1" stroke-width="0.525497"/>
<rect x="57.5128" y="215.026" width="46.0572" height="0.525497" rx="0.262748" transform="rotate(-150 57.5128 215.026)" stroke="#E9E6E1" stroke-width="0.525497"/>
<rect x="28.0674" y="198.565" width="17.3498" height="11.0695" rx="5.53473" transform="rotate(-3.65843 28.0674 198.565)" fill="#DEAC64" stroke="#E9E6E1"/>
</g>
<path d="M22.3626 254.5C21.4898 254.556 20.6931 254.382 19.9725 253.979C19.2627 253.576 18.6782 252.961 18.2193 252.135C17.7709 251.309 17.5079 250.289 17.4303 249.075C17.3527 247.862 17.4836 246.817 17.823 245.94C18.173 245.063 18.6744 244.378 19.327 243.888C19.9904 243.396 20.7585 243.123 21.6313 243.067C22.4936 243.012 23.285 243.186 24.0055 243.589C24.726 243.991 25.3104 244.606 25.7588 245.432C26.2071 246.259 26.4701 247.279 26.5477 248.492C26.6253 249.706 26.4944 250.751 26.155 251.628C25.8157 252.505 25.3143 253.189 24.651 253.68C23.9877 254.171 23.2249 254.445 22.3626 254.5ZM22.2717 253.079C22.8572 253.041 23.358 252.849 23.774 252.502C24.2006 252.154 24.5159 251.652 24.7199 250.998C24.9345 250.343 25.0116 249.542 24.951 248.594C24.8904 247.647 24.7119 246.862 24.4156 246.24C24.1299 245.617 23.7533 245.16 23.2858 244.869C22.8289 244.578 22.3077 244.451 21.7222 244.488C21.1368 244.526 20.6307 244.718 20.204 245.066C19.7774 245.414 19.4567 245.916 19.2421 246.571C19.0381 247.225 18.9665 248.026 19.0271 248.973C19.0877 249.921 19.2608 250.706 19.5465 251.329C19.8428 251.951 20.2248 252.408 20.6923 252.699C21.1598 252.989 21.6863 253.116 22.2717 253.079ZM33.0128 253.818C32.1399 253.874 31.3432 253.701 30.6227 253.298C29.9128 252.894 29.3284 252.28 28.8694 251.454C28.421 250.628 28.1581 249.608 28.0804 248.394C28.0028 247.181 28.1337 246.136 28.4731 245.259C28.8231 244.381 29.3245 243.697 29.9771 243.207C30.6405 242.715 31.4086 242.442 32.2815 242.386C33.1437 242.331 33.9351 242.504 34.6556 242.907C35.3761 243.31 35.9605 243.925 36.4089 244.751C36.8572 245.578 37.1202 246.598 37.1978 247.811C37.2754 249.025 37.1445 250.07 36.8052 250.947C36.4658 251.823 35.9644 252.507 35.3011 252.999C34.6378 253.49 33.875 253.763 33.0128 253.818ZM32.9218 252.397C33.5073 252.36 34.0081 252.168 34.4241 251.82C34.8507 251.472 35.1661 250.971 35.37 250.317C35.5847 249.662 35.6617 248.861 35.6011 247.913C35.5405 246.966 35.362 246.181 35.0657 245.559C34.78 244.936 34.4034 244.479 33.9359 244.188C33.479 243.896 32.9578 243.769 32.3724 243.807C31.7869 243.844 31.2808 244.037 30.8542 244.385C30.4275 244.733 30.1069 245.234 29.8922 245.889C29.6883 246.544 29.6166 247.345 29.6772 248.292C29.7378 249.24 29.9109 250.025 30.1966 250.648C30.4929 251.27 30.8749 251.727 31.3424 252.017C31.8099 252.308 32.3364 252.435 32.9218 252.397ZM43.6629 253.137C42.79 253.193 41.9933 253.02 41.2728 252.617C40.5629 252.213 39.9785 251.599 39.5195 250.773C39.0711 249.946 38.8082 248.927 38.7305 247.713C38.6529 246.499 38.7838 245.454 39.1232 244.578C39.4732 243.7 39.9746 243.016 40.6273 242.525C41.2906 242.034 42.0587 241.76 42.9316 241.705C43.7938 241.649 44.5852 241.823 45.3057 242.226C46.0262 242.629 46.6106 243.244 47.059 244.07C47.5073 244.896 47.7703 245.916 47.8479 247.13C47.9255 248.343 47.7947 249.388 47.4553 250.265C47.1159 251.142 46.6145 251.826 45.9512 252.317C45.2879 252.809 44.5251 253.082 43.6629 253.137ZM43.572 251.716C44.1574 251.679 44.6582 251.486 45.0742 251.139C45.5008 250.791 45.8162 250.29 46.0201 249.636C46.2348 248.981 46.3118 248.179 46.2512 247.232C46.1906 246.285 46.0121 245.5 45.7158 244.877C45.4301 244.254 45.0535 243.797 44.586 243.507C44.1291 243.215 43.6079 243.088 43.0225 243.126C42.437 243.163 41.9309 243.356 41.5043 243.704C41.0776 244.052 40.757 244.553 40.5423 245.208C40.3384 245.863 40.2667 246.663 40.3273 247.611C40.3879 248.558 40.561 249.343 40.8467 249.967C41.143 250.589 41.525 251.045 41.9925 251.336C42.46 251.627 42.9865 251.754 43.572 251.716ZM54.313 252.456C53.4401 252.512 52.6434 252.338 51.9229 251.935C51.213 251.532 50.6286 250.917 50.1696 250.092C49.7213 249.265 49.4583 248.245 49.3807 247.032C49.303 245.818 49.4339 244.773 49.7733 243.896C50.1233 243.019 50.6247 242.335 51.2774 241.844C51.9407 241.353 52.7088 241.079 53.5817 241.023C54.4439 240.968 55.2353 241.142 55.9558 241.545C56.6763 241.948 57.2607 242.562 57.7091 243.389C58.1574 244.215 58.4204 245.235 58.498 246.449C58.5756 247.662 58.4448 248.707 58.1054 249.584C57.766 250.461 57.2646 251.145 56.6013 251.636C55.938 252.128 55.1752 252.401 54.313 252.456ZM54.2221 251.035C54.8075 250.997 55.3083 250.805 55.7243 250.458C56.151 250.11 56.4663 249.609 56.6702 248.954C56.8849 248.299 56.9619 247.498 56.9013 246.551C56.8407 245.603 56.6622 244.818 56.3659 244.196C56.0802 243.573 55.7036 243.116 55.2361 242.825C54.7792 242.534 54.258 242.407 53.6726 242.444C53.0871 242.482 52.581 242.675 52.1544 243.023C51.7277 243.37 51.4071 243.872 51.1925 244.527C50.9885 245.181 50.9168 245.982 50.9774 246.93C51.038 247.877 51.2111 248.662 51.4968 249.285C51.7932 249.908 52.1751 250.364 52.6426 250.655C53.1101 250.946 53.6366 251.072 54.2221 251.035ZM69.2512 251.5C68.3783 251.556 67.5816 251.383 66.8611 250.98C66.1512 250.576 65.5668 249.962 65.1078 249.136C64.6595 248.31 64.3965 247.29 64.3189 246.076C64.2412 244.863 64.3721 243.818 64.7115 242.941C65.0616 242.063 65.5629 241.379 66.2156 240.889C66.8789 240.397 67.647 240.124 68.5199 240.068C69.3821 240.013 70.1735 240.186 70.894 240.589C71.6145 240.992 72.199 241.607 72.6473 242.433C73.0956 243.26 73.3586 244.279 73.4362 245.493C73.5139 246.707 73.383 247.752 73.0436 248.628C72.7042 249.505 72.2028 250.189 71.5395 250.681C70.8762 251.172 70.1134 251.445 69.2512 251.5ZM69.1603 250.079C69.7458 250.042 70.2465 249.85 70.6625 249.502C71.0892 249.154 71.4045 248.653 71.6085 247.999C71.8231 247.344 71.9001 246.543 71.8395 245.595C71.7789 244.648 71.6004 243.863 71.3041 243.241C71.0184 242.617 70.6418 242.161 70.1743 241.87C69.7174 241.578 69.1963 241.451 68.6108 241.489C68.0253 241.526 67.5193 241.719 67.0926 242.067C66.6659 242.415 66.3453 242.916 66.1307 243.571C65.9267 244.226 65.855 245.027 65.9156 245.974C65.9762 246.921 66.1494 247.707 66.435 248.33C66.7314 248.952 67.1133 249.409 67.5808 249.699C68.0483 249.99 68.5748 250.117 69.1603 250.079ZM79.9013 250.819C79.0284 250.875 78.2317 250.702 77.5112 250.299C76.8013 249.895 76.2169 249.281 75.7579 248.455C75.3096 247.628 75.0466 246.608 74.969 245.395C74.8914 244.181 75.0222 243.136 75.3616 242.26C75.7117 241.382 76.213 240.698 76.8657 240.207C77.529 239.716 78.2971 239.442 79.17 239.387C80.0322 239.331 80.8236 239.505 81.5441 239.908C82.2646 240.311 82.8491 240.925 83.2974 241.752C83.7457 242.578 84.0087 243.598 84.0863 244.812C84.164 246.025 84.0331 247.07 83.6937 247.947C83.3543 248.824 82.853 249.508 82.1896 249.999C81.5263 250.491 80.7635 250.764 79.9013 250.819ZM79.8104 249.398C80.3959 249.361 80.8966 249.168 81.3126 248.821C81.7393 248.473 82.0546 247.972 82.2586 247.318C82.4732 246.663 82.5502 245.861 82.4896 244.914C82.429 243.967 82.2505 243.182 81.9542 242.559C81.6685 241.936 81.2919 241.479 80.8244 241.189C80.3675 240.897 79.8464 240.77 79.2609 240.808C78.6754 240.845 78.1694 241.038 77.7427 241.386C77.316 241.734 76.9954 242.235 76.7808 242.89C76.5768 243.545 76.5051 244.345 76.5657 245.293C76.6263 246.24 76.7995 247.025 77.0852 247.648C77.3815 248.271 77.7634 248.727 78.2309 249.018C78.6984 249.309 79.2249 249.436 79.8104 249.398ZM90.5514 250.138C89.6785 250.194 88.8818 250.02 88.1613 249.617C87.4514 249.214 86.867 248.599 86.408 247.774C85.9597 246.947 85.6967 245.927 85.6191 244.714C85.5415 243.5 85.6723 242.455 86.0117 241.578C86.3618 240.701 86.8631 240.017 87.5158 239.526C88.1791 239.035 88.9472 238.761 89.8201 238.705C90.6823 238.65 91.4737 238.824 92.1942 239.227C92.9148 239.63 93.4992 240.244 93.9475 241.071C94.3959 241.897 94.6588 242.917 94.7365 244.131C94.8141 245.344 94.6832 246.389 94.3438 247.266C94.0044 248.143 93.5031 248.827 92.8397 249.318C92.1764 249.81 91.4136 250.083 90.5514 250.138ZM90.4605 248.717C91.046 248.679 91.5467 248.487 91.9627 248.14C92.3894 247.792 92.7047 247.291 92.9087 246.636C93.1233 245.981 93.2003 245.18 93.1397 244.233C93.0791 243.285 92.9007 242.5 92.6043 241.878C92.3186 241.255 91.942 240.798 91.4745 240.507C91.0176 240.216 90.4965 240.089 89.911 240.126C89.3255 240.164 88.8195 240.357 88.3928 240.704C87.9662 241.052 87.6455 241.554 87.4309 242.209C87.2269 242.863 87.1552 243.664 87.2158 244.612C87.2764 245.559 87.4496 246.344 87.7353 246.967C88.0316 247.59 88.4135 248.046 88.881 248.337C89.3485 248.628 89.875 248.754 90.4605 248.717ZM101.202 249.457C100.329 249.513 99.5319 249.339 98.8114 248.936C98.1015 248.533 97.5171 247.918 97.0581 247.092C96.6098 246.266 96.3468 245.246 96.2692 244.032C96.1916 242.819 96.3225 241.774 96.6618 240.897C97.0119 240.02 97.5132 239.335 98.1659 238.845C98.8292 238.353 99.5973 238.08 100.47 238.024C101.332 237.969 102.124 238.143 102.844 238.546C103.565 238.948 104.149 239.563 104.598 240.389C105.046 241.216 105.309 242.236 105.387 243.449C105.464 244.663 105.333 245.708 104.994 246.585C104.655 247.462 104.153 248.146 103.49 248.637C102.827 249.128 102.064 249.402 101.202 249.457ZM101.111 248.036C101.696 247.998 102.197 247.806 102.613 247.459C103.04 247.111 103.355 246.609 103.559 245.955C103.773 245.3 103.85 244.499 103.79 243.551C103.729 242.604 103.551 241.819 103.254 241.197C102.969 240.574 102.592 240.117 102.125 239.826C101.668 239.535 101.147 239.408 100.561 239.445C99.9756 239.483 99.4696 239.675 99.0429 240.023C98.6163 240.371 98.2956 240.873 98.081 241.528C97.877 242.182 97.8053 242.983 97.8659 243.93C97.9265 244.878 98.0997 245.663 98.3854 246.286C98.6817 246.908 99.0636 247.365 99.5311 247.656C99.9987 247.946 100.525 248.073 101.111 248.036ZM116.14 248.501C115.267 248.557 114.47 248.383 113.75 247.981C113.04 247.577 112.455 246.963 111.996 246.137C111.548 245.31 111.285 244.29 111.207 243.077C111.13 241.863 111.261 240.818 111.6 239.941C111.95 239.064 112.451 238.38 113.104 237.889C113.767 237.398 114.536 237.124 115.408 237.069C116.271 237.013 117.062 237.187 117.783 237.59C118.503 237.993 119.088 238.607 119.536 239.434C119.984 240.26 120.247 241.28 120.325 242.494C120.402 243.707 120.272 244.752 119.932 245.629C119.593 246.506 119.091 247.19 118.428 247.681C117.765 248.173 117.002 248.446 116.14 248.501ZM116.049 247.08C116.634 247.043 117.135 246.85 117.551 246.503C117.978 246.155 118.293 245.654 118.497 245C118.712 244.344 118.789 243.543 118.728 242.596C118.667 241.648 118.489 240.864 118.193 240.241C117.907 239.618 117.53 239.161 117.063 238.871C116.606 238.579 116.085 238.452 115.499 238.49C114.914 238.527 114.408 238.72 113.981 239.068C113.554 239.416 113.234 239.917 113.019 240.572C112.815 241.227 112.744 242.027 112.804 242.975C112.865 243.922 113.038 244.707 113.324 245.33C113.62 245.953 114.002 246.409 114.469 246.7C114.937 246.991 115.463 247.117 116.049 247.08ZM126.79 247.82C125.917 247.876 125.12 247.702 124.4 247.299C123.69 246.896 123.105 246.281 122.646 245.456C122.198 244.629 121.935 243.609 121.858 242.396C121.78 241.182 121.911 240.137 122.25 239.26C122.6 238.383 123.102 237.699 123.754 237.208C124.418 236.717 125.186 236.443 126.059 236.387C126.921 236.332 127.712 236.506 128.433 236.909C129.153 237.312 129.738 237.926 130.186 238.753C130.634 239.579 130.897 240.599 130.975 241.812C131.053 243.026 130.922 244.071 130.582 244.948C130.243 245.825 129.742 246.509 129.078 247C128.415 247.491 127.652 247.765 126.79 247.82ZM126.699 246.399C127.284 246.361 127.785 246.169 128.201 245.822C128.628 245.474 128.943 244.973 129.147 244.318C129.362 243.663 129.439 242.862 129.378 241.915C129.318 240.967 129.139 240.182 128.843 239.56C128.557 238.937 128.18 238.48 127.713 238.189C127.256 237.898 126.735 237.771 126.149 237.808C125.564 237.846 125.058 238.039 124.631 238.386C124.205 238.734 123.884 239.236 123.669 239.891C123.465 240.545 123.394 241.346 123.454 242.294C123.515 243.241 123.688 244.026 123.974 244.649C124.27 245.272 124.652 245.728 125.119 246.019C125.587 246.31 126.113 246.436 126.699 246.399ZM137.44 247.139C136.567 247.194 135.77 247.021 135.05 246.618C134.34 246.215 133.756 245.6 133.297 244.774C132.848 243.948 132.585 242.928 132.508 241.714C132.43 240.501 132.561 239.456 132.9 238.579C133.25 237.702 133.752 237.017 134.404 236.527C135.068 236.035 135.836 235.762 136.709 235.706C137.571 235.651 138.362 235.825 139.083 236.228C139.803 236.63 140.388 237.245 140.836 238.071C141.284 238.898 141.547 239.918 141.625 241.131C141.703 242.345 141.572 243.39 141.232 244.267C140.893 245.143 140.392 245.828 139.728 246.319C139.065 246.81 138.302 247.083 137.44 247.139ZM137.349 245.718C137.935 245.68 138.435 245.488 138.851 245.14C139.278 244.793 139.593 244.291 139.797 243.637C140.012 242.982 140.089 242.181 140.028 241.233C139.968 240.286 139.789 239.501 139.493 238.879C139.207 238.256 138.831 237.799 138.363 237.508C137.906 237.217 137.385 237.09 136.8 237.127C136.214 237.165 135.708 237.357 135.281 237.705C134.855 238.053 134.534 238.555 134.319 239.21C134.115 239.864 134.044 240.665 134.104 241.612C134.165 242.56 134.338 243.345 134.624 243.968C134.92 244.59 135.302 245.047 135.77 245.338C136.237 245.628 136.764 245.755 137.349 245.718ZM148.09 246.457C147.217 246.513 146.42 246.34 145.7 245.937C144.99 245.533 144.406 244.919 143.947 244.093C143.498 243.267 143.235 242.247 143.158 241.033C143.08 239.82 143.211 238.775 143.55 237.898C143.9 237.02 144.402 236.336 145.054 235.846C145.718 235.354 146.486 235.081 147.359 235.025C148.221 234.97 149.012 235.143 149.733 235.546C150.453 235.949 151.038 236.564 151.486 237.39C151.935 238.217 152.197 239.236 152.275 240.45C152.353 241.664 152.222 242.709 151.882 243.585C151.543 244.462 151.042 245.146 150.378 245.638C149.715 246.129 148.952 246.402 148.09 246.457ZM147.999 245.036C148.585 244.999 149.085 244.807 149.501 244.459C149.928 244.111 150.243 243.61 150.447 242.956C150.662 242.301 150.739 241.5 150.678 240.552C150.618 239.605 150.439 238.82 150.143 238.198C149.857 237.574 149.481 237.118 149.013 236.827C148.556 236.535 148.035 236.408 147.45 236.446C146.864 236.483 146.358 236.676 145.931 237.024C145.505 237.372 145.184 237.873 144.97 238.528C144.766 239.183 144.694 239.984 144.754 240.931C144.815 241.878 144.988 242.664 145.274 243.287C145.57 243.909 145.952 244.366 146.42 244.656C146.887 244.947 147.414 245.074 147.999 245.036ZM163.028 245.502C162.155 245.558 161.359 245.384 160.638 244.981C159.928 244.578 159.344 243.963 158.885 243.138C158.437 242.311 158.174 241.291 158.096 240.078C158.018 238.864 158.149 237.819 158.489 236.942C158.839 236.065 159.34 235.381 159.993 234.89C160.656 234.399 161.424 234.125 162.297 234.069C163.159 234.014 163.951 234.188 164.671 234.591C165.392 234.994 165.976 235.608 166.424 236.435C166.873 237.261 167.136 238.281 167.213 239.494C167.291 240.708 167.16 241.753 166.821 242.63C166.481 243.507 165.98 244.191 165.317 244.682C164.653 245.173 163.891 245.447 163.028 245.502ZM162.937 244.081C163.523 244.043 164.024 243.851 164.44 243.504C164.866 243.156 165.182 242.655 165.386 242C165.6 241.345 165.677 240.544 165.617 239.597C165.556 238.649 165.378 237.864 165.081 237.242C164.796 236.619 164.419 236.162 163.951 235.871C163.495 235.58 162.973 235.453 162.388 235.49C161.802 235.528 161.296 235.72 160.87 236.068C160.443 236.416 160.122 236.918 159.908 237.573C159.704 238.227 159.632 239.028 159.693 239.976C159.753 240.923 159.926 241.708 160.212 242.331C160.508 242.954 160.89 243.41 161.358 243.701C161.825 243.992 162.352 244.118 162.937 244.081ZM173.678 244.821C172.806 244.876 172.009 244.703 171.288 244.3C170.578 243.897 169.994 243.282 169.535 242.456C169.087 241.63 168.824 240.61 168.746 239.396C168.668 238.183 168.799 237.138 169.139 236.261C169.489 235.383 169.99 234.699 170.643 234.209C171.306 233.717 172.074 233.444 172.947 233.388C173.809 233.333 174.601 233.507 175.321 233.909C176.042 234.312 176.626 234.927 177.075 235.753C177.523 236.58 177.786 237.6 177.863 238.813C177.941 240.027 177.81 241.072 177.471 241.949C177.131 242.825 176.63 243.51 175.967 244.001C175.303 244.492 174.541 244.765 173.678 244.821ZM173.587 243.4C174.173 243.362 174.674 243.17 175.09 242.822C175.516 242.475 175.832 241.973 176.036 241.319C176.25 240.664 176.327 239.863 176.267 238.915C176.206 237.968 176.028 237.183 175.731 236.561C175.446 235.938 175.069 235.481 174.602 235.19C174.145 234.899 173.623 234.772 173.038 234.809C172.453 234.847 171.946 235.039 171.52 235.387C171.093 235.735 170.773 236.237 170.558 236.892C170.354 237.546 170.282 238.347 170.343 239.294C170.403 240.242 170.577 241.027 170.862 241.65C171.159 242.272 171.541 242.729 172.008 243.02C172.476 243.31 173.002 243.437 173.587 243.4ZM184.329 244.139C183.456 244.195 182.659 244.022 181.938 243.619C181.229 243.215 180.644 242.601 180.185 241.775C179.737 240.949 179.474 239.929 179.396 238.715C179.319 237.502 179.449 236.456 179.789 235.58C180.139 234.702 180.64 234.018 181.293 233.528C181.956 233.036 182.724 232.763 183.597 232.707C184.459 232.652 185.251 232.825 185.971 233.228C186.692 233.631 187.276 234.246 187.725 235.072C188.173 235.898 188.436 236.918 188.514 238.132C188.591 239.345 188.46 240.391 188.121 241.267C187.782 242.144 187.28 242.828 186.617 243.32C185.954 243.811 185.191 244.084 184.329 244.139ZM184.238 242.718C184.823 242.681 185.324 242.488 185.74 242.141C186.166 241.793 186.482 241.292 186.686 240.638C186.9 239.983 186.977 239.182 186.917 238.234C186.856 237.287 186.678 236.502 186.381 235.879C186.096 235.256 185.719 234.8 185.252 234.509C184.795 234.217 184.274 234.09 183.688 234.128C183.103 234.165 182.597 234.358 182.17 234.706C181.743 235.054 181.423 235.555 181.208 236.21C181.004 236.865 180.932 237.666 180.993 238.613C181.054 239.56 181.227 240.346 181.512 240.969C181.809 241.591 182.191 242.048 182.658 242.338C183.126 242.629 183.652 242.756 184.238 242.718ZM194.979 243.458C194.106 243.514 193.309 243.34 192.589 242.938C191.879 242.534 191.294 241.92 190.835 241.094C190.387 240.267 190.124 239.247 190.046 238.034C189.969 236.82 190.1 235.775 190.439 234.898C190.789 234.021 191.29 233.337 191.943 232.846C192.606 232.355 193.374 232.081 194.247 232.025C195.11 231.97 195.901 232.144 196.621 232.547C197.342 232.95 197.926 233.564 198.375 234.391C198.823 235.217 199.086 236.237 199.164 237.451C199.241 238.664 199.11 239.709 198.771 240.586C198.432 241.463 197.93 242.147 197.267 242.638C196.604 243.13 195.841 243.403 194.979 243.458ZM194.888 242.037C195.473 242 195.974 241.807 196.39 241.46C196.817 241.112 197.132 240.611 197.336 239.957C197.551 239.301 197.628 238.5 197.567 237.553C197.506 236.605 197.328 235.821 197.032 235.198C196.746 234.575 196.369 234.118 195.902 233.828C195.445 233.536 194.924 233.409 194.338 233.447C193.753 233.484 193.247 233.677 192.82 234.025C192.393 234.373 192.073 234.874 191.858 235.529C191.654 236.184 191.582 236.984 191.643 237.932C191.704 238.879 191.877 239.664 192.162 240.287C192.459 240.91 192.841 241.366 193.308 241.657C193.776 241.948 194.302 242.074 194.888 242.037Z" fill="white"/>
<path d="M23.5673 275.062C22.8035 275.111 22.1064 274.959 21.476 274.607C20.8548 274.254 20.3435 273.716 19.9419 272.993C19.5496 272.27 19.3195 271.378 19.2515 270.316C19.1836 269.254 19.2981 268.34 19.5951 267.573C19.9014 266.805 20.3401 266.206 20.9112 265.777C21.4916 265.347 22.1637 265.108 22.9274 265.059C23.6819 265.01 24.3743 265.163 25.0048 265.515C25.6352 265.867 26.1466 266.405 26.5389 267.128C26.9312 267.851 27.1613 268.744 27.2292 269.806C27.2972 270.868 27.1826 271.782 26.8857 272.549C26.5887 273.316 26.15 273.915 25.5696 274.345C24.9892 274.775 24.3218 275.014 23.5673 275.062ZM23.4878 273.819C24.0001 273.786 24.4382 273.618 24.8022 273.314C25.1755 273.009 25.4515 272.571 25.6299 271.998C25.8177 271.425 25.8851 270.724 25.8321 269.895C25.7791 269.066 25.6229 268.379 25.3636 267.835C25.1136 267.29 24.7841 266.89 24.375 266.636C23.9753 266.38 23.5192 266.269 23.007 266.302C22.4947 266.335 22.0519 266.504 21.6785 266.808C21.3052 267.112 21.0247 267.551 20.8369 268.124C20.6584 268.697 20.5957 269.398 20.6487 270.227C20.7017 271.056 20.8532 271.743 21.1032 272.288C21.3625 272.832 21.6967 273.232 22.1057 273.486C22.5148 273.741 22.9755 273.852 23.4878 273.819ZM32.8862 274.466C32.1224 274.515 31.4253 274.363 30.7948 274.011C30.1737 273.658 29.6623 273.12 29.2607 272.397C28.8684 271.674 28.6383 270.782 28.5704 269.72C28.5025 268.658 28.617 267.744 28.9139 266.976C29.2202 266.209 29.6589 265.61 30.23 265.181C30.8104 264.751 31.4825 264.511 32.2463 264.463C33.0007 264.414 33.6932 264.566 34.3236 264.919C34.9541 265.271 35.4655 265.809 35.8578 266.532C36.25 267.255 36.4802 268.148 36.5481 269.21C36.616 270.272 36.5015 271.186 36.2045 271.953C35.9075 272.72 35.4689 273.319 34.8885 273.749C34.308 274.179 33.6406 274.418 32.8862 274.466ZM32.8066 273.223C33.3189 273.19 33.7571 273.022 34.1211 272.718C34.4944 272.413 34.7703 271.975 34.9488 271.402C35.1366 270.829 35.204 270.128 35.1509 269.299C35.0979 268.47 34.9417 267.783 34.6825 267.239C34.4325 266.694 34.103 266.294 33.6939 266.039C33.2941 265.784 32.8381 265.673 32.3258 265.706C31.8135 265.739 31.3707 265.907 30.9974 266.212C30.6241 266.516 30.3435 266.955 30.1557 267.528C29.9772 268.101 29.9145 268.802 29.9675 269.631C30.0205 270.46 30.1721 271.147 30.422 271.692C30.6813 272.236 31.0155 272.636 31.4246 272.89C31.8337 273.145 32.2943 273.255 32.8066 273.223ZM36.9567 275.496L40.7254 262.04L41.9409 261.963L38.1722 275.419L36.9567 275.496ZM46.5711 273.591C45.8073 273.64 45.1102 273.488 44.4797 273.135C43.8586 272.782 43.3472 272.245 42.9456 271.522C42.5533 270.799 42.3232 269.906 42.2553 268.845C42.1874 267.783 42.3019 266.868 42.5989 266.101C42.9051 265.333 43.3438 264.735 43.9149 264.305C44.4953 263.875 45.1674 263.636 45.9312 263.587C46.6856 263.539 47.3781 263.691 48.0086 264.044C48.639 264.396 49.1504 264.934 49.5427 265.657C49.935 266.38 50.1651 267.272 50.233 268.334C50.3009 269.396 50.1864 270.311 49.8894 271.078C49.5925 271.845 49.1538 272.444 48.5734 272.874C47.993 273.303 47.3255 273.543 46.5711 273.591ZM46.4915 272.347C47.0038 272.315 47.442 272.146 47.806 271.842C48.1793 271.538 48.4552 271.099 48.6337 270.527C48.8215 269.954 48.8889 269.253 48.8359 268.424C48.7828 267.595 48.6267 266.908 48.3674 266.363C48.1174 265.818 47.7879 265.418 47.3788 265.164C46.979 264.909 46.523 264.798 46.0107 264.831C45.4984 264.863 45.0556 265.032 44.6823 265.337C44.309 265.641 44.0284 266.08 43.8406 266.653C43.6621 267.225 43.5994 267.926 43.6524 268.755C43.7055 269.584 43.857 270.271 44.107 270.816C44.3662 271.361 44.7004 271.76 45.1095 272.015C45.5186 272.269 45.9793 272.38 46.4915 272.347ZM55.8899 272.995C55.1262 273.044 54.429 272.892 53.7986 272.539C53.1774 272.186 52.6661 271.648 52.2645 270.926C51.8722 270.203 51.6421 269.31 51.5741 268.249C51.5062 267.187 51.6207 266.272 51.9177 265.505C52.224 264.737 52.6627 264.139 53.2338 263.709C53.8142 263.279 54.4863 263.04 55.25 262.991C56.0045 262.943 56.697 263.095 57.3274 263.447C57.9579 263.8 58.4692 264.338 58.8615 265.061C59.2538 265.784 59.4839 266.676 59.5518 267.738C59.6198 268.8 59.5052 269.715 59.2083 270.482C58.9113 271.249 58.4726 271.847 57.8922 272.277C57.3118 272.707 56.6444 272.946 55.8899 272.995ZM55.8104 271.751C56.3227 271.718 56.7608 271.55 57.1248 271.246C57.4982 270.942 57.7741 270.503 57.9525 269.931C58.1403 269.358 58.2077 268.657 58.1547 267.828C58.1017 266.999 57.9455 266.312 57.6862 265.767C57.4362 265.222 57.1067 264.822 56.6976 264.568C56.2979 264.313 55.8419 264.202 55.3296 264.235C54.8173 264.267 54.3745 264.436 54.0012 264.74C53.6278 265.045 53.3473 265.484 53.1595 266.057C52.981 266.629 52.9183 267.33 52.9713 268.159C53.0243 268.988 53.1758 269.675 53.4258 270.22C53.6851 270.765 54.0193 271.164 54.4283 271.419C54.8374 271.673 55.2981 271.784 55.8104 271.751Z" fill="white"/>
<ellipse cx="278.089" cy="137.23" rx="32.43" ry="43.569" transform="rotate(48.1263 278.089 137.23)" fill="#363636"/>
<ellipse cx="225.2" cy="322.193" rx="34.2754" ry="46.0483" transform="rotate(142.237 225.2 322.193)" fill="#363636"/>
<ellipse cx="106.079" cy="165.879" rx="31.2755" ry="43.569" transform="rotate(94.8951 106.079 165.879)" fill="#464646"/>
<ellipse cx="278.355" cy="129.456" rx="33.5615" ry="46.7536" transform="rotate(36.6497 278.355 129.456)" fill="#C28245"/>
<ellipse cx="271.835" cy="125.544" rx="33.5615" ry="46.7536" transform="rotate(36.6497 271.835 125.544)" fill="#E6BB75"/>
<path fill-rule="evenodd" clip-rule="evenodd" d="M290.78 88.4546C275.248 89.502 257.864 102.479 249.809 119.924C240.944 139.122 246.651 156.642 262.498 159.75C260.5 159.884 258.533 159.822 256.62 159.546C239.837 157.124 233.601 139.199 242.693 119.51C251.784 99.8209 272.76 85.8227 289.543 88.2444C289.962 88.3048 290.374 88.375 290.78 88.4546Z" fill="#C28245"/>
<ellipse cx="106.688" cy="162.757" rx="31.2755" ry="43.569" transform="rotate(94.8951 106.688 162.757)" fill="#C28245"/>
<ellipse cx="106.59" cy="155.672" rx="31.2755" ry="43.569" transform="rotate(94.8951 106.59 155.672)" fill="#E6BB75"/>
<path fill-rule="evenodd" clip-rule="evenodd" d="M145.271 152.494C136.824 140.701 118.015 133.29 100.241 135.463C80.6813 137.854 69.5974 150.968 74.9071 165.05C73.8203 163.532 72.9051 161.943 72.1856 160.291C65.8735 145.805 77.0186 132.073 97.079 129.621C117.139 127.169 138.519 136.924 144.831 151.411C144.988 151.773 145.135 152.134 145.271 152.494Z" fill="#C28245"/>
<ellipse cx="225.404" cy="316.923" rx="32.7929" ry="45.6829" transform="rotate(153.602 225.404 316.923)" fill="#C28245"/>
<ellipse cx="231.698" cy="312.976" rx="32.7929" ry="45.6829" transform="rotate(153.602 231.698 312.976)" fill="#E6BB75"/>
<path fill-rule="evenodd" clip-rule="evenodd" d="M255.612 345.903C261.578 331.912 257.974 311.023 246.348 296.281C233.553 280.059 215.766 277.27 206.041 289.696C206.809 287.896 207.735 286.21 208.822 284.666C218.364 271.121 236.737 273.629 249.86 290.267C262.982 306.905 265.885 331.373 256.343 344.919C256.104 345.257 255.861 345.585 255.612 345.903Z" fill="#C28245"/>
<defs>
<linearGradient id="paint0_linear_118_975" x1="182" y1="18.5" x2="210.5" y2="397" gradientUnits="userSpaceOnUse">
<stop stop-color="#0090C4"/>
<stop offset="1" stop-color="#01C8BC"/>
</linearGradient>
</defs>
</svg>
