<svg width="440" height="300" viewBox="0 0 440 300" fill="none" xmlns="http://www.w3.org/2000/svg">
<g clip-path="url(#clip0_115_110)">
<path d="M304.79 235C307.29 235.32 310.18 234.46 311.43 232.8C312.9 230.85 312.25 227.8 312.96 226.17C313.67 224.54 315.96 224.8 317.03 223.42C318.1 222.04 316.44 218.74 317.03 216.99C317.62 215.24 319.32 213.57 320.09 212.37C320.86 211.17 320.09 209.37 317.46 210.28C314.83 211.19 313.46 214.34 310.91 213.81C308.36 213.28 306.18 214.81 306.14 217.34C306.212 218.329 306.019 219.32 305.58 220.21C305.1 220.99 303.82 221.43 303.24 222.64L304.79 235Z" fill="#0077C8"/>
<path opacity="0.2" d="M304.79 235C307.29 235.32 310.18 234.46 311.43 232.8C312.9 230.85 312.25 227.8 312.96 226.17C313.67 224.54 315.96 224.8 317.03 223.42C318.1 222.04 316.44 218.74 317.03 216.99C317.62 215.24 319.32 213.57 320.09 212.37C320.86 211.17 320.09 209.37 317.46 210.28C314.83 211.19 313.46 214.34 310.91 213.81C308.36 213.28 306.18 214.81 306.14 217.34C306.212 218.329 306.019 219.32 305.58 220.21C305.1 220.99 303.82 221.43 303.24 222.64L304.79 235Z" fill="black"/>
<path d="M318.92 211C315.25 213 305.29 224.44 304.47 230.52" stroke="#01C8BC" stroke-width="0.5" stroke-miterlimit="10" stroke-linecap="round"/>
<path d="M77.83 204.46L122.51 178.66V68.4301L77.83 94.2301V204.46Z" fill="#37474F"/>
<path d="M77.83 94.23L29.08 66.09V176.31L77.83 204.46V94.23Z" fill="#455A64"/>
<path d="M122.51 68.43L73.77 40.29L29.08 66.09L77.83 94.23L122.51 68.43Z" fill="#37474F"/>
<path d="M47.33 186.87V168.1L59.96 175.36V194.12L47.33 186.87Z" fill="#01C8BC"/>
<path d="M52.84 171.27L54.07 171.98V190.74L52.84 190.03V171.27Z" fill="#263238"/>
<path d="M72.72 173.35V162.89L64.36 158.06V168.52L72.72 173.35Z" fill="#01C8BC"/>
<path d="M64.36 168.52L66.45 167.32V159.27L64.36 158.06V168.52Z" fill="#263238"/>
<path d="M72.72 170.94L66.45 167.32L64.36 168.52L72.72 173.35V170.94Z" fill="#37474F"/>
<path d="M72.72 193.39V182.93L64.36 178.11V188.57L72.72 193.39Z" fill="#01C8BC"/>
<path d="M64.36 188.57L66.45 187.36V179.31L64.36 178.11V188.57Z" fill="#263238"/>
<path d="M72.72 190.98L66.45 187.36L64.36 188.57L72.72 193.39V190.98Z" fill="#37474F"/>
<path d="M72.72 153.73V143.27L64.36 138.45V148.91L72.72 153.73Z" fill="#01C8BC"/>
<path d="M64.36 148.91L66.45 147.7V139.65L64.36 138.45V148.91Z" fill="#263238"/>
<path d="M72.72 151.32L66.45 147.7L64.36 148.91L72.72 153.73V151.32Z" fill="#37474F"/>
<path d="M72.72 134.11V123.65L64.36 118.83V129.29L72.72 134.11Z" fill="#01C8BC"/>
<path d="M64.36 129.29L66.45 128.08V120.03L64.36 118.83V129.29Z" fill="#263238"/>
<path d="M72.72 131.7L66.45 128.08L64.36 129.29L72.72 134.11V131.7Z" fill="#37474F"/>
<path d="M72.72 114.5V104.03L64.36 99.2101V109.67L72.72 114.5Z" fill="#01C8BC"/>
<path d="M64.36 109.67L66.45 108.46V100.42L64.36 99.2101V109.67Z" fill="#263238"/>
<path d="M72.72 112.08L66.45 108.46L64.36 109.67L72.72 114.5V112.08Z" fill="#37474F"/>
<path d="M42.56 155.94V145.48L34.2 140.65V151.11L42.56 155.94Z" fill="#01C8BC"/>
<path d="M34.2 151.11L36.29 149.91V141.86L34.2 140.65V151.11Z" fill="#263238"/>
<path d="M42.56 153.53L36.29 149.91L34.2 151.11L42.56 155.94V153.53Z" fill="#37474F"/>
<path d="M42.56 175.98V165.52L34.2 160.7V171.15L42.56 175.98Z" fill="#01C8BC"/>
<path d="M34.2 171.15L36.29 169.95V161.9L34.2 160.7V171.15Z" fill="#263238"/>
<path d="M42.56 173.57L36.29 169.95L34.2 171.15L42.56 175.98V173.57Z" fill="#37474F"/>
<path d="M42.56 136.15V125.69L34.2 120.87V131.33L42.56 136.15Z" fill="#01C8BC"/>
<path d="M34.2 131.33L36.29 130.12V122.07L34.2 120.87V131.33Z" fill="#263238"/>
<path d="M42.56 133.74L36.29 130.12L34.2 131.33L42.56 136.15V133.74Z" fill="#37474F"/>
<path d="M42.56 116.37V105.91L34.2 101.08V111.54L42.56 116.37Z" fill="#01C8BC"/>
<path d="M34.2 111.54L36.29 110.34V102.29L34.2 101.08V111.54Z" fill="#263238"/>
<path d="M42.56 113.96L36.29 110.34L34.2 111.54L42.56 116.37V113.96Z" fill="#37474F"/>
<path d="M42.56 96.58V86.12L34.2 81.3V91.76L42.56 96.58Z" fill="#01C8BC"/>
<path d="M34.2 91.76L36.29 90.55V82.5L34.2 81.3V91.76Z" fill="#263238"/>
<path d="M42.56 94.17L36.29 90.55L34.2 91.76L42.56 96.58V94.17Z" fill="#37474F"/>
<path d="M47.33 88.35L52.2 91.16V161.51L47.33 158.71V88.35Z" fill="#01C8BC"/>
<path d="M47.33 88.35L49.39 89.54V157.55L47.33 158.71V88.35Z" fill="#263238"/>
<path d="M49.39 157.55L52.2 159.11V161.51L47.33 158.71L49.39 157.55Z" fill="#37474F"/>
<path d="M55.08 92.78L59.96 95.58V165.94L55.08 163.13V92.78Z" fill="#01C8BC"/>
<path d="M55.08 92.78L57.14 93.97V161.97L55.08 163.13V92.78Z" fill="#263238"/>
<path d="M57.14 161.97L59.96 163.53V165.94L55.08 163.13L57.14 161.97Z" fill="#37474F"/>
<path d="M82.9999 173.35V162.89L91.3499 158.06V168.52L82.9999 173.35Z" fill="#01C8BC"/>
<path d="M91.3499 168.52L89.2599 167.32L89.2699 159.27L91.3499 158.06V168.52Z" fill="#455A64"/>
<path d="M82.9999 170.94L89.2599 167.32L91.3499 168.52L82.9999 173.35V170.94Z" fill="#263238"/>
<path d="M95.9899 165.88V155.42L104.35 150.6V161.06L95.9899 165.88Z" fill="#01C8BC"/>
<path d="M104.35 161.06L102.26 159.85V151.8L104.35 150.6V161.06Z" fill="#455A64"/>
<path d="M95.9899 163.47L102.26 159.85L104.35 161.06L95.9899 165.88V163.47Z" fill="#263238"/>
<path d="M108.98 158.42V147.96L117.34 143.13V153.59L108.98 158.42Z" fill="#01C8BC"/>
<path d="M117.34 153.59L115.25 152.39V144.34L117.34 143.13V153.59Z" fill="#455A64"/>
<path d="M108.98 156L115.25 152.39L117.34 153.59L108.98 158.42V156Z" fill="#263238"/>
<path d="M82.9999 193.39V182.93L91.3499 178.11V188.57L82.9999 193.39Z" fill="#01C8BC"/>
<path d="M91.3499 188.57L89.2599 187.36L89.2699 179.31L91.3499 178.11V188.57Z" fill="#455A64"/>
<path d="M82.9999 190.98L89.2599 187.36L91.3499 188.57L82.9999 193.39V190.98Z" fill="#263238"/>
<path d="M95.9899 185.93V175.46L104.35 170.64V181.1L95.9899 185.93Z" fill="#01C8BC"/>
<path d="M104.35 181.1L102.26 179.89V171.85L104.35 170.64V181.1Z" fill="#455A64"/>
<path d="M95.9899 183.51L102.26 179.89L104.35 181.1L95.9899 185.93V183.51Z" fill="#263238"/>
<path d="M108.98 178.46V168L117.34 163.17V173.63L108.98 178.46Z" fill="#01C8BC"/>
<path d="M117.34 173.63L115.25 172.43V164.38L117.34 163.17V173.63Z" fill="#455A64"/>
<path d="M108.98 176.05L115.25 172.43L117.34 173.63L108.98 178.46V176.05Z" fill="#263238"/>
<path d="M82.9999 153.73V143.27L91.3499 138.45V148.91L82.9999 153.73Z" fill="#01C8BC"/>
<path d="M91.3499 148.91L89.2599 147.7L89.2699 139.65L91.3499 138.45V148.91Z" fill="#455A64"/>
<path d="M82.9999 151.32L89.2599 147.7L91.3499 148.91L82.9999 153.73V151.32Z" fill="#263238"/>
<path d="M95.9899 146.18V135.72L104.35 130.9V141.36L95.9899 146.18Z" fill="#01C8BC"/>
<path d="M104.35 141.36L102.26 140.15V132.1L104.35 130.9V141.36Z" fill="#455A64"/>
<path d="M95.9899 143.77L102.26 140.15L104.35 141.36L95.9899 146.18V143.77Z" fill="#263238"/>
<path d="M108.98 138.63V128.17L117.34 123.35V133.81L108.98 138.63Z" fill="#01C8BC"/>
<path d="M117.34 133.81L115.25 132.6V124.55L117.34 123.35V133.81Z" fill="#455A64"/>
<path d="M108.98 136.22L115.25 132.6L117.34 133.81L108.98 138.63V136.22Z" fill="#263238"/>
<path d="M82.9999 134.11V123.65L91.3499 118.83V129.29L82.9999 134.11Z" fill="#01C8BC"/>
<path d="M91.3499 129.29L89.2599 128.08L89.2699 120.03L91.3499 118.83V129.29Z" fill="#455A64"/>
<path d="M82.9999 131.7L89.2599 128.08L91.3499 129.29L82.9999 134.11V131.7Z" fill="#263238"/>
<path d="M95.9899 126.48V116.02L104.35 111.19V121.66L95.9899 126.48Z" fill="#01C8BC"/>
<path d="M104.35 121.66L102.26 120.45V112.4L104.35 111.19V121.66Z" fill="#455A64"/>
<path d="M95.9899 124.07L102.26 120.45L104.35 121.66L95.9899 126.48V124.07Z" fill="#263238"/>
<path d="M108.98 118.85V108.39L117.34 103.56V114.02L108.98 118.85Z" fill="#01C8BC"/>
<path d="M117.34 114.02L115.25 112.82V104.77L117.34 103.56V114.02Z" fill="#455A64"/>
<path d="M108.98 116.44L115.25 112.82L117.34 114.02L108.98 118.85V116.44Z" fill="#263238"/>
<path d="M82.9999 114.5V104.03L91.3499 99.2101V109.67L82.9999 114.5Z" fill="#01C8BC"/>
<path d="M91.3499 109.67L89.2599 108.46L89.2699 100.42L91.3499 99.2101V109.67Z" fill="#455A64"/>
<path d="M82.9999 112.08L89.2599 108.46L91.3499 109.67L82.9999 114.5V112.08Z" fill="#263238"/>
<path d="M95.9899 106.78V96.3201L104.35 91.4901V101.95L95.9899 106.78Z" fill="#01C8BC"/>
<path d="M104.35 101.95L102.26 100.75V92.7L104.35 91.4901V101.95Z" fill="#455A64"/>
<path d="M95.9899 104.37L102.26 100.75L104.35 101.95L95.9899 106.78V104.37Z" fill="#263238"/>
<path d="M108.98 99.06V88.6L117.34 83.78V94.24L108.98 99.06Z" fill="#01C8BC"/>
<path d="M117.34 94.24L115.25 93.03V84.98L117.34 83.78V94.24Z" fill="#455A64"/>
<path d="M108.98 96.65L115.25 93.03L117.34 94.24L108.98 99.06V96.65Z" fill="#263238"/>
<path d="M37.21 66.09L73.77 44.98L114.38 68.43L77.83 89.54L37.21 66.09Z" fill="#01C8BC"/>
<path d="M73.77 44.98V49.67L110.32 70.78L114.38 68.43L73.77 44.98Z" fill="#455A64"/>
<path d="M73.77 44.98L37.21 66.09L41.27 68.43L73.77 49.67V44.98Z" fill="#263238"/>
<path d="M359.76 204.46L315.08 178.66V68.4301L359.77 94.2301L359.76 204.46Z" fill="#455A64"/>
<path d="M359.77 94.23L408.51 66.09V176.31L359.76 204.46L359.77 94.23Z" fill="#37474F"/>
<path d="M315.08 68.43L363.83 40.29L408.51 66.09L359.77 94.23L315.08 68.43Z" fill="#37474F"/>
<path d="M390.27 186.87V168.1L377.63 175.36L377.64 194.12L390.27 186.87Z" fill="#01C8BC"/>
<path d="M384.75 171.27L383.53 171.98V190.74L384.75 190.03V171.27Z" fill="#263238"/>
<path d="M364.87 173.35V162.89L373.23 158.06V168.52L364.87 173.35Z" fill="#01C8BC"/>
<path d="M373.23 168.52L371.14 167.32V159.27L373.23 158.06V168.52Z" fill="#263238"/>
<path d="M364.87 170.94L371.14 167.32L373.23 168.52L364.87 173.35V170.94Z" fill="#455A64"/>
<path d="M364.87 193.39V182.93L373.23 178.11V188.57L364.87 193.39Z" fill="#01C8BC"/>
<path d="M373.23 188.57L371.14 187.36V179.31L373.23 178.11V188.57Z" fill="#263238"/>
<path d="M364.87 190.98L371.14 187.36L373.23 188.57L364.87 193.39V190.98Z" fill="#455A64"/>
<path d="M364.87 153.73V143.27L373.23 138.45V148.91L364.87 153.73Z" fill="#01C8BC"/>
<path d="M373.23 148.91L371.14 147.7V139.65L373.23 138.45V148.91Z" fill="#263238"/>
<path d="M364.87 151.32L371.14 147.7L373.23 148.91L364.87 153.73V151.32Z" fill="#455A64"/>
<path d="M364.87 134.11V123.65L373.23 118.83V129.29L364.87 134.11Z" fill="#01C8BC"/>
<path d="M373.23 129.29L371.14 128.08V120.03L373.23 118.83V129.29Z" fill="#263238"/>
<path d="M364.87 131.7L371.14 128.08L373.23 129.29L364.87 134.11V131.7Z" fill="#455A64"/>
<path d="M364.87 114.5V104.03L373.23 99.2101V109.67L364.87 114.5Z" fill="#01C8BC"/>
<path d="M373.23 109.67L371.14 108.46V100.42L373.23 99.2101V109.67Z" fill="#263238"/>
<path d="M364.87 112.08L371.14 108.46L373.23 109.67L364.87 114.5V112.08Z" fill="#455A64"/>
<path d="M395.04 155.94V145.48L403.39 140.65V151.11L395.04 155.94Z" fill="#01C8BC"/>
<path d="M403.39 151.11L401.31 149.91V141.86L403.39 140.65V151.11Z" fill="#263238"/>
<path d="M395.04 153.53L401.31 149.91L403.39 151.11L395.04 155.94V153.53Z" fill="#455A64"/>
<path d="M395.04 175.98V165.52L403.39 160.7V171.15L395.04 175.98Z" fill="#01C8BC"/>
<path d="M403.39 171.15L401.31 169.95V161.9L403.39 160.7V171.15Z" fill="#263238"/>
<path d="M395.04 173.57L401.31 169.95L403.39 171.15L395.04 175.98V173.57Z" fill="#455A64"/>
<path d="M395.04 136.15V125.69L403.39 120.87V131.33L395.04 136.15Z" fill="#01C8BC"/>
<path d="M403.39 131.33L401.31 130.12V122.07L403.39 120.87V131.33Z" fill="#263238"/>
<path d="M395.04 133.74L401.31 130.12L403.39 131.33L395.04 136.15V133.74Z" fill="#455A64"/>
<path d="M395.04 116.37V105.91L403.39 101.08V111.54L395.04 116.37Z" fill="#01C8BC"/>
<path d="M403.39 111.54L401.31 110.34V102.29L403.39 101.08V111.54Z" fill="#263238"/>
<path d="M395.04 113.96L401.31 110.34L403.39 111.54L395.04 116.37V113.96Z" fill="#455A64"/>
<path d="M395.04 96.58V86.12L403.39 81.3V91.76L395.04 96.58Z" fill="#01C8BC"/>
<path d="M403.39 91.76L401.31 90.55V82.5L403.39 81.3V91.76Z" fill="#263238"/>
<path d="M395.04 94.17L401.31 90.55L403.39 91.76L395.04 96.58V94.17Z" fill="#455A64"/>
<path d="M390.27 88.35L385.39 91.16V161.51L390.27 158.71V88.35Z" fill="#01C8BC"/>
<path d="M390.27 88.35L388.2 89.54V157.55L390.27 158.71V88.35Z" fill="#263238"/>
<path d="M388.2 157.55L385.39 159.11V161.51L390.27 158.71L388.2 157.55Z" fill="#455A64"/>
<path d="M382.51 92.78L377.64 95.58V165.94L382.51 163.13V92.78Z" fill="#01C8BC"/>
<path d="M382.51 92.78L380.45 93.97V161.97L382.51 163.13V92.78Z" fill="#263238"/>
<path d="M380.45 161.97L377.64 163.53V165.94L382.51 163.13L380.45 161.97Z" fill="#455A64"/>
<path d="M354.6 173.35V162.89L346.24 158.06V168.52L354.6 173.35Z" fill="#01C8BC"/>
<path d="M346.24 168.52L348.33 167.32V159.27L346.24 158.06V168.52Z" fill="#37474F"/>
<path d="M354.6 170.94L348.33 167.32L346.24 168.52L354.6 173.35V170.94Z" fill="#263238"/>
<path d="M341.6 165.88V155.42L333.25 150.6V161.06L341.6 165.88Z" fill="#01C8BC"/>
<path d="M333.25 161.06L335.33 159.85V151.8L333.25 150.6V161.06Z" fill="#37474F"/>
<path d="M341.6 163.47L335.33 159.85L333.25 161.06L341.6 165.88V163.47Z" fill="#263238"/>
<path d="M328.61 158.42V147.96L320.25 143.13V153.59L328.61 158.42Z" fill="#01C8BC"/>
<path d="M320.25 153.59L322.34 152.39V144.34L320.25 143.13V153.59Z" fill="#37474F"/>
<path d="M328.61 156L322.34 152.39L320.25 153.59L328.61 158.42V156Z" fill="#263238"/>
<path d="M354.6 193.39V182.93L346.24 178.11V188.57L354.6 193.39Z" fill="#01C8BC"/>
<path d="M346.24 188.57L348.33 187.36V179.31L346.24 178.11V188.57Z" fill="#37474F"/>
<path d="M354.6 190.98L348.33 187.36L346.24 188.57L354.6 193.39V190.98Z" fill="#263238"/>
<path d="M341.6 185.93V175.46L333.25 170.64V181.1L341.6 185.93Z" fill="#01C8BC"/>
<path d="M333.25 181.1L335.33 179.89V171.85L333.25 170.64V181.1Z" fill="#37474F"/>
<path d="M341.6 183.51L335.33 179.89L333.25 181.1L341.6 185.93V183.51Z" fill="#263238"/>
<path d="M328.61 178.46V168L320.25 163.17V173.63L328.61 178.46Z" fill="#01C8BC"/>
<path d="M320.25 173.63L322.34 172.43V164.38L320.25 163.17V173.63Z" fill="#37474F"/>
<path d="M328.61 176.05L322.34 172.43L320.25 173.63L328.61 178.46V176.05Z" fill="#263238"/>
<path d="M354.6 153.73V143.27L346.24 138.45V148.91L354.6 153.73Z" fill="#01C8BC"/>
<path d="M346.24 148.91L348.33 147.7V139.65L346.24 138.45V148.91Z" fill="#37474F"/>
<path d="M354.6 151.32L348.33 147.7L346.24 148.91L354.6 153.73V151.32Z" fill="#263238"/>
<path d="M341.6 146.18V135.72L333.25 130.9V141.36L341.6 146.18Z" fill="#01C8BC"/>
<path d="M333.25 141.36L335.33 140.15V132.1L333.25 130.9V141.36Z" fill="#37474F"/>
<path d="M341.6 143.77L335.33 140.15L333.25 141.36L341.6 146.18V143.77Z" fill="#263238"/>
<path d="M328.61 138.63V128.17L320.25 123.35V133.81L328.61 138.63Z" fill="#01C8BC"/>
<path d="M320.25 133.81L322.34 132.6V124.55L320.25 123.35V133.81Z" fill="#37474F"/>
<path d="M328.61 136.22L322.34 132.6L320.25 133.81L328.61 138.63V136.22Z" fill="#263238"/>
<path d="M354.6 134.11V123.65L346.24 118.83V129.29L354.6 134.11Z" fill="#01C8BC"/>
<path d="M346.24 129.29L348.33 128.08V120.03L346.24 118.83V129.29Z" fill="#37474F"/>
<path d="M354.6 131.7L348.33 128.08L346.24 129.29L354.6 134.11V131.7Z" fill="#263238"/>
<path d="M341.6 126.48V116.02L333.25 111.19V121.66L341.6 126.48Z" fill="#01C8BC"/>
<path d="M333.25 121.66L335.33 120.45V112.4L333.25 111.19V121.66Z" fill="#37474F"/>
<path d="M341.6 124.07L335.33 120.45L333.25 121.66L341.6 126.48V124.07Z" fill="#263238"/>
<path d="M328.61 118.85V108.39L320.25 103.56V114.02L328.61 118.85Z" fill="#01C8BC"/>
<path d="M320.25 114.02L322.34 112.82V104.77L320.25 103.56V114.02Z" fill="#37474F"/>
<path d="M328.61 116.44L322.34 112.82L320.25 114.02L328.61 118.85V116.44Z" fill="#263238"/>
<path d="M354.6 114.5V104.03L346.24 99.2101V109.67L354.6 114.5Z" fill="#01C8BC"/>
<path d="M346.24 109.67L348.33 108.46V100.42L346.24 99.2101V109.67Z" fill="#37474F"/>
<path d="M354.6 112.08L348.33 108.46L346.24 109.67L354.6 114.5V112.08Z" fill="#263238"/>
<path d="M341.6 106.78V96.3201L333.25 91.4901V101.95L341.6 106.78Z" fill="#01C8BC"/>
<path d="M333.25 101.95L335.33 100.75V92.7L333.25 91.4901V101.95Z" fill="#37474F"/>
<path d="M341.6 104.37L335.33 100.75L333.25 101.95L341.6 106.78V104.37Z" fill="#263238"/>
<path d="M328.61 99.06V88.6L320.25 83.78V94.24L328.61 99.06Z" fill="#01C8BC"/>
<path d="M320.25 94.24L322.34 93.03V84.98L320.25 83.78V94.24Z" fill="#37474F"/>
<path d="M328.61 96.65L322.34 93.03L320.25 94.24L328.61 99.06V96.65Z" fill="#263238"/>
<path d="M400.39 66.09L363.83 44.98L323.21 68.43L359.77 89.54L400.39 66.09Z" fill="#01C8BC"/>
<path d="M363.83 44.98V49.67L327.27 70.78L323.21 68.43L363.83 44.98Z" fill="#263238"/>
<path d="M363.83 44.98L400.39 66.09L396.32 68.43L363.83 49.67V44.98Z" fill="#455A64"/>
<path d="M222.17 299.36L319.39 243.23C320.043 242.884 320.589 242.366 320.97 241.733C321.351 241.099 321.552 240.374 321.552 239.635C321.552 238.896 321.351 238.171 320.97 237.538C320.589 236.904 320.043 236.387 319.39 236.04L222.16 179.91C221.489 179.57 220.747 179.393 219.995 179.393C219.243 179.393 218.501 179.57 217.83 179.91L120.61 236C119.957 236.347 119.411 236.864 119.03 237.498C118.649 238.131 118.448 238.856 118.448 239.595C118.448 240.334 118.649 241.059 119.03 241.693C119.411 242.326 119.957 242.844 120.61 243.19L217.84 299.32C218.508 299.666 219.248 299.85 220 299.857C220.752 299.864 221.496 299.694 222.17 299.36Z" fill="#0077C8"/>
<path d="M222.17 299.36L319.39 243.23C320.043 242.884 320.589 242.366 320.97 241.733C321.351 241.099 321.552 240.374 321.552 239.635C321.552 238.896 321.351 238.171 320.97 237.538C320.589 236.904 320.043 236.387 319.39 236.04L222.16 179.91C221.489 179.57 220.747 179.393 219.995 179.393C219.243 179.393 218.501 179.57 217.83 179.91L120.61 236C119.957 236.347 119.411 236.864 119.03 237.498C118.649 238.131 118.448 238.856 118.448 239.595C118.448 240.334 118.649 241.059 119.03 241.693C119.411 242.326 119.957 242.844 120.61 243.19L217.84 299.32C218.508 299.666 219.248 299.85 220 299.857C220.752 299.864 221.496 299.694 222.17 299.36Z" fill="#0077C8"/>
<path d="M222.17 299.36L319.39 243.23C320.043 242.884 320.589 242.366 320.97 241.733C321.351 241.099 321.552 240.374 321.552 239.635C321.552 238.896 321.351 238.171 320.97 237.538C320.589 236.904 320.043 236.387 319.39 236.04L222.16 179.91C221.489 179.57 220.747 179.393 219.995 179.393C219.243 179.393 218.501 179.57 217.83 179.91L120.61 236C119.957 236.347 119.411 236.864 119.03 237.498C118.649 238.131 118.448 238.856 118.448 239.595C118.448 240.334 118.649 241.059 119.03 241.693C119.411 242.326 119.957 242.844 120.61 243.19L217.84 299.32C218.508 299.666 219.248 299.85 220 299.857C220.752 299.864 221.496 299.694 222.17 299.36Z" fill="#0077C8"/>
<path opacity="0.2" d="M222.17 299.36L319.39 243.23C320.043 242.884 320.589 242.366 320.97 241.733C321.351 241.099 321.552 240.374 321.552 239.635C321.552 238.896 321.351 238.171 320.97 237.538C320.589 236.904 320.043 236.387 319.39 236.04L222.16 179.91C221.489 179.57 220.747 179.393 219.995 179.393C219.243 179.393 218.501 179.57 217.83 179.91L120.61 236C119.957 236.347 119.411 236.864 119.03 237.498C118.649 238.131 118.448 238.856 118.448 239.595C118.448 240.334 118.649 241.059 119.03 241.693C119.411 242.326 119.957 242.844 120.61 243.19L217.84 299.32C218.508 299.666 219.248 299.85 220 299.857C220.752 299.864 221.496 299.694 222.17 299.36Z" fill="black"/>
<path d="M120.61 238.54L217.84 294.67C218.511 295.01 219.253 295.187 220.005 295.187C220.757 295.187 221.499 295.01 222.17 294.67L319.39 238.54C319.651 238.451 319.878 238.283 320.039 238.059C320.199 237.835 320.286 237.566 320.286 237.29C320.286 237.014 320.199 236.745 320.039 236.521C319.878 236.297 319.651 236.129 319.39 236.04L222.16 179.91C221.489 179.57 220.747 179.393 219.995 179.393C219.243 179.393 218.501 179.57 217.83 179.91L120.61 236C120.333 236.078 120.09 236.245 119.917 236.474C119.744 236.703 119.65 236.983 119.65 237.27C119.65 237.557 119.744 237.837 119.917 238.066C120.09 238.295 120.333 238.462 120.61 238.54Z" fill="#0077C8"/>
<path d="M236.25 274.81L305.3 234.94V68.4301L236.25 108.3V274.81Z" fill="#37474F"/>
<path d="M220 286.54V117.68L134.7 68.4301V237.29L220 286.54Z" fill="#455A64"/>
<path d="M220 216.18L134.7 166.93V162.24L126.57 166.93L220 220.87V216.18Z" fill="#0077C8"/>
<path opacity="0.5" d="M220 216.18L134.7 166.93V162.24L126.57 166.93L220 220.87V216.18Z" fill="#01C8BC"/>
<path d="M126.57 166.93L220 220.87V225.56L126.57 171.62V166.93Z" fill="#0077C8"/>
<path d="M220 216.18L236.25 206.8L240.31 209.15L220 220.87V216.18Z" fill="#0077C8"/>
<path opacity="0.5" d="M220 216.18L236.25 206.8L240.31 209.15L220 220.87V216.18Z" fill="#01C8BC"/>
<path d="M220 225.56L240.31 213.84V209.15L220 220.87V225.56Z" fill="#0077C8"/>
<path opacity="0.2" d="M220 225.56L240.31 213.84V209.15L220 220.87V225.56Z" fill="black"/>
<path d="M220 117.68L236.25 108.3V206.8L220 216.18V117.68Z" fill="#263238"/>
<path d="M220 225.56L236.25 216.18V277.16L220 286.54V225.56Z" fill="#263238"/>
<path d="M211.88 202.11V178.66L195.63 169.28V192.73L211.88 202.11Z" fill="#0077C8"/>
<path opacity="0.5" d="M211.88 202.11V178.66L195.63 169.28V192.73L211.88 202.11Z" fill="#01C8BC"/>
<path d="M195.63 192.73L199.69 190.39V171.62L195.63 169.28V192.73Z" fill="#263238"/>
<path d="M211.88 197.42L199.69 190.39L195.63 192.73L211.88 202.11V197.42Z" fill="#263238"/>
<path d="M187.5 188.04V164.59L167.19 152.86V176.31L187.5 188.04Z" fill="#0077C8"/>
<path opacity="0.5" d="M187.5 188.04V164.59L167.19 152.86V176.31L187.5 188.04Z" fill="#01C8BC"/>
<path d="M171.25 173.97L171.26 155.21L167.19 152.86V176.31L171.25 173.97Z" fill="#263238"/>
<path d="M187.5 183.35V188.04L167.19 176.31L171.25 173.97L187.5 183.35Z" fill="#263238"/>
<path d="M246.4 252.53V229.08L266.71 217.36V240.81L246.4 252.53Z" fill="#0077C8"/>
<path d="M262.65 238.46V219.7L266.71 217.36V240.81L262.65 238.46Z" fill="#263238"/>
<path d="M246.4 247.84V252.53L266.71 240.81L262.65 238.46L246.4 247.84Z" fill="#263238"/>
<path d="M246.4 213.45V190L266.71 178.27V201.72L246.4 213.45Z" fill="#0077C8"/>
<path d="M262.65 199.38V180.61L266.71 178.27V201.72L262.65 199.38Z" fill="#263238"/>
<path d="M246.4 208.76V213.45L266.71 201.72L262.65 199.38L246.4 208.76Z" fill="#263238"/>
<path d="M246.4 174.36V150.91L266.71 139.18V162.63L246.4 174.36Z" fill="#0077C8"/>
<path d="M262.65 160.29V141.53L266.71 139.18V162.63L262.65 160.29Z" fill="#263238"/>
<path d="M246.4 169.67V174.36L266.71 162.63L262.65 160.29L246.4 169.67Z" fill="#263238"/>
<path d="M246.4 135.27V111.82L266.71 100.09V123.55L246.4 135.27Z" fill="#0077C8"/>
<path d="M262.65 121.2V102.44L266.71 100.09V123.55L262.65 121.2Z" fill="#263238"/>
<path d="M246.4 130.58V135.27L266.71 123.55L262.65 121.2L246.4 130.58Z" fill="#263238"/>
<path d="M275.28 235.86V212.41L295.6 200.69L295.59 224.14L275.28 235.86Z" fill="#0077C8"/>
<path d="M291.53 221.79V203.03L295.6 200.69L295.59 224.14L291.53 221.79Z" fill="#263238"/>
<path d="M275.28 231.18V235.86L295.59 224.14L291.53 221.79L275.28 231.18Z" fill="#263238"/>
<path d="M275.28 196.78V173.32L295.6 161.6L295.59 185.05L275.28 196.78Z" fill="#0077C8"/>
<path d="M291.53 182.71V163.94L295.6 161.6L295.59 185.05L291.53 182.71Z" fill="#263238"/>
<path d="M275.28 192.09V196.78L295.59 185.05L291.53 182.71L275.28 192.09Z" fill="#263238"/>
<path d="M275.28 157.69V134.24L295.6 122.51L295.59 145.97L275.28 157.69Z" fill="#0077C8"/>
<path d="M291.53 143.62V124.86L295.6 122.51L295.59 145.97L291.53 143.62Z" fill="#263238"/>
<path d="M275.28 153V157.69L295.59 145.97L291.53 143.62L275.28 153Z" fill="#263238"/>
<path d="M275.28 118.6V95.1501L295.6 83.4301L295.59 106.88L275.28 118.6Z" fill="#0077C8"/>
<path d="M291.53 104.53V85.7701L295.6 83.4301L295.59 106.88L291.53 104.53Z" fill="#263238"/>
<path d="M275.28 113.91V118.6L295.59 106.88L291.53 104.53L275.28 113.91Z" fill="#263238"/>
<path d="M159.07 171.62V148.17L142.82 138.79V162.24L159.07 171.62Z" fill="#0077C8"/>
<path opacity="0.5" d="M159.07 171.62V148.17L142.82 138.79V162.24L159.07 171.62Z" fill="#01C8BC"/>
<path d="M146.88 159.9L142.82 162.24V138.79L146.88 141.14V159.9Z" fill="#263238"/>
<path d="M159.07 166.93L146.88 159.9L142.82 162.24L159.07 171.62V166.93Z" fill="#263238"/>
<path d="M167.19 216.41C167.19 209.79 171.74 207.04 177.35 210.28C182.96 213.52 187.5 221.51 187.5 228.14V267.78L167.19 256.05V216.41Z" fill="#263238"/>
<path d="M187.5 228.14C187.5 221.51 182.96 213.51 177.35 210.28C175.922 209.375 174.261 208.906 172.57 208.93C171.642 210.479 171.187 212.266 171.26 214.07V253.71L187.5 263.09V228.14Z" fill="#455A64"/>
<path d="M187.5 228.14C187.5 221.51 182.96 213.51 177.35 210.28C175.922 209.375 174.261 208.906 172.57 208.93C171.642 210.479 171.187 212.266 171.26 214.07V253.71L187.5 263.09V228.14Z" fill="#0077C8"/>
<path opacity="0.5" d="M187.5 228.14C187.5 221.51 182.96 213.51 177.35 210.28C175.922 209.375 174.261 208.906 172.57 208.93C171.642 210.479 171.187 212.266 171.26 214.07V253.71L187.5 263.09V228.14Z" fill="#01C8BC"/>
<path d="M180.28 212.49C179.656 211.902 178.988 211.364 178.28 210.88V221.42L171.28 217.36V219.79L178.28 223.86V254.25L180.28 255.4V225L187.5 229.17V228.17C187.5 227.69 187.5 227.17 187.43 226.72L180.28 222.6V212.49Z" fill="#455A64"/>
<path d="M220 117.68V103.61L130.63 52.02V66.09L220 117.68Z" fill="#0077C8"/>
<path opacity="0.5" d="M220 117.68V103.61L130.63 52.02V66.09L220 117.68Z" fill="#01C8BC"/>
<path d="M220 117.68V103.61L309.37 52.02V66.09L220 117.68Z" fill="#0077C8"/>
<path opacity="0.2" d="M220 117.68V103.61L309.37 52.02V66.09L220 117.68Z" fill="black"/>
<path d="M142.82 92.5001C142.82 86.9801 146.46 84.6001 150.94 87.1901C155.42 89.7801 159.07 96.3601 159.07 101.88V138.79L142.82 129.41V92.5001Z" fill="#263238"/>
<path d="M150.94 87.1801C149.974 86.6008 148.884 86.2582 147.76 86.1801C147.141 87.4205 146.839 88.7946 146.88 90.1801V127.09L159.07 134.09V101.87C159.07 96.3501 155.43 89.7701 150.94 87.1801Z" fill="#0077C8"/>
<path opacity="0.5" d="M150.94 87.1801C149.974 86.6008 148.884 86.2582 147.76 86.1801C147.141 87.4205 146.839 88.7946 146.88 90.1801V127.09L159.07 134.09V101.87C159.07 96.3501 155.43 89.7701 150.94 87.1801Z" fill="#01C8BC"/>
<path d="M142.82 129.41L146.88 127.06L159.07 134.09V138.79L142.82 129.41Z" fill="#263238"/>
<path d="M167.19 108.57C167.19 101.94 171.74 99.2 177.35 102.44C182.96 105.68 187.5 113.67 187.5 120.3V155.21L167.19 143.48V108.57Z" fill="#263238"/>
<path d="M187.5 120.3C187.5 113.67 182.96 105.67 177.35 102.44C175.922 101.535 174.261 101.066 172.57 101.09C171.642 102.639 171.187 104.426 171.26 106.23V141.13L187.5 150.52V120.3Z" fill="#0077C8"/>
<path opacity="0.5" d="M187.5 120.3C187.5 113.67 182.96 105.67 177.35 102.44C175.922 101.535 174.261 101.066 172.57 101.09C171.642 102.639 171.187 104.426 171.26 106.23V141.13L187.5 150.52V120.3Z" fill="#01C8BC"/>
<path d="M171.26 141.13L167.19 143.48L187.5 155.21V150.52L171.26 141.13Z" fill="#263238"/>
<path d="M195.63 123C195.63 117.48 199.26 115.1 203.75 117.69C208.24 120.28 211.88 126.86 211.88 132.38V169.29L195.63 159.91V123Z" fill="#263238"/>
<path d="M203.75 117.68C202.783 117.102 201.694 116.76 200.57 116.68C199.95 117.92 199.648 119.294 199.69 120.68V157.59L211.88 164.59V132.37C211.88 126.85 208.24 120.27 203.75 117.68Z" fill="#0077C8"/>
<path opacity="0.5" d="M203.75 117.68C202.783 117.102 201.694 116.76 200.57 116.68C199.95 117.92 199.648 119.294 199.69 120.68V157.59L211.88 164.59V132.37C211.88 126.85 208.24 120.27 203.75 117.68Z" fill="#01C8BC"/>
<path d="M199.69 157.55L195.63 159.9L211.88 169.28V164.59L199.69 157.55Z" fill="#263238"/>
<path d="M195.63 230.83C195.63 225.31 199.26 222.93 203.75 225.52C208.24 228.11 211.88 234.69 211.88 240.21V281.85L195.63 272.47V230.83Z" fill="#263238"/>
<path d="M203.75 225.52C202.783 224.942 201.694 224.6 200.57 224.52C199.951 225.76 199.649 227.135 199.69 228.52V270.15L211.88 277.15V240.15C211.88 234.69 208.24 228.11 203.75 225.52Z" fill="#0077C8"/>
<path opacity="0.5" d="M203.75 225.52C202.783 224.942 201.694 224.6 200.57 224.52C199.951 225.76 199.649 227.135 199.69 228.52V270.15L211.88 277.15V240.15C211.88 234.69 208.24 228.11 203.75 225.52Z" fill="#01C8BC"/>
<path d="M195.63 272.47V258.4L211.88 267.78V281.85L195.63 272.47Z" fill="#37474F"/>
<path d="M195.63 258.4L199.69 256.05L211.87 263.09L211.88 267.78L195.63 258.4Z" fill="#263238"/>
<path d="M142.82 200.34C142.82 194.82 146.46 192.44 150.94 195.03C155.42 197.62 159.07 204.2 159.07 209.72V251.36L142.82 242V200.34Z" fill="#263238"/>
<path d="M150.94 195C149.972 194.425 148.883 194.083 147.76 194C147.141 195.241 146.839 196.615 146.88 198V239.64L159.07 246.64V209.64C159.07 204.19 155.43 197.61 150.94 195Z" fill="#0077C8"/>
<path opacity="0.5" d="M150.94 195C149.972 194.425 148.883 194.083 147.76 194C147.141 195.241 146.839 196.615 146.88 198V239.64L159.07 246.64V209.64C159.07 204.19 155.43 197.61 150.94 195Z" fill="#01C8BC"/>
<path d="M159.07 251.36V237.29L142.82 227.91V241.98L159.07 251.36Z" fill="#37474F"/>
<path d="M142.82 227.91L146.88 225.56L159.07 232.6V237.29L142.82 227.91Z" fill="#263238"/>
<path d="M167.19 256.05V251.36L187.5 263.09V267.78L167.19 256.05Z" fill="#37474F"/>
<path d="M167.19 251.36L171.26 249.02L187.5 258.4V263.09L167.19 251.36Z" fill="#263238"/>
<path d="M220 103.61L309.37 52.0201L220 0.420044L130.63 52.0201L220 103.61Z" fill="#0077C8"/>
<path opacity="0.7" d="M220 103.61L309.37 52.0201L220 0.420044L130.63 52.0201L220 103.61Z" fill="#01C8BC"/>
<path d="M220 94.23L293.12 52.0201L220 9.80005L146.88 52.0201L220 94.23Z" fill="#0077C8"/>
<path d="M220 9.80005V23.88L159.07 59.05L146.88 52.0201L220 9.80005Z" fill="#0077C8"/>
<path opacity="0.2" d="M220 9.80005V23.88L159.07 59.05L146.88 52.0201L220 9.80005Z" fill="black"/>
<path d="M220 9.80005L293.12 52.0201L280.93 59.05L220 23.88V9.80005Z" fill="#0077C8"/>
<path opacity="0.5" d="M220 9.80005L293.12 52.0201L280.93 59.05L220 23.88V9.80005Z" fill="#01C8BC"/>
<path d="M207.81 21.53L187.5 33.26L215.94 49.67L236.25 37.95L207.81 21.53Z" fill="#455A64"/>
<path d="M187.5 33.26V47.33L215.94 63.74V49.67L187.5 33.26Z" fill="#37474F"/>
<path d="M236.25 37.9501V52.0201L215.94 63.7401V49.6701L236.25 37.9501Z" fill="#263238"/>
<path d="M201.14 29.4C197.45 31.53 197.45 34.98 201.14 37.11C203.208 38.1605 205.495 38.708 207.815 38.708C210.135 38.708 212.422 38.1605 214.49 37.11C218.17 34.98 218.17 31.53 214.49 29.4C212.422 28.3495 210.135 27.802 207.815 27.802C205.495 27.802 203.208 28.3495 201.14 29.4Z" fill="#37474F"/>
<path d="M204.69 31.6001C202.96 32.5101 202.96 34.0001 204.69 34.9101C205.669 35.3647 206.735 35.6002 207.815 35.6002C208.894 35.6002 209.961 35.3647 210.94 34.9101C212.66 34.0001 212.66 32.5101 210.94 31.6001C209.961 31.1454 208.894 30.9099 207.815 30.9099C206.735 30.9099 205.669 31.1454 204.69 31.6001Z" fill="#263238"/>
<path d="M222.22 50.73L226.28 53.07V62.46" stroke="#455A64" stroke-width="2" stroke-linecap="round" stroke-linejoin="round"/>
<path d="M228.12 47.3301L232.18 49.6701V59.0501" stroke="#455A64" stroke-width="2" stroke-linecap="round" stroke-linejoin="round"/>
<path d="M102.52 188.68V221C102.539 221.23 102.62 221.451 102.754 221.639C102.887 221.827 103.069 221.976 103.28 222.07C103.857 222.361 104.494 222.513 105.14 222.513C105.786 222.513 106.423 222.361 107 222.07C107.211 221.976 107.393 221.827 107.526 221.639C107.66 221.451 107.741 221.23 107.76 221V188.7L102.52 188.68Z" fill="#37474F"/>
<path d="M117.76 198.08C117.76 201.427 116.43 204.637 114.064 207.004C111.697 209.37 108.487 210.7 105.14 210.7C101.793 210.7 98.583 209.37 96.2163 207.004C93.8496 204.637 92.52 201.427 92.52 198.08C92.52 185.18 98.17 171.08 105.14 171.08C112.11 171.08 117.76 185 117.76 198.08Z" fill="#0077C8"/>
<path d="M117.76 198.08C117.76 197.75 117.76 197.42 117.76 197.08V196.75C117.662 198.125 117.126 199.432 116.23 200.48C113.84 203.48 108.57 206.74 103.13 204.48C93.99 200.65 93.74 189.84 95.77 180.89C93.6384 186.374 92.5432 192.206 92.54 198.09C92.54 201.437 93.8696 204.647 96.2363 207.014C98.603 209.38 101.813 210.71 105.16 210.71C108.507 210.71 111.717 209.38 114.084 207.014C116.45 204.647 117.78 201.437 117.78 198.09L117.76 198.08Z" fill="#0077C8"/>
<path opacity="0.1" d="M117.76 198.08C117.76 197.75 117.76 197.42 117.76 197.08V196.75C117.662 198.125 117.126 199.432 116.23 200.48C113.84 203.48 108.57 206.74 103.13 204.48C93.99 200.65 93.74 189.84 95.77 180.89C93.6384 186.374 92.5432 192.206 92.54 198.09C92.54 201.437 93.8696 204.647 96.2363 207.014C98.603 209.38 101.813 210.71 105.16 210.71C108.507 210.71 111.717 209.38 114.084 207.014C116.45 204.647 117.78 201.437 117.78 198.09L117.76 198.08Z" fill="black"/>
<path d="M10.21 132V164.31C10.2307 164.546 10.3151 164.772 10.4542 164.964C10.5934 165.156 10.782 165.307 11 165.4C11.5751 165.691 12.2105 165.842 12.855 165.842C13.4994 165.842 14.1349 165.691 14.71 165.4C14.9214 165.306 15.1041 165.157 15.2394 164.969C15.3746 164.781 15.4576 164.56 15.48 164.33V132H10.21Z" fill="#37474F"/>
<path d="M25.45 141.43C25.4975 143.117 25.2063 144.795 24.5937 146.367C23.9811 147.939 23.0595 149.373 21.8834 150.582C20.7073 151.792 19.3005 152.754 17.7464 153.41C16.1922 154.067 14.5221 154.405 12.835 154.405C11.1478 154.405 9.47774 154.067 7.92357 153.41C6.3694 152.754 4.96267 151.792 3.78657 150.582C2.61046 149.373 1.68885 147.939 1.07625 146.367C0.463645 144.795 0.172478 143.117 0.219966 141.43C0.219966 128.53 5.86997 114.43 12.83 114.43C19.79 114.43 25.45 128.32 25.45 141.43Z" fill="#0077C8"/>
<path d="M429.79 132V164.31C429.768 164.54 429.685 164.761 429.549 164.949C429.414 165.137 429.231 165.286 429.02 165.38C428.445 165.671 427.809 165.822 427.165 165.822C426.521 165.822 425.885 165.671 425.31 165.38C425.099 165.286 424.916 165.137 424.781 164.949C424.645 164.761 424.562 164.54 424.54 164.31V132H429.79Z" fill="#37474F"/>
<path d="M414.55 141.43C414.502 143.117 414.794 144.795 415.406 146.367C416.019 147.939 416.94 149.373 418.117 150.582C419.293 151.792 420.699 152.754 422.254 153.41C423.808 154.067 425.478 154.405 427.165 154.405C428.852 154.405 430.522 154.067 432.076 153.41C433.63 152.754 435.037 151.792 436.213 150.582C437.389 149.373 438.311 147.939 438.924 146.367C439.536 144.795 439.827 143.117 439.78 141.43C439.78 128.53 434.13 114.43 427.17 114.43C420.21 114.43 414.55 128.32 414.55 141.43Z" fill="#0077C8"/>
</g>
<defs>
<clipPath id="clip0_115_110">
<rect width="440" height="300" fill="white"/>
</clipPath>
</defs>
</svg>
