<svg width="498" height="498" viewBox="0 0 498 498" fill="none" xmlns="http://www.w3.org/2000/svg">
<circle cx="249" cy="249" r="249" fill="#2B479D"/>
<path d="M248.5 43L254.45 61.3111H273.703L258.127 72.6279L264.076 90.9389L248.5 79.6221L232.924 90.9389L238.873 72.6279L223.297 61.3111H242.55L248.5 43Z" fill="#F8D12E"/>
<path d="M347.5 75L353.45 93.3111H372.703L357.127 104.628L363.076 122.939L347.5 111.622L331.924 122.939L337.873 104.628L322.297 93.3111H341.55L347.5 75Z" fill="#F8D12E"/>
<path d="M415.5 141L421.45 159.311H440.703L425.127 170.628L431.076 188.939L415.5 177.622L399.924 188.939L405.873 170.628L390.297 159.311H409.55L415.5 141Z" fill="#F8D12E"/>
<path d="M431.5 222L437.45 240.311H456.703L441.127 251.628L447.076 269.939L431.5 258.622L415.924 269.939L421.873 251.628L406.297 240.311H425.55L431.5 222Z" fill="#F8D12E"/>
<path d="M415.5 311L421.45 329.311H440.703L425.127 340.628L431.076 358.939L415.5 347.622L399.924 358.939L405.873 340.628L390.297 329.311H409.55L415.5 311Z" fill="#F8D12E"/>
<path d="M351.5 381L357.45 399.311H376.703L361.127 410.628L367.076 428.939L351.5 417.622L335.924 428.939L341.873 410.628L326.297 399.311H345.55L351.5 381Z" fill="#F8D12E"/>
<path d="M149.5 75L143.55 93.3111H124.297L139.873 104.628L133.924 122.939L149.5 111.622L165.076 122.939L159.127 104.628L174.703 93.3111H155.45L149.5 75Z" fill="#F8D12E"/>
<path d="M81.5 141L75.5504 159.311H56.297L71.8733 170.628L65.9237 188.939L81.5 177.622L97.0763 188.939L91.1267 170.628L106.703 159.311H87.4496L81.5 141Z" fill="#F8D12E"/>
<path d="M65.5 222L59.5504 240.311H40.297L55.8733 251.628L49.9237 269.939L65.5 258.622L81.0763 269.939L75.1267 251.628L90.703 240.311H71.4496L65.5 222Z" fill="#F8D12E"/>
<path d="M81.5 311L75.5504 329.311H56.297L71.8733 340.628L65.9237 358.939L81.5 347.622L97.0763 358.939L91.1267 340.628L106.703 329.311H87.4496L81.5 311Z" fill="#F8D12E"/>
<path d="M145.5 381L139.55 399.311H120.297L135.873 410.628L129.924 428.939L145.5 417.622L161.076 428.939L155.127 410.628L170.703 399.311H151.45L145.5 381Z" fill="#F8D12E"/>
<path d="M248.5 407L254.45 425.311H273.703L258.127 436.628L264.076 454.939L248.5 443.622L232.924 454.939L238.873 436.628L223.297 425.311H242.55L248.5 407Z" fill="#F8D12E"/>
</svg>
