<svg width="498" height="498" viewBox="0 0 498 498" fill="none" xmlns="http://www.w3.org/2000/svg">
<circle cx="249" cy="249" r="249" fill="#D80027"/>
<path d="M140 157L161.553 223.334H231.301L174.874 264.331L196.427 330.666L140 289.669L83.5726 330.666L105.126 264.331L48.6986 223.334H118.447L140 157Z" fill="#FFDA44"/>
<path d="M359.5 265L368.368 292.294L397.067 292.294L373.849 309.162L382.718 336.456L359.5 319.588L336.282 336.456L345.151 309.162L321.933 292.294L350.632 292.294L359.5 265Z" fill="#FFDA44"/>
<path d="M301.049 323.065L301.916 351.751L329.466 359.79L302.452 369.479L303.32 398.164L285.757 375.467L258.744 385.156L274.903 361.44L257.341 338.743L284.89 346.782L301.049 323.065Z" fill="#FFDA44"/>
<path d="M304.32 111.237L302.754 139.893L329.524 150.237L301.787 157.603L300.221 186.259L284.644 162.156L256.907 169.522L275.017 147.259L259.44 123.156L286.21 133.5L304.32 111.237Z" fill="#FFDA44"/>
<path d="M383.958 185.097L370.776 210.589L390.947 231.003L362.63 226.344L349.448 251.836L345.128 223.465L316.81 218.806L342.458 205.931L338.138 177.559L358.31 197.973L383.958 185.097Z" fill="#FFDA44"/>
</svg>
