<svg width="379" height="337" viewBox="0 0 379 337" fill="none" xmlns="http://www.w3.org/2000/svg">
<g clip-path="url(#clip0_115_9)">
<path d="M379.173 30.4107C383.963 104.961 293.973 185.411 229.103 206.411C166.593 226.681 41.5934 219.131 35.2034 131.281C32.8034 98.2807 51.8734 62.2807 80.1334 45.0807C125.573 17.4507 161.193 54.3207 205.983 60.2507C241.573 64.9607 269.133 49.0907 295.833 27.4207C318.073 9.39072 375.573 -25.5193 379.173 30.4107Z" fill="#0077C8"/>
<path opacity="0.8" d="M344.173 74.4107C348.963 148.961 258.973 229.411 194.103 250.411C131.593 270.681 6.59341 263.131 0.203408 175.281C-2.19659 142.281 16.8734 106.281 45.1334 89.0807C90.5734 61.4507 126.193 98.3207 170.983 104.251C206.573 108.961 234.133 93.0907 260.833 71.4207C283.073 53.3907 340.573 18.4807 344.173 74.4107Z" fill="white"/>
<path d="M114.921 186.376C136.072 165.225 136.072 130.933 114.921 109.782C93.7707 88.6309 59.4785 88.6309 38.3277 109.782C17.1769 130.933 17.1769 165.225 38.3277 186.376C59.4785 207.526 93.7707 207.526 114.921 186.376Z" fill="#0077C8"/>
<path opacity="0.4" d="M114.921 186.376C136.072 165.225 136.072 130.933 114.921 109.782C93.7707 88.6309 59.4785 88.6309 38.3277 109.782C17.1769 130.933 17.1769 165.225 38.3277 186.376C59.4785 207.526 93.7707 207.526 114.921 186.376Z" fill="black"/>
<path opacity="0.2" d="M121.461 155.726C125.685 130.966 109.037 107.47 84.2763 103.246C59.516 99.0229 36.02 115.671 31.7965 140.432C27.5731 165.192 44.2215 188.688 68.9818 192.911C93.742 197.135 117.238 180.486 121.461 155.726Z" fill="black"/>
<path d="M123.635 152.434C125.323 128.322 107.144 107.406 83.0312 105.718C58.9184 104.03 38.0029 122.209 36.315 146.322C34.6271 170.435 52.806 191.35 76.9188 193.038C101.032 194.726 121.947 176.547 123.635 152.434Z" fill="#0077C8"/>
<path opacity="0.4" d="M123.635 152.434C125.323 128.322 107.144 107.406 83.0312 105.718C58.9184 104.03 38.0029 122.209 36.315 146.322C34.6271 170.435 52.806 191.35 76.9188 193.038C101.032 194.726 121.947 176.547 123.635 152.434Z" fill="black"/>
<path d="M192.199 105.008C205.673 89.0626 203.671 65.2129 187.725 51.7381C171.78 38.2633 147.93 40.266 134.456 56.2113C120.981 72.1566 122.983 96.0063 138.929 109.481C154.874 122.956 178.724 120.953 192.199 105.008Z" fill="#0077C8"/>
<path opacity="0.4" d="M192.199 105.008C205.673 89.0626 203.671 65.2129 187.725 51.7381C171.78 38.2633 147.93 40.266 134.456 56.2113C120.981 72.1566 122.983 96.0063 138.929 109.481C154.874 122.956 178.724 120.953 192.199 105.008Z" fill="black"/>
<path opacity="0.2" d="M187.793 100.804C198.962 87.2937 197.063 67.2869 183.553 56.1179C170.042 44.9489 150.035 46.8471 138.866 60.3578C127.697 73.8684 129.595 93.8752 143.106 105.044C156.617 116.213 176.624 114.315 187.793 100.804Z" fill="black"/>
<path d="M188.751 101.136C198.969 87.7657 196.414 68.6431 183.044 58.4244C169.674 48.2057 150.551 50.7606 140.333 64.1309C130.114 77.5012 132.669 96.6238 146.039 106.842C159.409 117.061 178.532 114.506 188.751 101.136Z" fill="#0077C8"/>
<path opacity="0.4" d="M188.751 101.136C198.969 87.7657 196.414 68.6431 183.044 58.4244C169.674 48.2057 150.551 50.7606 140.333 64.1309C130.114 77.5012 132.669 96.6238 146.039 106.842C159.409 117.061 178.532 114.506 188.751 101.136Z" fill="black"/>
<path d="M65.0385 172.977C59.8323 171.003 55.5916 168.197 52.3166 164.559C49.0643 160.862 46.986 156.686 46.0817 152.03C45.2374 147.398 45.7228 142.688 47.5382 137.901C49.3763 133.054 52.1358 129.206 55.8167 126.358C59.5801 123.473 63.8936 121.755 68.7571 121.204C73.6432 120.592 78.6894 121.274 83.8957 123.248C88.9823 125.177 93.0021 127.933 95.9553 131.517C98.9311 135.041 100.568 139.118 100.865 143.749L87.7915 145.465C87.3972 142.714 86.4467 140.437 84.9402 138.634C83.4936 136.853 81.6632 135.543 79.449 134.704C77.0554 133.796 74.6968 133.518 72.3734 133.869C70.05 134.22 67.9454 135.167 66.0596 136.711C64.2336 138.277 62.7873 140.466 61.7208 143.279C60.6542 146.092 60.2851 148.689 60.6134 151.073C61.0016 153.479 61.9489 155.583 63.4554 157.387C64.9619 159.19 66.912 160.545 69.3057 161.453C71.5198 162.293 73.7473 162.555 75.9882 162.242C78.3116 161.891 80.5441 160.786 82.6858 158.929L91.3006 168.972C88.0304 172.181 84.1018 174.148 79.5148 174.873C74.9505 175.538 70.1251 174.906 65.0385 172.977Z" fill="#B2C8D6"/>
<path d="M163.716 102.497C159.324 102.119 155.488 100.899 152.208 98.8365C148.931 96.7238 146.446 93.9926 144.751 90.6429C143.106 87.2976 142.458 83.6057 142.805 79.5673C143.157 75.4784 144.427 71.9516 146.615 68.987C148.857 65.9762 151.771 63.7351 155.355 62.2637C158.944 60.7419 162.935 60.17 167.327 60.5479C171.617 60.9173 175.275 62.1474 178.299 64.2384C181.327 66.2789 183.455 69.0302 184.682 72.4922L175.097 76.6255C174.202 74.616 172.986 73.0874 171.448 72.0397C169.962 70.9964 168.285 70.3944 166.417 70.2336C164.398 70.0598 162.541 70.3577 160.848 71.1273C159.154 71.8969 157.756 73.0734 156.654 74.6567C155.601 76.2443 154.973 78.2244 154.769 80.597C154.565 82.9695 154.846 85.0278 155.611 86.7719C156.427 88.5203 157.603 89.9183 159.14 90.966C160.677 92.0137 162.455 92.6244 164.475 92.7982C166.342 92.9589 168.096 92.6776 169.734 91.9541C171.428 91.1845 172.89 89.8609 174.119 87.9835L182.851 93.7696C181.054 96.9204 178.488 99.2676 175.151 100.811C171.819 102.304 168.007 102.866 163.716 102.497Z" fill="#B2C8D6"/>
<path d="M347.2 152.49H88.81C80.4981 152.49 73.76 159.228 73.76 167.54V318.79C73.76 327.102 80.4981 333.84 88.81 333.84H347.2C355.512 333.84 362.25 327.102 362.25 318.79V167.54C362.25 159.228 355.512 152.49 347.2 152.49Z" fill="#0077C8"/>
<path opacity="0.2" d="M347.2 152.49H88.81C80.4981 152.49 73.76 159.228 73.76 167.54V318.79C73.76 327.102 80.4981 333.84 88.81 333.84H347.2C355.512 333.84 362.25 327.102 362.25 318.79V167.54C362.25 159.228 355.512 152.49 347.2 152.49Z" fill="black"/>
<path d="M315.55 215.64C320.502 215.64 325.25 213.673 328.752 210.172C332.253 206.67 334.22 201.922 334.22 196.97C334.22 192.018 332.253 187.27 328.752 183.768C325.25 180.267 320.502 178.3 315.55 178.3H291.45C286.498 178.3 281.75 180.267 278.248 183.768C274.747 187.27 272.78 192.018 272.78 196.97C272.78 201.922 274.747 206.67 278.248 210.172C281.75 213.673 286.498 215.64 291.45 215.64H315.55Z" fill="#0077C8"/>
<path d="M152.74 215.63H108.27C104.691 215.63 101.79 218.531 101.79 222.11V251.18C101.79 254.759 104.691 257.66 108.27 257.66H152.74C156.319 257.66 159.22 254.759 159.22 251.18V222.11C159.22 218.531 156.319 215.63 152.74 215.63Z" fill="#0077C8"/>
<path opacity="0.3" d="M152.74 215.63H108.27C104.691 215.63 101.79 218.531 101.79 222.11V251.18C101.79 254.759 104.691 257.66 108.27 257.66H152.74C156.319 257.66 159.22 254.759 159.22 251.18V222.11C159.22 218.531 156.319 215.63 152.74 215.63Z" fill="white"/>
<path d="M183.51 173.71H106.38C103.845 173.71 101.79 175.763 101.79 178.295C101.79 180.827 103.845 182.88 106.38 182.88H183.51C186.045 182.88 188.1 180.827 188.1 178.295C188.1 175.763 186.045 173.71 183.51 173.71Z" fill="#0077C8"/>
<path opacity="0.3" d="M183.51 173.71H106.38C103.845 173.71 101.79 175.763 101.79 178.295C101.79 180.827 103.845 182.88 106.38 182.88H183.51C186.045 182.88 188.1 180.827 188.1 178.295C188.1 175.763 186.045 173.71 183.51 173.71Z" fill="white"/>
<path d="M143.21 278.52H108.52C104.803 278.52 101.79 281.533 101.79 285.25V291.54C101.79 295.257 104.803 298.27 108.52 298.27H143.21C146.927 298.27 149.94 295.257 149.94 291.54V285.25C149.94 281.533 146.927 278.52 143.21 278.52Z" fill="#0077C8"/>
<path opacity="0.3" d="M143.21 278.52H108.52C104.803 278.52 101.79 281.533 101.79 285.25V291.54C101.79 295.257 104.803 298.27 108.52 298.27H143.21C146.927 298.27 149.94 295.257 149.94 291.54V285.25C149.94 281.533 146.927 278.52 143.21 278.52Z" fill="white"/>
<path d="M204.63 278.52H169.94C166.223 278.52 163.21 281.533 163.21 285.25V291.54C163.21 295.257 166.223 298.27 169.94 298.27H204.63C208.347 298.27 211.36 295.257 211.36 291.54V285.25C211.36 281.533 208.347 278.52 204.63 278.52Z" fill="#0077C8"/>
<path opacity="0.3" d="M204.63 278.52H169.94C166.223 278.52 163.21 281.533 163.21 285.25V291.54C163.21 295.257 166.223 298.27 169.94 298.27H204.63C208.347 298.27 211.36 295.257 211.36 291.54V285.25C211.36 281.533 208.347 278.52 204.63 278.52Z" fill="white"/>
<path d="M266.06 278.52H231.37C227.653 278.52 224.64 281.533 224.64 285.25V291.54C224.64 295.257 227.653 298.27 231.37 298.27H266.06C269.777 298.27 272.79 295.257 272.79 291.54V285.25C272.79 281.533 269.777 278.52 266.06 278.52Z" fill="#0077C8"/>
<path opacity="0.3" d="M266.06 278.52H231.37C227.653 278.52 224.64 281.533 224.64 285.25V291.54C224.64 295.257 227.653 298.27 231.37 298.27H266.06C269.777 298.27 272.79 295.257 272.79 291.54V285.25C272.79 281.533 269.777 278.52 266.06 278.52Z" fill="white"/>
<path d="M327.48 278.52H292.79C289.073 278.52 286.06 281.533 286.06 285.25V291.54C286.06 295.257 289.073 298.27 292.79 298.27H327.48C331.197 298.27 334.21 295.257 334.21 291.54V285.25C334.21 281.533 331.197 278.52 327.48 278.52Z" fill="#0077C8"/>
<path opacity="0.3" d="M327.48 278.52H292.79C289.073 278.52 286.06 281.533 286.06 285.25V291.54C286.06 295.257 289.073 298.27 292.79 298.27H327.48C331.197 298.27 334.21 295.257 334.21 291.54V285.25C334.21 281.533 331.197 278.52 327.48 278.52Z" fill="white"/>
<path d="M261 86.8699C258.63 93.5599 256 100.03 253.21 106.5C250.386 113.079 247.146 119.472 243.51 125.64C243.02 126.43 242.51 127.22 241.98 128.01L241.59 128.6L241.06 129.33C240.7 129.79 240.36 130.19 240.06 130.58C238.8 131.985 237.465 133.32 236.06 134.58C233.39 137.05 230.67 139.29 227.92 141.5C222.4 145.88 216.76 149.98 210.92 153.87L207.43 149.54L222.13 135.05C224.56 132.64 226.97 130.21 229.22 127.78C230.33 126.57 231.41 125.33 232.3 124.19C232.52 123.91 232.71 123.63 232.88 123.39L233.09 123.05L233.38 122.53C233.77 121.84 234.18 121.17 234.56 120.46C237.62 114.71 240.32 108.46 242.92 102.12C245.52 95.7799 248.02 89.3899 250.42 83.0499L261 86.8699Z" fill="#E4897B"/>
<path d="M263.81 82.0499C266.08 88.6899 252.74 108.22 252.74 108.22L240 101.13C242.171 95.0361 244.736 89.0902 247.68 83.3299C252.14 74.8899 261.32 74.7599 263.81 82.0499Z" fill="#0077C8"/>
<path opacity="0.7" d="M263.81 82.0499C266.08 88.6899 252.74 108.22 252.74 108.22L240 101.13C242.171 95.0361 244.736 89.0902 247.68 83.3299C252.14 74.8899 261.32 74.7599 263.81 82.0499Z" fill="white"/>
<path opacity="0.31" d="M264 82.88C261.14 81.51 257.85 82.66 254.38 88.14C250.91 93.62 247.96 102.77 247.64 105.38L252.75 108.21C252.75 108.21 265.06 90.17 264 82.88Z" fill="#0077C8"/>
<path d="M255.18 76.97C255.18 76.97 245.66 99.36 252.52 141.05H292.17C292.66 134.96 289.86 105.27 296.73 76.5899C292.365 75.7402 287.949 75.179 283.51 74.91C277.898 74.5897 272.272 74.5897 266.66 74.91C262.786 75.3033 258.949 75.992 255.18 76.97Z" fill="#0077C8"/>
<path opacity="0.7" d="M255.18 76.97C255.18 76.97 245.66 99.36 252.52 141.05H292.17C292.66 134.96 289.86 105.27 296.73 76.5899C292.365 75.7402 287.949 75.179 283.51 74.91C277.898 74.5897 272.272 74.5897 266.66 74.91C262.786 75.3033 258.949 75.992 255.18 76.97Z" fill="white"/>
<path d="M306.21 318.67L300.34 323.93L289.15 312.29L295.03 307.03L306.21 318.67Z" fill="#E4897B"/>
<path d="M286.08 329.62H278.67L277.71 312.45H285.12L286.08 329.62Z" fill="#E4897B"/>
<path d="M289.16 312.29L294.92 318.29L300.8 313.03L295.04 307.03L289.16 312.29Z" fill="#CE6F64"/>
<path d="M285.12 312.46H277.71L278.21 321.31H285.62L285.12 312.46Z" fill="#CE6F64"/>
<path d="M252.52 141.05C252.52 141.05 244.71 195.11 242.05 224.53C239.91 248.14 290.96 318.53 290.96 318.53L300.83 309.24C300.83 309.24 263.55 246.13 266.42 219.85C269.2 194.4 278.62 141.02 278.62 141.02L252.52 141.05Z" fill="#0077C8"/>
<path opacity="0.7" d="M252.52 141.05C252.52 141.05 244.71 195.11 242.05 224.53C239.91 248.14 290.96 318.53 290.96 318.53L300.83 309.24C300.83 309.24 263.55 246.13 266.42 219.85C269.2 194.4 278.62 141.02 278.62 141.02L252.52 141.05Z" fill="black"/>
<path opacity="0.2" d="M266.42 219.88C267.85 206.77 271.05 186.23 273.8 169.41C272.36 166.59 268.32 160.88 268.32 160.88C264.7 173.39 256.83 220.55 268.06 284.24C279.76 303.1 290.96 318.56 290.96 318.56L292.49 294.24C281.68 273.9 264.43 238.05 266.42 219.88Z" fill="black"/>
<path d="M266.62 141.05C266.62 141.05 265.92 197.7 267.12 218.93C268.43 242.17 275.03 319.17 275.03 319.17H288.61C288.61 319.17 288.2 244.05 289 221.05C289.89 196.05 292.19 141.05 292.19 141.05H266.62Z" fill="#0077C8"/>
<path opacity="0.7" d="M266.62 141.05C266.62 141.05 265.92 197.7 267.12 218.93C268.43 242.17 275.03 319.17 275.03 319.17H288.61C288.61 319.17 288.2 244.05 289 221.05C289.89 196.05 292.19 141.05 292.19 141.05H266.62Z" fill="black"/>
<path d="M278.28 328.77H286.61C286.749 328.764 286.884 328.814 286.987 328.907C287.09 329.001 287.152 329.131 287.16 329.27L287.57 335.86C287.571 336.032 287.539 336.203 287.474 336.362C287.41 336.521 287.314 336.667 287.193 336.789C287.073 336.912 286.929 337.009 286.771 337.076C286.612 337.143 286.442 337.179 286.27 337.18C283.37 337.13 281.98 336.96 278.32 336.96C276.07 336.96 266.49 337.2 263.38 337.2C260.27 337.2 260.38 334.12 261.67 333.84C267.58 332.59 274.91 330.84 277.01 329.22C277.372 328.934 277.819 328.776 278.28 328.77Z" fill="#263238"/>
<path d="M298.72 321.83L305.86 317.02C305.977 316.928 306.121 316.877 306.27 316.877C306.419 316.877 306.563 316.928 306.68 317.02L312.14 322.53C312.247 322.651 312.325 322.794 312.37 322.949C312.415 323.104 312.426 323.267 312.401 323.426C312.376 323.585 312.317 323.737 312.227 323.871C312.137 324.005 312.018 324.117 311.88 324.2C307.32 327.71 304.03 330.36 301.43 333.28C298.43 336.69 296.81 337.18 289.81 337.18C286.57 337.18 284.74 334.45 286.06 334.03C297.72 330.34 294.6 328.73 297.44 323.32C297.736 322.725 298.176 322.213 298.72 321.83Z" fill="#263238"/>
<path d="M209.11 148.61L201.38 148.88L203 154.94C203 154.94 211.08 155.66 211.8 153.22L209.11 148.61Z" fill="#E4897B"/>
<path d="M193.04 152.49L198.46 155.65L203 154.94L201.38 148.88L193.04 152.49Z" fill="#E4897B"/>
<path opacity="0.31" d="M287.87 83.67C287.05 88.39 288.14 99.67 292.19 112.73C292.507 101.541 293.809 90.401 296.08 79.44V79.38C293.48 79.12 288.66 79.24 287.87 83.67Z" fill="#0077C8"/>
<path d="M282.5 55.9299C281.25 61.3499 279.84 71.2899 283.5 74.9299C283.5 74.9299 281.92 79.4199 271.84 79.4199C260.76 79.4199 266.65 74.9299 266.65 74.9299C272.75 73.4899 272.75 68.9999 271.84 64.7899L282.5 55.9299Z" fill="#E4897B"/>
<path d="M271.56 79.3999L268.56 82.5899L270.03 85.6699L272.42 85.7799L274.46 82.8399L271.56 79.3999Z" fill="#0077C8"/>
<path d="M278.16 59.5399L271.85 64.7599C272.077 65.7458 272.218 66.7496 272.27 67.7599C274.59 67.4299 277.85 64.8899 278.18 62.4699C278.357 61.5006 278.35 60.5067 278.16 59.5399Z" fill="#CE6F64"/>
<path d="M269.35 37.5499C265.56 38.8399 262.53 48.8899 266.95 51.5499C271.37 54.2099 276.55 35.0999 269.35 37.5499Z" fill="#263238"/>
<path d="M284.87 50.2499C282.61 57.2499 281.65 61.4799 277.09 64.3499C275.619 65.2954 273.917 65.8207 272.169 65.8689C270.421 65.9171 268.693 65.4865 267.173 64.6235C265.652 63.7606 264.396 62.4983 263.54 60.973C262.685 59.4478 262.263 57.7177 262.32 55.9699C262.41 49.2399 266.09 38.8799 273.84 37.5799C275.51 37.2575 277.236 37.3796 278.844 37.9339C280.453 38.4882 281.887 39.4552 283.004 40.7383C284.121 42.0213 284.881 43.5753 285.209 45.2446C285.536 46.9139 285.419 48.64 284.87 50.2499Z" fill="#E4897B"/>
<path d="M290.47 38.5499C288.21 44.0099 293.47 39.4499 292.11 45.9299C291.23 50.1499 283.61 60.2599 280.67 59.3399C277.73 58.4199 277.76 51.2499 281.51 46.1799C283.67 43.2699 279 39.9699 268.51 40.3199C258.02 40.6699 251.68 34.7699 265.62 30.4399C265.62 30.4399 260.48 33.4399 263.53 34.4399C267.85 36.0499 295 27.6099 290.47 38.5499Z" fill="#263238"/>
<path d="M288.47 41.0499C288.36 41.0499 290.82 40.4399 292.13 36.0499C292.13 36.1199 291.7 42.5899 288.47 41.0499Z" fill="#263238"/>
<path d="M268.84 31.4099C262.39 33.4099 265.06 35.6599 267.73 36.2199L273.85 33.8199C264.55 35.0499 268.84 31.4099 268.84 31.4099Z" fill="#263238"/>
<path d="M286.11 58.8C284.769 60.1033 282.98 60.844 281.11 60.87C278.64 60.87 278.11 58.53 279.44 56.57C280.62 54.81 283.32 52.69 285.5 53.64C287.68 54.59 287.75 57.19 286.11 58.8Z" fill="#E4897B"/>
<path d="M273.48 49.8599C273.33 50.4399 272.9 50.8599 272.48 50.7599C272.06 50.6599 271.91 50.1299 272.06 49.5499C272.21 48.9699 272.64 48.5499 273.06 48.6599C273.48 48.7699 273.63 49.2799 273.48 49.8599Z" fill="#263238"/>
<path d="M266.88 48.4099C266.73 48.9899 266.3 49.4099 265.88 49.3099C265.46 49.2099 265.31 48.6899 265.46 48.1099C265.61 47.5299 266.03 47.11 266.46 47.21C266.89 47.31 267 47.8299 266.88 48.4099Z" fill="#263238"/>
<path d="M268.9 49.1599C267.763 50.779 266.418 52.2415 264.9 53.5099C265.234 53.881 265.645 54.1745 266.105 54.3697C266.564 54.5649 267.061 54.6571 267.56 54.6399L268.9 49.1599Z" fill="#DE5753"/>
<path d="M270 56.75C269.586 56.7495 269.173 56.7025 268.77 56.61C268.726 56.5981 268.687 56.5698 268.663 56.5308C268.639 56.4917 268.631 56.4449 268.64 56.4C268.652 56.3556 268.68 56.3174 268.719 56.2933C268.758 56.2691 268.805 56.2608 268.85 56.27C269.586 56.434 270.35 56.4292 271.085 56.256C271.819 56.0828 272.504 55.7457 273.09 55.27C273.124 55.2376 273.168 55.2195 273.215 55.2195C273.262 55.2195 273.306 55.2376 273.34 55.27C273.372 55.3035 273.39 55.3483 273.39 55.395C273.39 55.4416 273.372 55.4864 273.34 55.52C272.411 56.3193 271.225 56.7562 270 56.75Z" fill="#263238"/>
<path d="M276.1 48.19C276.032 48.1912 275.965 48.1718 275.908 48.1343C275.851 48.0969 275.806 48.0431 275.78 47.98C275.616 47.5788 275.358 47.2231 275.027 46.9429C274.696 46.6626 274.303 46.4661 273.88 46.37C273.834 46.3639 273.789 46.3486 273.749 46.3251C273.709 46.3016 273.674 46.2703 273.646 46.233C273.618 46.1958 273.598 46.1533 273.587 46.1082C273.575 46.063 273.573 46.016 273.58 45.97C273.595 45.8779 273.645 45.7952 273.72 45.7392C273.794 45.6833 273.888 45.6585 273.98 45.67C274.519 45.7798 275.023 46.0193 275.448 46.3679C275.873 46.7164 276.207 47.1633 276.42 47.67C276.44 47.7118 276.451 47.7572 276.452 47.8034C276.454 47.8497 276.446 47.8957 276.429 47.9388C276.412 47.9818 276.387 48.021 276.354 48.0539C276.322 48.0867 276.283 48.1127 276.24 48.13C276.198 48.16 276.151 48.1805 276.1 48.19Z" fill="#263238"/>
<path d="M264.65 45.54C264.57 45.5393 264.492 45.5111 264.43 45.46C264.358 45.3996 264.313 45.3135 264.303 45.2201C264.294 45.1267 264.322 45.0334 264.38 44.96C264.732 44.5216 265.181 44.1701 265.691 43.9326C266.2 43.695 266.758 43.5778 267.32 43.59C267.366 43.5937 267.411 43.6066 267.452 43.6278C267.493 43.6489 267.529 43.678 267.559 43.7134C267.589 43.7487 267.611 43.7895 267.625 43.8336C267.639 43.8776 267.644 43.924 267.64 43.97C267.638 44.0165 267.626 44.062 267.605 44.1037C267.584 44.1454 267.555 44.1824 267.52 44.2125C267.484 44.2425 267.442 44.2648 267.398 44.2782C267.353 44.2915 267.306 44.2955 267.26 44.29C266.81 44.2852 266.366 44.3837 265.96 44.5779C265.554 44.7721 265.198 45.0567 264.92 45.41C264.888 45.4508 264.847 45.4838 264.8 45.5063C264.753 45.5289 264.702 45.5404 264.65 45.54Z" fill="#263238"/>
<path d="M298.65 81.7C299.43 82.91 300.08 83.98 300.74 85.14C301.4 86.3 302.03 87.42 302.65 88.58C303.87 90.89 305.02 93.25 306.07 95.66C308.273 100.594 309.926 105.755 311 111.05L311.1 111.56L311.15 111.81L311.22 112.23C311.305 112.789 311.349 113.354 311.35 113.92C311.34 114.867 311.24 115.812 311.05 116.74C310.711 118.271 310.222 119.765 309.59 121.2C308.467 123.714 307.129 126.127 305.59 128.41C302.681 132.752 299.374 136.813 295.71 140.54L291.36 137.05C293.78 132.83 296.19 128.45 298.21 124.16C299.203 122.108 300.052 119.99 300.75 117.82C301.035 116.915 301.23 115.984 301.33 115.04C301.365 114.731 301.365 114.419 301.33 114.11C301.33 114.02 301.33 113.94 301.27 113.93C301.21 113.92 301.27 113.93 301.27 113.88L301.21 113.68L301.09 113.27C300.458 111.064 299.707 108.894 298.84 106.77C297.96 104.6 296.98 102.44 295.95 100.29C294.92 98.14 293.81 96.02 292.67 93.9C292.11 92.84 291.52 91.79 290.93 90.75L289.17 87.75L298.65 81.7Z" fill="#E4897B"/>
<path d="M275.66 330.05C275.161 330.1 274.661 329.961 274.26 329.66C274.147 329.535 274.068 329.383 274.029 329.218C273.991 329.054 273.994 328.882 274.04 328.72C274.062 328.611 274.111 328.508 274.183 328.423C274.254 328.337 274.346 328.271 274.45 328.23C275.36 327.87 277.45 329.31 277.69 329.47C277.72 329.488 277.743 329.516 277.755 329.548C277.768 329.581 277.77 329.616 277.76 329.65C277.755 329.684 277.74 329.715 277.717 329.74C277.693 329.765 277.663 329.782 277.63 329.79C276.984 329.945 276.324 330.032 275.66 330.05ZM274.79 328.52C274.721 328.509 274.65 328.509 274.58 328.52C274.529 328.538 274.484 328.57 274.451 328.613C274.417 328.655 274.396 328.706 274.39 328.76C274.354 328.865 274.346 328.977 274.367 329.086C274.388 329.195 274.437 329.296 274.51 329.38C274.85 329.72 275.82 329.76 277.15 329.5C276.443 329.009 275.638 328.679 274.79 328.53V328.52Z" fill="white"/>
<path d="M277.59 329.8H277.5C276.76 329.36 275.66 327.8 275.83 327C275.86 326.853 275.938 326.721 276.052 326.625C276.167 326.528 276.311 326.474 276.46 326.47C276.592 326.453 276.726 326.466 276.852 326.507C276.979 326.549 277.094 326.618 277.19 326.71C277.94 327.44 277.77 329.57 277.77 329.66C277.766 329.69 277.755 329.718 277.738 329.743C277.72 329.767 277.697 329.787 277.67 329.8H277.59ZM276.59 326.8H276.51C276.26 326.8 276.2 326.95 276.18 327.05C276.07 327.58 276.8 328.75 277.44 329.29C277.532 328.479 277.364 327.659 276.96 326.95C276.91 326.901 276.85 326.863 276.785 326.837C276.72 326.811 276.65 326.799 276.58 326.8H276.59Z" fill="white"/>
<path d="M293.92 325.85C293.735 325.855 293.551 325.821 293.38 325.75C293.248 325.697 293.131 325.613 293.039 325.505C292.947 325.397 292.882 325.268 292.85 325.13C292.825 325.046 292.821 324.956 292.841 324.87C292.86 324.785 292.901 324.705 292.96 324.64C293.63 323.83 297.14 324.07 297.54 324.1C297.577 324.101 297.613 324.114 297.642 324.138C297.671 324.161 297.691 324.194 297.7 324.23C297.708 324.266 297.704 324.304 297.69 324.338C297.676 324.371 297.651 324.4 297.62 324.42C296.503 325.156 295.242 325.644 293.92 325.85ZM296.04 324.39C294.81 324.39 293.52 324.51 293.23 324.86C293.213 324.887 293.204 324.918 293.204 324.95C293.204 324.982 293.213 325.013 293.23 325.04C293.247 325.126 293.285 325.207 293.341 325.275C293.397 325.344 293.468 325.397 293.55 325.43C294.11 325.66 295.37 325.28 296.96 324.43L296.04 324.39Z" fill="white"/>
<path d="M297.53 324.45C296.53 324.45 294.28 323.68 294.11 322.88C294.11 322.68 294.11 322.4 294.59 322.17C296.31 321.36 297.64 324.08 297.7 324.17C297.712 324.198 297.718 324.229 297.718 324.26C297.718 324.291 297.712 324.322 297.7 324.35C297.684 324.381 297.659 324.406 297.629 324.424C297.599 324.441 297.565 324.45 297.53 324.45ZM295.22 322.38C295.05 322.378 294.883 322.416 294.73 322.49C294.52 322.59 294.42 322.7 294.44 322.8C294.54 323.27 296.16 323.93 297.22 324.07C296.9 323.53 296.13 322.38 295.22 322.38Z" fill="white"/>
<path d="M293.34 135.43L286 134.14L289.79 142.69C289.79 142.69 296.52 142.69 296.22 139.17L293.34 135.43Z" fill="#E4897B"/>
<path d="M280.45 138.43L283.92 145.34L289.75 142.68L285.96 134.14L280.45 138.43Z" fill="#E4897B"/>
<path d="M301.43 308.7L290.36 319.13L286.79 315.3L299.46 303.76L301.43 308.7Z" fill="#0077C8"/>
<path opacity="0.6" d="M301.43 308.7L290.36 319.13L286.79 315.3L299.46 303.76L301.43 308.7Z" fill="white"/>
<path d="M289.15 319.17H274.48L273.67 314.02L289.86 314.82L289.15 319.17Z" fill="#0077C8"/>
<path opacity="0.6" d="M289.15 319.17H274.48L273.67 314.02L289.86 314.82L289.15 319.17Z" fill="white"/>
<path d="M296.73 76.5899C303.73 77.5899 310.9 101.91 310.9 101.91L295.9 110.23C295.9 110.23 289.81 98.6699 286.9 90.0899C283.85 81.0999 289.24 75.4899 296.73 76.5899Z" fill="#0077C8"/>
<path opacity="0.7" d="M296.73 76.5899C303.73 77.5899 310.9 101.91 310.9 101.91L295.9 110.23C295.9 110.23 289.81 98.6699 286.9 90.0899C283.85 81.0999 289.24 75.4899 296.73 76.5899Z" fill="white"/>
<path opacity="0.2" d="M271.56 79.3999L268.56 82.5899L270.03 85.6699L272.42 85.7799L274.46 82.8399L271.56 79.3999Z" fill="black"/>
<path d="M270.29 85.12C270.29 85.12 264.6 108.69 264.38 113.59C264.07 120.33 266.89 131.84 266.89 131.84C266.89 131.84 270.89 122.27 271.71 113.38C272.53 104.49 271.92 90.11 272.29 85.12H270.29Z" fill="#0077C8"/>
<path opacity="0.2" d="M270.29 85.12C270.29 85.12 264.6 108.69 264.38 113.59C264.07 120.33 266.89 131.84 266.89 131.84C266.89 131.84 270.89 122.27 271.71 113.38C272.53 104.49 271.92 90.11 272.29 85.12H270.29Z" fill="black"/>
<path d="M271.56 79.4C272.7 81.2447 273.36 83.3451 273.48 85.51C273.48 85.51 285.96 81.11 285.37 74.66C285.37 74.66 283.6 73.61 282.48 72.76C282.48 72.76 282.06 76.82 271.56 79.4Z" fill="#0077C8"/>
<path opacity="0.6" d="M271.56 79.4C272.7 81.2447 273.36 83.3451 273.48 85.51C273.48 85.51 285.96 81.11 285.37 74.66C285.37 74.66 283.6 73.61 282.48 72.76C282.48 72.76 282.06 76.82 271.56 79.4Z" fill="white"/>
<path d="M271.56 79.3999C270.413 81.1463 269.587 83.0833 269.12 85.1199C269.12 85.1199 263.47 81.2999 265.17 74.9299C266.205 74.5127 267.272 74.1783 268.36 73.9299C268.36 73.9299 267.62 78.0499 271.56 79.3999Z" fill="#0077C8"/>
<path opacity="0.6" d="M271.56 79.3999C270.413 81.1463 269.587 83.0833 269.12 85.1199C269.12 85.1199 263.47 81.2999 265.17 74.9299C266.205 74.5127 267.272 74.1783 268.36 73.9299C268.36 73.9299 267.62 78.0499 271.56 79.3999Z" fill="white"/>
</g>
<defs>
<clipPath id="clip0_115_9">
<rect width="379" height="337" fill="white"/>
</clipPath>
</defs>
</svg>
