<svg width="498" height="498" viewBox="0 0 498 498" fill="none" xmlns="http://www.w3.org/2000/svg">
<circle cx="249" cy="249" r="249" fill="#D80027"/>
<path d="M238.008 205.475L258.581 232.409L290.555 221.166L271.296 249.055L291.869 275.99L259.394 266.292L240.135 294.182L239.323 260.299L206.847 250.601L238.82 239.358L238.008 205.475Z" fill="white"/>
<path fill-rule="evenodd" clip-rule="evenodd" d="M209.209 178.707C201.05 175.664 192.219 174 183 174C141.579 174 108 207.579 108 249C108 290.421 141.579 324 183 324C192.219 324 201.05 322.336 209.209 319.293C193.807 331.625 174.265 339 153 339C103.294 339 63 298.706 63 249C63 199.294 103.294 159 153 159C174.265 159 193.807 166.375 209.209 178.707Z" fill="white"/>
</svg>
