<svg width="117" height="82" viewBox="0 0 117 82" fill="none" xmlns="http://www.w3.org/2000/svg">
<path d="M40.5 55L36 77L0 70.5L9.5 51L40.5 55Z" fill="#E1DBD4"/>
<path d="M87.5 71.5L36 77L40.5 55L81.5 51.5L87.5 71.5Z" fill="#656158"/>
<path d="M9.5 51L40.5 55L81.5 51.5L70 46L9.5 51Z" fill="#C3C4C4"/>
<path d="M81 59L75 82L13.5 12.5L28.5 2L81 59Z" fill="#FEE8BC"/>
<path d="M81 59L75 82L117 74.5V54L81 59Z" fill="#C5994D"/>
<path d="M28.5 2L81 59L117 54L68 0L28.5 2Z" fill="#F2BC68"/>
<path d="M102 50.5L88 52.5L87 50L100.5 48L102 50.5Z" fill="#C5994D"/>
</svg>
