<svg width="223" height="146" viewBox="0 0 223 146" fill="none" xmlns="http://www.w3.org/2000/svg">
<rect width="223" height="146" rx="14" fill="#0F711F"/>
<mask id="mask0_129_1325" style="mask-type:alpha" maskUnits="userSpaceOnUse" x="0" y="0" width="220" height="144">
<rect width="220" height="144" rx="14" fill="#0190C4"/>
</mask>
<g mask="url(#mask0_129_1325)">
<rect width="220" height="144" rx="14" fill="#1DD53B"/>
<path d="M197.518 1.61023C190.933 6.08206 189.963 6.18072 180.649 2.90039C172.112 0.00654161 172.015 0.00671208 163.581 1.18508C156.795 2.16663 154.759 2.17021 153.594 1.20264C152.72 0.428481 150.974 0.237626 149.036 0.628882C147.291 1.0198 141.28 1.41821 135.657 1.62202C127.997 1.82941 124.217 2.41783 120.341 3.97604C113.656 6.79969 111.813 6.70596 106.571 3.22455C95.0191 -4.41514 93.5805 4.60485 104.844 13.7964C107.563 16.0218 110.475 17.762 111.251 17.7606C112.123 17.7591 115.611 16.0076 119.098 13.9653C126.847 9.29751 132.565 7.6391 137.996 8.50221C147.404 10.134 147.797 13.1392 138.489 13.3494C131.605 13.5555 127.245 15.3085 124.149 19.2893C120.183 24.3383 120.288 29.0893 124.465 33.5422C128.74 38.0919 137.658 36.6218 139.975 31.0909C142.292 25.56 138.6 21.2032 136.088 26.3466C133.866 30.7138 129.697 31.2059 128.43 27.3297C127.552 24.5193 129.487 21.9949 133.75 20.2421C141.502 17.1257 144.122 18.6724 145.98 27.3958C147.545 35.15 146.869 36.5086 140.085 38.4598C134.949 40.0202 132.819 41.9632 132.825 45.2599C132.828 47.0052 135.834 47.2908 137.286 45.8338C137.867 45.251 139.708 44.4721 141.355 43.9844C143.875 43.2043 144.651 43.3968 145.332 44.6561C146.597 47.1749 147.499 64.2386 146.336 64.2407C145.269 64.2426 125.164 44.8855 101.852 21.5587C87.962 7.62055 85.5348 5.78254 82.6278 6.85424C81.6587 7.14683 73.3312 13.561 64.1328 20.9462C52.4172 30.4691 46.8002 34.3575 45.3454 34.1661C41.5629 33.591 42.4321 31.6502 48.243 27.7615C53.6662 23.9705 56.4734 21.2506 62.1808 13.6775C64.019 11.3472 66.3432 9.69476 69.7349 8.62222C75.5492 6.67276 76.3232 5.70178 73.9917 3.18486C72.0487 1.05512 67.7819 0.771731 62.8399 2.52573C57.0256 4.4752 54.3151 7.00097 53.1594 11.4633C51.8117 16.9925 47.5542 22.042 42.129 24.6695C38.3507 26.5184 37.4782 26.6169 35.1491 25.4574C29.3266 22.7527 30.1834 13.7338 36.384 10.911C39.5812 9.45093 40.8448 11.194 39.3972 15.075C38.0457 18.4711 38.7256 19.1486 42.0201 17.8823C45.4115 16.6159 46.9559 12.6377 45.3979 8.85893C42.769 2.65798 35.5951 3.34933 28.82 10.3425C26.3036 12.9649 23.7858 14.8116 23.2036 14.5217C22.7182 14.2317 22.3256 11.5175 22.5144 8.60827C22.6046 4.72963 22.3108 3.0818 21.243 2.40494C19.1075 1.05123 18.4291 1.24634 15.9129 3.9657L13.5902 6.4908L10.9687 4.4592C6.0168 0.589431 1.4642 3.21541 5.6414 7.66832C8.167 10.2818 8.16854 11.1545 5.93842 11.1584C2.83564 11.1639 0.609617 13.4949 1.38957 15.9176C1.97492 17.9527 2.46007 18.1458 6.82232 17.5564C12.7356 16.7703 12.9316 17.9335 7.70418 22.7908C4.31615 25.9965 3.83288 26.87 3.83987 30.8454C3.85197 37.7297 8.12323 40.5341 14.9066 38.292C17.3293 37.5121 18.5879 36.4433 18.9727 34.6973C19.7433 31.7871 17.9941 29.56 16.2518 31.3084C14.4128 33.1539 11.794 32.6737 11.0142 30.348C9.45427 25.5026 18.5639 22.7717 23.6129 26.7382C25.5548 28.2862 26.1388 29.5457 26.1443 32.6485C26.1503 36.0421 25.5705 37.2067 22.4729 40.121C20.4401 42.0638 15.9845 44.6896 12.5932 46.053C6.58565 48.3907 6.19848 48.7792 3.10611 54.6993C-0.275449 61.5896 -0.754974 64.5962 1.47838 66.4346C3.61478 68.2731 7.48779 65.1635 10.8709 59.1459C12.9004 55.3608 14.546 53.8066 18.8086 51.6659C21.8117 50.1092 26.0724 46.902 28.2984 44.571C32.8471 39.7149 34.3007 39.2275 35.8572 42.1337C37.1219 44.5555 36.1542 45.6238 19.2109 59.907C13.0146 65.1538 7.59396 70.3993 7.20816 71.5635C6.53352 73.8918 11.1962 78.7317 27.9953 92.7616C36.7348 100.115 37.8038 101.471 35.9654 103.704C34.2238 105.841 33.6416 105.551 29.3676 101.195C27.3275 98.9684 23.0557 95.8731 19.8529 94.1334C15.1945 91.7176 13.6405 90.2659 11.4029 86.0035C4.399 73.1198 -2.96208 77.69 3.75129 90.7681C6.18402 95.7088 6.96074 96.2892 15.1127 100.347C22.3913 104.019 24.1388 105.277 25.5987 108.377C26.7661 110.605 27.255 112.931 26.8699 114.483C25.2327 120.789 17.6732 122.838 13.0109 118.192C10.7769 115.966 10.6792 115.578 12.0341 114.121C13.3894 112.858 14.0679 112.76 16.203 113.823C18.3378 114.789 19.0164 114.691 19.5964 113.72C20.7567 111.876 20.6591 111.488 18.6185 108.971C17.1608 107.131 15.8025 106.649 12.3119 106.655C6.49417 106.665 4.46156 108.705 4.47195 114.619C4.47894 118.595 4.86815 119.37 8.75259 122.757C13.6083 127.111 13.3209 129.051 7.88829 127.509C4.20187 126.449 2.07075 127.617 2.07604 130.622C2.07808 131.786 3.14654 132.851 4.98983 133.429C8.28858 134.587 8.38622 134.975 6.45159 137.596C2.77557 142.451 6.94969 145.158 11.4994 140.884L13.7258 138.747L16.4453 141.36C17.9992 142.812 19.6496 143.972 20.3284 143.971C22.2676 143.968 23.6181 139.99 23.0296 136.209C22.6374 133.689 22.8287 132.234 23.797 131.457C24.8619 130.485 25.7354 130.969 27.8735 133.777C30.692 137.553 36.6128 141.034 39.9095 141.028C42.6244 141.023 46.6895 136.846 46.6845 134.035C46.6786 130.641 44.055 127.446 41.1461 127.451C39.2069 127.454 38.8196 127.746 39.4037 129.102C41.7405 134.625 38.739 137.054 34.5623 132.892C31.4541 129.795 31.2499 123.978 34.0563 120.87C36.476 118.345 38.0272 118.245 42.394 120.274C46.9551 122.496 52.2018 128.595 53.4707 133.344C54.0562 135.476 55.7097 138.382 57.0693 139.64C60.4686 142.834 68.9085 145.243 72.203 143.977C77.3384 141.932 76.2664 138.831 69.7665 136.903C66.7592 136.035 64.623 134.294 60.5414 129.065C57.5291 125.386 52.5753 120.45 49.4681 117.934C46.2641 115.516 43.7387 112.999 43.7373 112.223C43.7321 109.218 48.4868 111.245 55.3816 117.245C59.3632 120.729 65.1891 125.372 68.2959 127.694C85.7714 140.365 86.6452 141.043 88.4865 140.458C89.4556 140.165 95.0694 134.531 100.876 128.025C117.037 109.961 147.236 80.1409 148.305 81.2056C148.791 81.7865 149.476 85.3729 149.773 89.2508C150.563 97.3943 149.789 98.2683 143.483 96.2432C135.916 93.7355 135.927 100.135 143.497 104C148.349 106.416 149.419 108.353 149.43 114.655C149.437 118.631 148.955 120.086 147.019 121.932C142.954 126.108 133.062 124.865 130.823 120.021C129.947 117.986 130.042 117.308 131.494 115.657C134.204 112.646 136.822 113.126 136.829 116.617C136.834 119.72 138.386 120.299 141.777 118.547C144.392 117.088 144.095 113.113 141.181 110.307C139.335 108.371 137.88 107.888 133.904 107.895C129.735 107.903 128.572 108.39 125.571 111.11C119.666 116.55 121.134 124.014 129.093 128.654C131.325 130.007 134.72 130.68 140.441 130.961C144.902 131.244 148.782 131.819 149.073 132.206C149.949 133.756 142.487 136.193 136.766 136.3C132.403 136.308 129.784 135.634 123.767 132.832C119.691 130.803 115.422 129.26 114.356 129.261C113.289 129.263 109.512 131.597 105.929 134.318C102.249 137.137 98.4727 139.955 97.5041 140.539C95.0826 141.997 96.445 144.807 99.5478 144.801C101.002 144.799 104.006 143.436 106.33 141.881C111.463 138.381 113.499 138.28 121.746 141.369C128.732 143.974 134.065 144.353 141.626 142.691C145.406 141.909 146.957 142.003 149.189 143.066C150.839 143.936 152.585 144.126 153.844 143.639C154.91 143.25 160.146 142.853 165.478 142.746C173.138 142.733 176.628 142.145 181.958 140.293C185.737 138.929 189.419 137.856 190.292 137.855C191.068 137.853 193.591 139.206 195.824 140.851C200.678 144.43 205.042 144.422 205.52 140.931C205.712 139.379 204.253 137.151 200.368 133.086C193.471 125.826 191.336 125.248 185.525 129.039C175.259 135.651 167.505 137.41 160.229 134.902C155.571 133.261 156.343 131.127 161.676 131.117C172.633 131.098 180.091 126.334 181.144 118.575C181.622 115.084 181.33 114.309 178.222 111.211C173.851 106.856 169.196 106.573 165.034 110.556C161.549 113.762 160.681 116.575 162.334 118.996C163.889 121.03 165.633 120.251 166.887 116.952C168.625 112.489 175.61 114.9 174.164 119.46C173.199 122.371 168.066 125.289 163.799 125.296C159.242 125.304 157.298 122.689 156.315 115.225C155.431 108.633 156.205 107.274 161.341 105.811C166.865 104.347 169.771 102.403 169.766 99.9785C169.762 97.3605 167.434 96.6859 164.528 98.6302C163.269 99.5051 160.943 100.091 159.391 99.8997L156.676 99.6136L155.98 89.9187C155.583 84.6834 155.478 80.1264 155.672 79.9321C155.865 79.7379 157.321 80.511 158.777 81.672C162.273 84.3808 186.461 109.839 195.303 120.102C199.092 124.555 205.211 130.556 208.901 133.459C218.805 141.295 218.708 141.295 237.104 126.331C255.21 111.658 258.6 109.422 259.961 111.552C260.739 112.618 260.256 113.588 257.835 115.435C254.543 118.058 246.219 126.218 240.606 132.53C238.38 135.055 235.862 136.708 233.342 137.294C230.144 138.075 229.466 138.658 229.47 140.695C229.476 144.379 233.453 145.342 240.043 143.294C245.857 141.441 249.729 137.653 250.788 132.997C251.076 131.445 252.913 128.436 254.848 126.203C260.944 119.017 267.05 117.358 270.548 121.812C273.269 125.298 273.082 129.079 270.179 132.284C267.566 135.101 263.106 135.496 263.78 132.877C265.129 127.639 265.031 127.057 263.188 127.061C260.473 127.065 257.764 130.464 257.77 133.857C257.786 142.875 269.713 142.854 276.29 133.825C277.548 132.174 279.097 131.008 279.679 131.201C280.358 131.394 281.042 134.107 281.338 137.307C281.735 142.154 282.124 143.026 283.87 143.314C284.937 143.506 286.584 142.727 287.648 141.562C289.874 139.134 291.232 139.131 293.466 141.552C294.437 142.616 296.087 143.486 297.057 143.485C299.869 143.48 300.252 140.764 297.823 138.15C295.492 135.633 295.876 133.79 298.785 133.785C301.209 133.781 302.756 130.869 301.491 128.642C300.713 127.188 299.84 126.996 296.253 127.584C292.861 128.075 291.988 127.883 291.986 126.816C291.984 126.04 293.146 124.778 294.502 124.097C299.636 121.276 301.559 112.352 297.771 108.577C293.692 104.512 284.194 107.049 284.203 112.091C284.207 114.419 284.401 114.515 288.085 113.927C291.186 113.437 292.059 113.629 292.546 114.792C294.007 118.571 286.354 122.463 282.084 120.143C274.32 115.987 276.533 106.287 286.317 101.422C289.127 100.06 291.84 98.8912 292.518 98.89C296.397 98.8832 303.553 88.1078 303.542 82.0962C303.532 76.2785 296.845 78.1325 293.463 84.9258C290.565 90.6517 289.306 91.9144 283.687 94.5422C280.975 95.9045 276.907 98.9175 274.682 101.345C270.617 105.619 268.484 106.107 267.316 103.104C266.634 101.36 270.312 97.5716 284.931 85.0378C290.449 80.2769 295.386 75.3232 296.062 73.9645C297.125 71.6356 296.833 71.1513 290.423 65.2479C286.636 61.8609 280.032 56.2487 275.663 52.7657C267.118 46.0904 265.465 43.4753 267.982 40.9499C269.434 39.4929 269.919 39.7829 274.485 44.526C277.205 47.3332 281.574 50.6222 284.388 51.9747C288.658 53.9064 289.823 55.0679 292.256 59.7178C295.174 65.2395 298.281 67.6581 300.994 66.5868C303.32 65.6131 302.922 60.1839 300.003 54.3713C297.571 49.6244 296.891 49.0439 290.001 45.9532C281.462 41.9928 278.743 39.7674 277.28 35.3097C274.454 26.976 284.624 20.9465 290.841 27.1411C292.492 28.7865 292.59 29.4651 291.72 31.115C291.044 32.4736 290.172 32.863 289.105 32.477C284.738 30.6424 284.06 30.7406 284.064 33.1646C284.07 36.6553 286.983 38.7833 291.637 38.7751C295.903 38.7676 298.227 37.1152 299.19 33.332C300.153 29.5488 298.693 26.0607 294.614 22.3833C292.574 20.4477 290.826 18.5115 290.825 18.1237C290.824 17.7358 293.151 17.5378 295.963 17.6298C301.006 17.9118 301.006 17.9118 301 15.003C300.997 12.8698 300.51 11.998 299.056 11.8067C295.758 11.1337 295.271 9.97103 297.496 7.15522C299.334 4.72794 299.43 4.33992 298.167 2.98467C296.808 1.72656 296.323 1.72741 293.805 3.67108C290.222 6.29535 288.671 6.39504 287.115 3.87676C285.56 1.35849 282.457 1.36394 281.104 3.88733C280.524 4.95493 280.431 7.47611 280.726 9.60875C281.216 12.8076 281.024 13.6806 279.667 14.1678C278.602 14.6545 277.243 13.7842 275.105 11.267C269.761 4.77993 262.582 2.95027 258.808 7.02931C255.034 11.1084 257.665 18.4728 262.804 18.4638C264.452 18.4609 264.742 18.0725 264.254 16.2311C262.986 12.161 263.179 11.191 265.311 10.8964C270.255 10.2089 273.373 19.027 269.892 24.0751C265.83 29.997 253.017 22.4564 250.188 12.4743C248.627 7.04721 246.102 4.53064 240.474 2.50433C234.847 0.574983 232.326 0.676377 229.615 2.91127C227.582 4.5632 227.486 4.95121 228.748 6.2095C229.525 6.88687 232.243 8.23956 234.668 9.20491C238.161 10.4593 239.909 12.0076 243.117 16.5592C245.547 19.9486 249.724 24.1106 253.51 26.7219C259.529 30.9777 260.987 33.1083 258.856 34.4695C257.307 35.4418 252.938 32.5406 242.839 23.7348C237.498 19.0901 230.701 13.7691 227.789 11.9319C224.877 10.0948 220.993 7.28972 219.245 5.7414C216.72 3.61267 215.653 3.2267 214.297 4.00478C213.231 4.49146 207.714 10.028 202.005 16.3406C188.456 31.0056 156.223 62.7689 154.769 62.7714C153.605 62.7735 152.034 51.2378 152.901 48.4243C153.287 46.9692 153.965 46.7741 155.905 47.2555C162.792 48.8918 164.829 48.9851 164.826 47.2398C164.82 44.331 162.877 41.9104 158.995 39.9779C154.434 37.6589 153.17 35.6249 153.16 30.292C153.151 24.8621 155.374 20.8828 158.863 20.101C163.322 19.1235 168.463 20.4719 170.601 23.1831C173.03 26.2816 173.032 26.8634 170.612 29.2917C168.095 31.8171 165.766 30.8516 165.76 27.264C165.755 24.2582 164.202 23.6792 160.812 25.4304C158.196 26.8895 158.398 31.3494 161.312 34.0592C162.769 35.4141 165.388 36.4761 167.91 36.7625C173.244 37.3349 178.183 34.2234 180.114 29.0811C182.14 23.7446 179.514 18.9981 172.43 15.4229C167.965 13.1037 166.219 12.7189 160.887 13.0192C155.748 13.2221 154.584 13.0303 154.291 11.7703C154.095 10.6071 155.258 9.82933 158.359 8.95122C164.852 7.19449 172.029 8.05453 179.986 11.7251C188.235 15.4921 189.398 15.3931 196.951 9.65907C200.05 7.32654 203.439 4.79957 204.601 3.92487C207.312 2.07782 206.435 -0.829496 203.332 -0.824041C202.071 -0.821825 199.455 0.249356 197.518 1.61023ZM218.966 12.6262C219.743 13.1096 220.62 15.6291 220.915 18.1496L221.505 22.8027L229.071 24.3408C233.242 25.2061 237.802 26.8465 239.258 27.9105C242.074 30.0387 243.341 33.915 241.209 34.1126C240.53 34.2108 237.136 34.3137 233.743 34.3197C225.308 34.6254 224.147 36.1788 223.393 48.5913C222.825 56.2523 223.022 58.3851 224.385 61.0977C226.622 65.36 232.444 67.8708 240.298 67.954C250.673 67.9357 255.903 64.339 254.631 57.9417C253.751 53.8708 251.323 51.4511 248.026 51.4569C244.827 51.4625 243.473 53.7919 245.126 56.407C247.849 60.6686 245.138 63.0974 240.576 60.6813C237.18 59.039 234.553 53.7107 235.322 50.4126C237.826 40.2272 250.426 37.781 257.713 46.1069C260.045 48.6238 260.824 50.6587 261.316 55.0211C262.007 61.9042 263.662 65.3919 266.377 65.775C268.123 66.0628 268.607 65.4802 269.184 62.5703C269.952 58.2056 273.341 55.5817 276.252 57.225C278.582 58.3844 278.779 60.6142 276.846 64.0112C274.816 67.6024 275.01 67.796 280.053 68.078C284.32 68.3614 284.611 68.5548 284.907 71.2692C285.398 75.1468 282.977 76.7994 278.031 75.9355L274.248 75.3604L274.935 79.9164C275.719 84.957 274.56 87.2861 271.166 87.2921C267.094 87.2993 266.316 85.8462 266.498 79.0585C266.778 72.8525 266.68 72.6587 264.548 72.9534C262.512 73.2478 262.222 73.9271 261.653 81.2972C261.273 85.7581 260.507 90.8984 259.928 92.7417C258.578 96.9135 254.027 100.412 248.115 101.974C244.142 103.047 243.075 103.049 240.067 101.6C235.797 99.5715 232.783 94.8257 232.774 89.9776C232.769 86.9718 233.445 85.5161 236.058 82.8936C239.64 79.2997 241.578 78.8115 243.424 81.0384C244.493 82.297 244.398 83.1698 243.142 85.79C241.403 89.4776 241.792 90.2526 245.089 90.2468C248.676 90.2405 253.035 87.5179 253.709 84.9957C255.538 77.6234 251.361 73.2674 242.926 73.4762C231.194 73.7877 226.74 77.2862 226.175 86.8864C225.61 96.3897 226.686 101.721 229.989 105.012C232.611 107.625 233.096 107.818 238.428 107.13C251.031 105.75 245.132 115.069 232.337 116.934C225.26 118.013 224.292 118.79 223.912 123.445C223.63 128.003 221.306 130.237 218.588 128.496C217.035 127.53 216.159 125.592 214.986 120.067C214.4 117.741 213.915 117.451 210.424 117.457C206.158 117.465 200.336 114.954 197.421 111.662C194.798 108.758 196.639 107.785 205.656 107.769C214.867 107.753 216.804 106.489 218.15 99.9904C220.747 87.5747 218.306 78.2706 211.513 74.8889C206.854 72.473 203.558 72.3819 199.295 74.4256C193.966 76.9559 191.268 86.463 194.573 91.1113C196.323 93.6293 200.881 94.0091 202.816 91.6786C203.783 90.4164 203.685 89.6409 202.226 87.2194C200.573 84.3134 200.572 84.1195 202.219 82.8561C204.736 81.1064 205.124 81.2026 207.942 84.5914C212.703 90.2068 210.68 97.5795 203.607 100.404C198.084 102.644 193.623 102.361 190.419 99.6513C187.797 97.4258 187.699 96.9411 187.586 87.7299C187.368 74.3496 187.466 74.8342 184.945 74.8386C181.455 74.8448 180.391 76.6889 180.403 83.0884C180.414 89.4879 179.35 91.332 175.86 91.3381C173.048 91.3431 171.686 88.7275 171.676 83.2007L171.668 78.7405L167.596 78.7476C158.094 78.7643 157.012 70.2336 166.512 69.1503C171.456 68.5598 171.843 67.8804 170.379 62.1622C169.988 60.6115 170.276 58.9627 171.147 57.7976C172.984 55.1764 175.314 56.8206 178.525 62.8266C180.47 66.5078 181.539 67.5725 183.381 67.5692C186.581 67.5636 186.962 63.7814 184.429 57.0955C182.189 51.0878 182.67 49.1477 187.608 45.0666C193.417 40.2083 202.14 38.4477 206.121 41.3495C210.878 44.6379 212.833 53.458 209.64 57.439C207.414 60.0609 202.373 60.3607 199.945 57.9409C198.391 56.4892 198.487 56.1981 201.198 53.9632C203.619 52.0197 203.908 51.3405 203.033 49.8876C201.283 47.0788 196.338 47.0875 193.434 50.0014C186.562 56.8978 195.504 68.9054 206.36 67.2379C210.917 66.6482 214.013 62.8612 215.262 56.6534C216.512 50.6396 215.719 40.8478 213.676 36.876C212.119 33.7759 209.985 33.101 200.968 33.1168C193.405 33.1301 191.754 32.1634 194.464 29.0558C197.174 26.1422 200.662 24.5847 206.284 23.7991C209.677 23.4053 211.421 22.6265 211.71 21.5594C211.902 20.6865 212.384 18.7464 212.769 17.0973C213.827 12.1504 215.957 10.6922 218.966 12.6262ZM85.0723 18.4854C85.5588 19.4541 86.2416 21.78 86.6329 23.7186C87.2208 27.2082 87.4149 27.3048 92.555 27.9745C98.083 28.6435 106.139 33.3805 105.367 35.515C105.175 36.291 102.364 36.7808 97.8068 36.9827C87.7233 37.2913 86.7544 37.6809 84.8223 41.7567C82.5039 46.7058 82.4298 59.6989 84.7647 64.155C87.0023 68.4174 91.6613 71.1241 96.8002 71.1151C101.842 71.1063 105.523 68.8697 107.261 64.6003C110.254 57.6137 107.917 51.7032 102.293 51.7131C98.4145 51.7199 96.7714 54.7286 99.2972 57.4391C101.337 59.7626 101.243 61.1202 98.8211 62.385C96.4962 63.6496 94.6521 62.5862 92.5116 58.4206C90.5657 54.6425 90.754 51.4425 93.2696 48.3353C97.6231 42.8008 106.541 41.3307 111.202 45.2979C113.824 47.6204 113.922 47.9111 114.036 57.7041C114.058 70.2121 114.058 70.1152 116.191 70.1114C119.488 70.1056 121.13 66.9999 121.41 60.406C121.69 54.3939 121.787 54.1028 124.307 53.8075C127.7 53.4137 129.936 56.7065 129.945 62.0394L129.953 66.2087L133.734 66.2021C138.097 66.1944 140.622 68.1292 140.628 71.6198C140.633 74.2378 137.63 75.8914 132.782 75.9L129.873 75.9051L130.463 81.043C131.643 90.1554 127.087 90.5512 122.805 81.6383C121.248 78.4412 120.179 77.2796 118.239 77.0891C114.845 76.7072 114.073 78.8417 116.021 83.9773C118.749 91.2446 118.851 94.1533 116.335 96.9696C113.432 100.078 105.197 104.067 101.609 104.074C97.5369 104.081 93.5572 101.664 92.0967 98.1758C88.9806 90.6182 91.6846 84.4079 97.7941 84.882C101.285 85.1667 104.491 88.3608 102.262 89.2374C101.681 89.4323 100.421 90.2103 99.453 90.8907C96.7416 92.9317 99.0747 96.3212 103.341 96.3137C107.995 96.3055 110.994 92.3248 110.306 87.284C108.636 74.7789 89.3386 73.6492 86.9359 85.7737C85.8789 91.2054 86.3829 102.161 87.7464 105.553C89.5963 109.913 91.8281 110.878 100.361 110.863C104.336 110.856 107.925 111.335 108.216 111.819C109.772 114.337 101.346 119.588 95.7219 119.598C91.7465 119.605 89.3262 121.742 89.332 125.039C89.3387 128.821 87.5976 131.248 84.8827 131.252C82.2647 131.257 80.6112 128.351 80.6027 123.503C80.5981 120.885 80.3071 120.789 74.0995 119.636C66.0493 118.293 59.9344 114.716 60.4137 111.612C60.7012 109.672 61.1857 109.478 66.2282 109.76C73.4042 110.232 75.633 109.452 77.1779 105.765C79.3986 100.428 79.9594 88.5009 78.3041 84.5284C73.4357 72.9985 45.6103 74.5018 47.9578 86.1331C48.9359 90.9795 54.0812 94.5581 57.2774 92.5162C58.4396 91.7385 58.4385 91.1567 57.4638 88.2496C56.7817 86.3115 56.4874 84.3728 56.7772 83.7905C58.9042 80.2962 66.9626 86.2936 66.9717 91.4326C66.9872 100.256 58.7541 105.216 50.3118 101.449C44.2954 98.7446 42.7403 96.6142 41.271 88.1811C40.585 84.0129 39.3175 80.0397 38.6374 79.2652C36.5976 77.2326 34.2731 78.6911 33.6008 82.3769C32.8323 86.4506 30.896 88.1024 27.5979 87.3325C24.8818 86.6585 24.8814 86.4646 26.8069 78.6073C27.4808 75.8912 27.3837 75.7944 23.9912 76.4791C18.5631 77.4582 15.5501 73.3911 19.1314 69.7972C20.2927 68.5347 21.6498 68.3384 24.5594 68.7211L28.439 69.393L27.8489 64.6429C27.1606 59.2143 28.1275 57.6612 32.1029 57.6542C35.6905 57.6479 36.3716 59.0041 36.3836 65.7915C36.3938 71.6092 37.1717 72.8683 39.69 71.3125C40.6584 70.632 41.3318 67.625 41.7086 61.3218C42.0856 55.1156 42.8549 51.5267 44.0152 49.6824C45.8526 46.8672 54.3768 42.1011 57.4796 42.0956C64.073 42.0841 70.5831 49.8296 69.5281 56.4248C68.8562 60.3045 67.5018 62.0522 64.0144 63.9006C61.7863 65.0681 61.1076 65.0693 59.5542 63.9084C57.9038 62.7478 57.9029 62.263 59.0608 59.0612C60.6044 54.5982 59.4388 53.4368 54.8842 54.8992C50.6202 56.2642 48.4922 59.1768 48.4997 63.4431C48.5096 69.0668 51.0335 70.7108 60.0509 70.6949C67.9048 70.6811 72.1682 69.0253 74.5854 65.1425C77.6795 60.192 76.4885 44.5832 72.7958 39.9356C71.2412 38.096 70.1743 37.904 64.0659 38.0117C57.8606 38.2165 57.1816 38.0238 57.1787 36.3754C57.1717 32.4 66.7624 27.535 74.4223 27.5216C77.1373 27.5168 78.4912 25.4782 78.4845 21.6967C78.4811 19.7575 78.7686 17.8177 79.1559 17.5262C80.414 16.1665 84.1967 16.8386 85.0723 18.4854Z" fill="#277614"/>
<rect y="61" width="220" height="37" fill="#EEEEEE"/>
<rect x="11" y="10" width="41.2414" height="26" rx="4" fill="#DEAC64"/>
<path d="M31.6207 28.3793V36" stroke="white"/>
<path d="M31.6207 17.6207V10" stroke="white"/>
<rect x="26.7414" y="17.6724" width="9.75862" height="10.6552" rx="2.5" stroke="white"/>
<path d="M27.1379 27.4828L22.6552 31.9655H11" stroke="white"/>
<path d="M27.1379 18.069L22.6552 13.5862H11" stroke="white"/>
<path d="M26.6897 23.4482H11" stroke="white"/>
<path d="M36.1034 27.4828L40.5862 31.9655H52.2414" stroke="white"/>
<path d="M36.1034 18.069L40.5862 13.5862H52.2414" stroke="white"/>
<path d="M36.5517 23.4482H52.2414" stroke="white"/>
<path d="M36.5517 23.4482H52.2414" stroke="white"/>
<path d="M17.344 77.128C16.4693 77.128 15.6853 76.904 14.992 76.456C14.3093 76.008 13.7653 75.3573 13.36 74.504C12.9653 73.6507 12.768 72.616 12.768 71.4C12.768 70.184 12.9653 69.1493 13.36 68.296C13.7653 67.4427 14.3093 66.792 14.992 66.344C15.6853 65.896 16.4693 65.672 17.344 65.672C18.208 65.672 18.9867 65.896 19.68 66.344C20.3733 66.792 20.9173 67.4427 21.312 68.296C21.7067 69.1493 21.904 70.184 21.904 71.4C21.904 72.616 21.7067 73.6507 21.312 74.504C20.9173 75.3573 20.3733 76.008 19.68 76.456C18.9867 76.904 18.208 77.128 17.344 77.128ZM17.344 75.704C17.9307 75.704 18.4427 75.544 18.88 75.224C19.328 74.904 19.6747 74.424 19.92 73.784C20.176 73.144 20.304 72.3493 20.304 71.4C20.304 70.4507 20.176 69.656 19.92 69.016C19.6747 68.376 19.328 67.896 18.88 67.576C18.4427 67.256 17.9307 67.096 17.344 67.096C16.7573 67.096 16.24 67.256 15.792 67.576C15.344 67.896 14.992 68.376 14.736 69.016C14.4907 69.656 14.368 70.4507 14.368 71.4C14.368 72.3493 14.4907 73.144 14.736 73.784C14.992 74.424 15.344 74.904 15.792 75.224C16.24 75.544 16.7573 75.704 17.344 75.704ZM28.0159 77.128C27.1412 77.128 26.3572 76.904 25.6639 76.456C24.9812 76.008 24.4372 75.3573 24.0319 74.504C23.6372 73.6507 23.4399 72.616 23.4399 71.4C23.4399 70.184 23.6372 69.1493 24.0319 68.296C24.4372 67.4427 24.9812 66.792 25.6639 66.344C26.3572 65.896 27.1412 65.672 28.0159 65.672C28.8799 65.672 29.6585 65.896 30.3519 66.344C31.0452 66.792 31.5892 67.4427 31.9839 68.296C32.3785 69.1493 32.5759 70.184 32.5759 71.4C32.5759 72.616 32.3785 73.6507 31.9839 74.504C31.5892 75.3573 31.0452 76.008 30.3519 76.456C29.6585 76.904 28.8799 77.128 28.0159 77.128ZM28.0159 75.704C28.6025 75.704 29.1145 75.544 29.5519 75.224C29.9999 74.904 30.3465 74.424 30.5919 73.784C30.8479 73.144 30.9759 72.3493 30.9759 71.4C30.9759 70.4507 30.8479 69.656 30.5919 69.016C30.3465 68.376 29.9999 67.896 29.5519 67.576C29.1145 67.256 28.6025 67.096 28.0159 67.096C27.4292 67.096 26.9119 67.256 26.4639 67.576C26.0159 67.896 25.6639 68.376 25.4079 69.016C25.1625 69.656 25.0399 70.4507 25.0399 71.4C25.0399 72.3493 25.1625 73.144 25.4079 73.784C25.6639 74.424 26.0159 74.904 26.4639 75.224C26.9119 75.544 27.4292 75.704 28.0159 75.704ZM38.6878 77.128C37.8131 77.128 37.0291 76.904 36.3358 76.456C35.6531 76.008 35.1091 75.3573 34.7038 74.504C34.3091 73.6507 34.1118 72.616 34.1118 71.4C34.1118 70.184 34.3091 69.1493 34.7038 68.296C35.1091 67.4427 35.6531 66.792 36.3358 66.344C37.0291 65.896 37.8131 65.672 38.6878 65.672C39.5518 65.672 40.3304 65.896 41.0238 66.344C41.7171 66.792 42.2611 67.4427 42.6558 68.296C43.0504 69.1493 43.2478 70.184 43.2478 71.4C43.2478 72.616 43.0504 73.6507 42.6558 74.504C42.2611 75.3573 41.7171 76.008 41.0238 76.456C40.3304 76.904 39.5518 77.128 38.6878 77.128ZM38.6878 75.704C39.2744 75.704 39.7864 75.544 40.2238 75.224C40.6718 74.904 41.0184 74.424 41.2638 73.784C41.5198 73.144 41.6478 72.3493 41.6478 71.4C41.6478 70.4507 41.5198 69.656 41.2638 69.016C41.0184 68.376 40.6718 67.896 40.2238 67.576C39.7864 67.256 39.2744 67.096 38.6878 67.096C38.1011 67.096 37.5838 67.256 37.1358 67.576C36.6878 67.896 36.3358 68.376 36.0798 69.016C35.8344 69.656 35.7118 70.4507 35.7118 71.4C35.7118 72.3493 35.8344 73.144 36.0798 73.784C36.3358 74.424 36.6878 74.904 37.1358 75.224C37.5838 75.544 38.1011 75.704 38.6878 75.704ZM49.3596 77.128C48.485 77.128 47.701 76.904 47.0076 76.456C46.325 76.008 45.781 75.3573 45.3756 74.504C44.981 73.6507 44.7836 72.616 44.7836 71.4C44.7836 70.184 44.981 69.1493 45.3756 68.296C45.781 67.4427 46.325 66.792 47.0076 66.344C47.701 65.896 48.485 65.672 49.3596 65.672C50.2236 65.672 51.0023 65.896 51.6956 66.344C52.389 66.792 52.933 67.4427 53.3276 68.296C53.7223 69.1493 53.9196 70.184 53.9196 71.4C53.9196 72.616 53.7223 73.6507 53.3276 74.504C52.933 75.3573 52.389 76.008 51.6956 76.456C51.0023 76.904 50.2236 77.128 49.3596 77.128ZM49.3596 75.704C49.9463 75.704 50.4583 75.544 50.8956 75.224C51.3436 74.904 51.6903 74.424 51.9356 73.784C52.1916 73.144 52.3196 72.3493 52.3196 71.4C52.3196 70.4507 52.1916 69.656 51.9356 69.016C51.6903 68.376 51.3436 67.896 50.8956 67.576C50.4583 67.256 49.9463 67.096 49.3596 67.096C48.773 67.096 48.2556 67.256 47.8076 67.576C47.3596 67.896 47.0076 68.376 46.7516 69.016C46.5063 69.656 46.3836 70.4507 46.3836 71.4C46.3836 72.3493 46.5063 73.144 46.7516 73.784C47.0076 74.424 47.3596 74.904 47.8076 75.224C48.2556 75.544 48.773 75.704 49.3596 75.704ZM64.3284 77.128C63.4537 77.128 62.6697 76.904 61.9764 76.456C61.2937 76.008 60.7497 75.3573 60.3444 74.504C59.9497 73.6507 59.7524 72.616 59.7524 71.4C59.7524 70.184 59.9497 69.1493 60.3444 68.296C60.7497 67.4427 61.2937 66.792 61.9764 66.344C62.6697 65.896 63.4537 65.672 64.3284 65.672C65.1924 65.672 65.971 65.896 66.6644 66.344C67.3577 66.792 67.9017 67.4427 68.2964 68.296C68.691 69.1493 68.8884 70.184 68.8884 71.4C68.8884 72.616 68.691 73.6507 68.2964 74.504C67.9017 75.3573 67.3577 76.008 66.6644 76.456C65.971 76.904 65.1924 77.128 64.3284 77.128ZM64.3284 75.704C64.915 75.704 65.427 75.544 65.8644 75.224C66.3124 74.904 66.659 74.424 66.9044 73.784C67.1604 73.144 67.2884 72.3493 67.2884 71.4C67.2884 70.4507 67.1604 69.656 66.9044 69.016C66.659 68.376 66.3124 67.896 65.8644 67.576C65.427 67.256 64.915 67.096 64.3284 67.096C63.7417 67.096 63.2244 67.256 62.7764 67.576C62.3284 67.896 61.9764 68.376 61.7204 69.016C61.475 69.656 61.3524 70.4507 61.3524 71.4C61.3524 72.3493 61.475 73.144 61.7204 73.784C61.9764 74.424 62.3284 74.904 62.7764 75.224C63.2244 75.544 63.7417 75.704 64.3284 75.704ZM75.0003 77.128C74.1256 77.128 73.3416 76.904 72.6483 76.456C71.9656 76.008 71.4216 75.3573 71.0163 74.504C70.6216 73.6507 70.4243 72.616 70.4243 71.4C70.4243 70.184 70.6216 69.1493 71.0163 68.296C71.4216 67.4427 71.9656 66.792 72.6483 66.344C73.3416 65.896 74.1256 65.672 75.0003 65.672C75.8643 65.672 76.6429 65.896 77.3363 66.344C78.0296 66.792 78.5736 67.4427 78.9683 68.296C79.3629 69.1493 79.5603 70.184 79.5603 71.4C79.5603 72.616 79.3629 73.6507 78.9683 74.504C78.5736 75.3573 78.0296 76.008 77.3363 76.456C76.6429 76.904 75.8643 77.128 75.0003 77.128ZM75.0003 75.704C75.5869 75.704 76.0989 75.544 76.5363 75.224C76.9843 74.904 77.3309 74.424 77.5763 73.784C77.8323 73.144 77.9603 72.3493 77.9603 71.4C77.9603 70.4507 77.8323 69.656 77.5763 69.016C77.3309 68.376 76.9843 67.896 76.5363 67.576C76.0989 67.256 75.5869 67.096 75.0003 67.096C74.4136 67.096 73.8963 67.256 73.4483 67.576C73.0003 67.896 72.6483 68.376 72.3923 69.016C72.1469 69.656 72.0243 70.4507 72.0243 71.4C72.0243 72.3493 72.1469 73.144 72.3923 73.784C72.6483 74.424 73.0003 74.904 73.4483 75.224C73.8963 75.544 74.4136 75.704 75.0003 75.704ZM85.6721 77.128C84.7975 77.128 84.0135 76.904 83.3201 76.456C82.6375 76.008 82.0935 75.3573 81.6881 74.504C81.2935 73.6507 81.0961 72.616 81.0961 71.4C81.0961 70.184 81.2935 69.1493 81.6881 68.296C82.0935 67.4427 82.6375 66.792 83.3201 66.344C84.0135 65.896 84.7975 65.672 85.6721 65.672C86.5361 65.672 87.3148 65.896 88.0081 66.344C88.7015 66.792 89.2455 67.4427 89.6401 68.296C90.0348 69.1493 90.2321 70.184 90.2321 71.4C90.2321 72.616 90.0348 73.6507 89.6401 74.504C89.2455 75.3573 88.7015 76.008 88.0081 76.456C87.3148 76.904 86.5361 77.128 85.6721 77.128ZM85.6721 75.704C86.2588 75.704 86.7708 75.544 87.2081 75.224C87.6561 74.904 88.0028 74.424 88.2481 73.784C88.5041 73.144 88.6321 72.3493 88.6321 71.4C88.6321 70.4507 88.5041 69.656 88.2481 69.016C88.0028 68.376 87.6561 67.896 87.2081 67.576C86.7708 67.256 86.2588 67.096 85.6721 67.096C85.0855 67.096 84.5681 67.256 84.1201 67.576C83.6721 67.896 83.3201 68.376 83.0641 69.016C82.8188 69.656 82.6961 70.4507 82.6961 71.4C82.6961 72.3493 82.8188 73.144 83.0641 73.784C83.3201 74.424 83.6721 74.904 84.1201 75.224C84.5681 75.544 85.0855 75.704 85.6721 75.704ZM96.344 77.128C95.4693 77.128 94.6853 76.904 93.992 76.456C93.3093 76.008 92.7653 75.3573 92.36 74.504C91.9653 73.6507 91.768 72.616 91.768 71.4C91.768 70.184 91.9653 69.1493 92.36 68.296C92.7653 67.4427 93.3093 66.792 93.992 66.344C94.6853 65.896 95.4693 65.672 96.344 65.672C97.208 65.672 97.9867 65.896 98.68 66.344C99.3733 66.792 99.9173 67.4427 100.312 68.296C100.707 69.1493 100.904 70.184 100.904 71.4C100.904 72.616 100.707 73.6507 100.312 74.504C99.9173 75.3573 99.3733 76.008 98.68 76.456C97.9867 76.904 97.208 77.128 96.344 77.128ZM96.344 75.704C96.9307 75.704 97.4427 75.544 97.88 75.224C98.328 74.904 98.6747 74.424 98.92 73.784C99.176 73.144 99.304 72.3493 99.304 71.4C99.304 70.4507 99.176 69.656 98.92 69.016C98.6747 68.376 98.328 67.896 97.88 67.576C97.4427 67.256 96.9307 67.096 96.344 67.096C95.7573 67.096 95.24 67.256 94.792 67.576C94.344 67.896 93.992 68.376 93.736 69.016C93.4907 69.656 93.368 70.4507 93.368 71.4C93.368 72.3493 93.4907 73.144 93.736 73.784C93.992 74.424 94.344 74.904 94.792 75.224C95.24 75.544 95.7573 75.704 96.344 75.704ZM111.313 77.128C110.438 77.128 109.654 76.904 108.961 76.456C108.278 76.008 107.734 75.3573 107.329 74.504C106.934 73.6507 106.737 72.616 106.737 71.4C106.737 70.184 106.934 69.1493 107.329 68.296C107.734 67.4427 108.278 66.792 108.961 66.344C109.654 65.896 110.438 65.672 111.313 65.672C112.177 65.672 112.955 65.896 113.649 66.344C114.342 66.792 114.886 67.4427 115.281 68.296C115.675 69.1493 115.873 70.184 115.873 71.4C115.873 72.616 115.675 73.6507 115.281 74.504C114.886 75.3573 114.342 76.008 113.649 76.456C112.955 76.904 112.177 77.128 111.313 77.128ZM111.313 75.704C111.899 75.704 112.411 75.544 112.849 75.224C113.297 74.904 113.643 74.424 113.889 73.784C114.145 73.144 114.273 72.3493 114.273 71.4C114.273 70.4507 114.145 69.656 113.889 69.016C113.643 68.376 113.297 67.896 112.849 67.576C112.411 67.256 111.899 67.096 111.313 67.096C110.726 67.096 110.209 67.256 109.761 67.576C109.313 67.896 108.961 68.376 108.705 69.016C108.459 69.656 108.337 70.4507 108.337 71.4C108.337 72.3493 108.459 73.144 108.705 73.784C108.961 74.424 109.313 74.904 109.761 75.224C110.209 75.544 110.726 75.704 111.313 75.704ZM121.985 77.128C121.11 77.128 120.326 76.904 119.633 76.456C118.95 76.008 118.406 75.3573 118.001 74.504C117.606 73.6507 117.409 72.616 117.409 71.4C117.409 70.184 117.606 69.1493 118.001 68.296C118.406 67.4427 118.95 66.792 119.633 66.344C120.326 65.896 121.11 65.672 121.985 65.672C122.849 65.672 123.627 65.896 124.321 66.344C125.014 66.792 125.558 67.4427 125.953 68.296C126.347 69.1493 126.545 70.184 126.545 71.4C126.545 72.616 126.347 73.6507 125.953 74.504C125.558 75.3573 125.014 76.008 124.321 76.456C123.627 76.904 122.849 77.128 121.985 77.128ZM121.985 75.704C122.571 75.704 123.083 75.544 123.521 75.224C123.969 74.904 124.315 74.424 124.561 73.784C124.817 73.144 124.945 72.3493 124.945 71.4C124.945 70.4507 124.817 69.656 124.561 69.016C124.315 68.376 123.969 67.896 123.521 67.576C123.083 67.256 122.571 67.096 121.985 67.096C121.398 67.096 120.881 67.256 120.433 67.576C119.985 67.896 119.633 68.376 119.377 69.016C119.131 69.656 119.009 70.4507 119.009 71.4C119.009 72.3493 119.131 73.144 119.377 73.784C119.633 74.424 119.985 74.904 120.433 75.224C120.881 75.544 121.398 75.704 121.985 75.704ZM132.657 77.128C131.782 77.128 130.998 76.904 130.305 76.456C129.622 76.008 129.078 75.3573 128.673 74.504C128.278 73.6507 128.081 72.616 128.081 71.4C128.081 70.184 128.278 69.1493 128.673 68.296C129.078 67.4427 129.622 66.792 130.305 66.344C130.998 65.896 131.782 65.672 132.657 65.672C133.521 65.672 134.299 65.896 134.993 66.344C135.686 66.792 136.23 67.4427 136.625 68.296C137.019 69.1493 137.217 70.184 137.217 71.4C137.217 72.616 137.019 73.6507 136.625 74.504C136.23 75.3573 135.686 76.008 134.993 76.456C134.299 76.904 133.521 77.128 132.657 77.128ZM132.657 75.704C133.243 75.704 133.755 75.544 134.193 75.224C134.641 74.904 134.987 74.424 135.233 73.784C135.489 73.144 135.617 72.3493 135.617 71.4C135.617 70.4507 135.489 69.656 135.233 69.016C134.987 68.376 134.641 67.896 134.193 67.576C133.755 67.256 133.243 67.096 132.657 67.096C132.07 67.096 131.553 67.256 131.105 67.576C130.657 67.896 130.305 68.376 130.049 69.016C129.803 69.656 129.681 70.4507 129.681 71.4C129.681 72.3493 129.803 73.144 130.049 73.784C130.305 74.424 130.657 74.904 131.105 75.224C131.553 75.544 132.07 75.704 132.657 75.704ZM143.328 77.128C142.454 77.128 141.67 76.904 140.976 76.456C140.294 76.008 139.75 75.3573 139.344 74.504C138.95 73.6507 138.752 72.616 138.752 71.4C138.752 70.184 138.95 69.1493 139.344 68.296C139.75 67.4427 140.294 66.792 140.976 66.344C141.67 65.896 142.454 65.672 143.328 65.672C144.192 65.672 144.971 65.896 145.664 66.344C146.358 66.792 146.902 67.4427 147.296 68.296C147.691 69.1493 147.888 70.184 147.888 71.4C147.888 72.616 147.691 73.6507 147.296 74.504C146.902 75.3573 146.358 76.008 145.664 76.456C144.971 76.904 144.192 77.128 143.328 77.128ZM143.328 75.704C143.915 75.704 144.427 75.544 144.864 75.224C145.312 74.904 145.659 74.424 145.904 73.784C146.16 73.144 146.288 72.3493 146.288 71.4C146.288 70.4507 146.16 69.656 145.904 69.016C145.659 68.376 145.312 67.896 144.864 67.576C144.427 67.256 143.915 67.096 143.328 67.096C142.742 67.096 142.224 67.256 141.776 67.576C141.328 67.896 140.976 68.376 140.72 69.016C140.475 69.656 140.352 70.4507 140.352 71.4C140.352 72.3493 140.475 73.144 140.72 73.784C140.976 74.424 141.328 74.904 141.776 75.224C142.224 75.544 142.742 75.704 143.328 75.704ZM158.297 77.128C157.422 77.128 156.638 76.904 155.945 76.456C155.262 76.008 154.718 75.3573 154.313 74.504C153.918 73.6507 153.721 72.616 153.721 71.4C153.721 70.184 153.918 69.1493 154.313 68.296C154.718 67.4427 155.262 66.792 155.945 66.344C156.638 65.896 157.422 65.672 158.297 65.672C159.161 65.672 159.94 65.896 160.633 66.344C161.326 66.792 161.87 67.4427 162.265 68.296C162.66 69.1493 162.857 70.184 162.857 71.4C162.857 72.616 162.66 73.6507 162.265 74.504C161.87 75.3573 161.326 76.008 160.633 76.456C159.94 76.904 159.161 77.128 158.297 77.128ZM158.297 75.704C158.884 75.704 159.396 75.544 159.833 75.224C160.281 74.904 160.628 74.424 160.873 73.784C161.129 73.144 161.257 72.3493 161.257 71.4C161.257 70.4507 161.129 69.656 160.873 69.016C160.628 68.376 160.281 67.896 159.833 67.576C159.396 67.256 158.884 67.096 158.297 67.096C157.71 67.096 157.193 67.256 156.745 67.576C156.297 67.896 155.945 68.376 155.689 69.016C155.444 69.656 155.321 70.4507 155.321 71.4C155.321 72.3493 155.444 73.144 155.689 73.784C155.945 74.424 156.297 74.904 156.745 75.224C157.193 75.544 157.71 75.704 158.297 75.704ZM168.969 77.128C168.094 77.128 167.31 76.904 166.617 76.456C165.934 76.008 165.39 75.3573 164.985 74.504C164.59 73.6507 164.393 72.616 164.393 71.4C164.393 70.184 164.59 69.1493 164.985 68.296C165.39 67.4427 165.934 66.792 166.617 66.344C167.31 65.896 168.094 65.672 168.969 65.672C169.833 65.672 170.612 65.896 171.305 66.344C171.998 66.792 172.542 67.4427 172.937 68.296C173.332 69.1493 173.529 70.184 173.529 71.4C173.529 72.616 173.332 73.6507 172.937 74.504C172.542 75.3573 171.998 76.008 171.305 76.456C170.612 76.904 169.833 77.128 168.969 77.128ZM168.969 75.704C169.556 75.704 170.068 75.544 170.505 75.224C170.953 74.904 171.3 74.424 171.545 73.784C171.801 73.144 171.929 72.3493 171.929 71.4C171.929 70.4507 171.801 69.656 171.545 69.016C171.3 68.376 170.953 67.896 170.505 67.576C170.068 67.256 169.556 67.096 168.969 67.096C168.382 67.096 167.865 67.256 167.417 67.576C166.969 67.896 166.617 68.376 166.361 69.016C166.116 69.656 165.993 70.4507 165.993 71.4C165.993 72.3493 166.116 73.144 166.361 73.784C166.617 74.424 166.969 74.904 167.417 75.224C167.865 75.544 168.382 75.704 168.969 75.704ZM179.641 77.128C178.766 77.128 177.982 76.904 177.289 76.456C176.606 76.008 176.062 75.3573 175.657 74.504C175.262 73.6507 175.065 72.616 175.065 71.4C175.065 70.184 175.262 69.1493 175.657 68.296C176.062 67.4427 176.606 66.792 177.289 66.344C177.982 65.896 178.766 65.672 179.641 65.672C180.505 65.672 181.284 65.896 181.977 66.344C182.67 66.792 183.214 67.4427 183.609 68.296C184.004 69.1493 184.201 70.184 184.201 71.4C184.201 72.616 184.004 73.6507 183.609 74.504C183.214 75.3573 182.67 76.008 181.977 76.456C181.284 76.904 180.505 77.128 179.641 77.128ZM179.641 75.704C180.228 75.704 180.74 75.544 181.177 75.224C181.625 74.904 181.972 74.424 182.217 73.784C182.473 73.144 182.601 72.3493 182.601 71.4C182.601 70.4507 182.473 69.656 182.217 69.016C181.972 68.376 181.625 67.896 181.177 67.576C180.74 67.256 180.228 67.096 179.641 67.096C179.054 67.096 178.537 67.256 178.089 67.576C177.641 67.896 177.289 68.376 177.033 69.016C176.788 69.656 176.665 70.4507 176.665 71.4C176.665 72.3493 176.788 73.144 177.033 73.784C177.289 74.424 177.641 74.904 178.089 75.224C178.537 75.544 179.054 75.704 179.641 75.704ZM190.313 77.128C189.438 77.128 188.654 76.904 187.961 76.456C187.278 76.008 186.734 75.3573 186.329 74.504C185.934 73.6507 185.737 72.616 185.737 71.4C185.737 70.184 185.934 69.1493 186.329 68.296C186.734 67.4427 187.278 66.792 187.961 66.344C188.654 65.896 189.438 65.672 190.313 65.672C191.177 65.672 191.955 65.896 192.649 66.344C193.342 66.792 193.886 67.4427 194.281 68.296C194.675 69.1493 194.873 70.184 194.873 71.4C194.873 72.616 194.675 73.6507 194.281 74.504C193.886 75.3573 193.342 76.008 192.649 76.456C191.955 76.904 191.177 77.128 190.313 77.128ZM190.313 75.704C190.899 75.704 191.411 75.544 191.849 75.224C192.297 74.904 192.643 74.424 192.889 73.784C193.145 73.144 193.273 72.3493 193.273 71.4C193.273 70.4507 193.145 69.656 192.889 69.016C192.643 68.376 192.297 67.896 191.849 67.576C191.411 67.256 190.899 67.096 190.313 67.096C189.726 67.096 189.209 67.256 188.761 67.576C188.313 67.896 187.961 68.376 187.705 69.016C187.459 69.656 187.337 70.4507 187.337 71.4C187.337 72.3493 187.459 73.144 187.705 73.784C187.961 74.424 188.313 74.904 188.761 75.224C189.209 75.544 189.726 75.704 190.313 75.704Z" fill="#0F711F"/>
<path d="M16.676 95.112C15.9107 95.112 15.2247 94.916 14.618 94.524C14.0207 94.132 13.5447 93.5627 13.19 92.816C12.8447 92.0693 12.672 91.164 12.672 90.1C12.672 89.036 12.8447 88.1307 13.19 87.384C13.5447 86.6373 14.0207 86.068 14.618 85.676C15.2247 85.284 15.9107 85.088 16.676 85.088C17.432 85.088 18.1133 85.284 18.72 85.676C19.3267 86.068 19.8027 86.6373 20.148 87.384C20.4933 88.1307 20.666 89.036 20.666 90.1C20.666 91.164 20.4933 92.0693 20.148 92.816C19.8027 93.5627 19.3267 94.132 18.72 94.524C18.1133 94.916 17.432 95.112 16.676 95.112ZM16.676 93.866C17.1893 93.866 17.6373 93.726 18.02 93.446C18.412 93.166 18.7153 92.746 18.93 92.186C19.154 91.626 19.266 90.9307 19.266 90.1C19.266 89.2693 19.154 88.574 18.93 88.014C18.7153 87.454 18.412 87.034 18.02 86.754C17.6373 86.474 17.1893 86.334 16.676 86.334C16.1627 86.334 15.71 86.474 15.318 86.754C14.926 87.034 14.618 87.454 14.394 88.014C14.1793 88.574 14.072 89.2693 14.072 90.1C14.072 90.9307 14.1793 91.626 14.394 92.186C14.618 92.746 14.926 93.166 15.318 93.446C15.71 93.726 16.1627 93.866 16.676 93.866ZM26.0139 95.112C25.2486 95.112 24.5626 94.916 23.9559 94.524C23.3586 94.132 22.8826 93.5627 22.5279 92.816C22.1826 92.0693 22.0099 91.164 22.0099 90.1C22.0099 89.036 22.1826 88.1307 22.5279 87.384C22.8826 86.6373 23.3586 86.068 23.9559 85.676C24.5626 85.284 25.2486 85.088 26.0139 85.088C26.7699 85.088 27.4512 85.284 28.0579 85.676C28.6646 86.068 29.1406 86.6373 29.4859 87.384C29.8312 88.1307 30.0039 89.036 30.0039 90.1C30.0039 91.164 29.8312 92.0693 29.4859 92.816C29.1406 93.5627 28.6646 94.132 28.0579 94.524C27.4512 94.916 26.7699 95.112 26.0139 95.112ZM26.0139 93.866C26.5272 93.866 26.9752 93.726 27.3579 93.446C27.7499 93.166 28.0532 92.746 28.2679 92.186C28.4919 91.626 28.6039 90.9307 28.6039 90.1C28.6039 89.2693 28.4919 88.574 28.2679 88.014C28.0532 87.454 27.7499 87.034 27.3579 86.754C26.9752 86.474 26.5272 86.334 26.0139 86.334C25.5006 86.334 25.0479 86.474 24.6559 86.754C24.2639 87.034 23.9559 87.454 23.7319 88.014C23.5172 88.574 23.4099 89.2693 23.4099 90.1C23.4099 90.9307 23.5172 91.626 23.7319 92.186C23.9559 92.746 24.2639 93.166 24.6559 93.446C25.0479 93.726 25.5006 93.866 26.0139 93.866ZM30.0103 96.4L34.6303 83.212H35.8483L31.2283 96.4H30.0103ZM39.7268 95.112C38.9614 95.112 38.2754 94.916 37.6688 94.524C37.0714 94.132 36.5954 93.5627 36.2408 92.816C35.8954 92.0693 35.7228 91.164 35.7228 90.1C35.7228 89.036 35.8954 88.1307 36.2408 87.384C36.5954 86.6373 37.0714 86.068 37.6688 85.676C38.2754 85.284 38.9614 85.088 39.7268 85.088C40.4828 85.088 41.1641 85.284 41.7708 85.676C42.3774 86.068 42.8534 86.6373 43.1988 87.384C43.5441 88.1307 43.7168 89.036 43.7168 90.1C43.7168 91.164 43.5441 92.0693 43.1988 92.816C42.8534 93.5627 42.3774 94.132 41.7708 94.524C41.1641 94.916 40.4828 95.112 39.7268 95.112ZM39.7268 93.866C40.2401 93.866 40.6881 93.726 41.0708 93.446C41.4628 93.166 41.7661 92.746 41.9808 92.186C42.2048 91.626 42.3168 90.9307 42.3168 90.1C42.3168 89.2693 42.2048 88.574 41.9808 88.014C41.7661 87.454 41.4628 87.034 41.0708 86.754C40.6881 86.474 40.2401 86.334 39.7268 86.334C39.2134 86.334 38.7608 86.474 38.3688 86.754C37.9768 87.034 37.6688 87.454 37.4448 88.014C37.2301 88.574 37.1228 89.2693 37.1228 90.1C37.1228 90.9307 37.2301 91.626 37.4448 92.186C37.6688 92.746 37.9768 93.166 38.3688 93.446C38.7608 93.726 39.2134 93.866 39.7268 93.866ZM49.0647 95.112C48.2993 95.112 47.6133 94.916 47.0067 94.524C46.4093 94.132 45.9333 93.5627 45.5787 92.816C45.2333 92.0693 45.0607 91.164 45.0607 90.1C45.0607 89.036 45.2333 88.1307 45.5787 87.384C45.9333 86.6373 46.4093 86.068 47.0067 85.676C47.6133 85.284 48.2993 85.088 49.0647 85.088C49.8207 85.088 50.502 85.284 51.1087 85.676C51.7153 86.068 52.1913 86.6373 52.5367 87.384C52.882 88.1307 53.0547 89.036 53.0547 90.1C53.0547 91.164 52.882 92.0693 52.5367 92.816C52.1913 93.5627 51.7153 94.132 51.1087 94.524C50.502 94.916 49.8207 95.112 49.0647 95.112ZM49.0647 93.866C49.578 93.866 50.026 93.726 50.4087 93.446C50.8007 93.166 51.104 92.746 51.3187 92.186C51.5427 91.626 51.6547 90.9307 51.6547 90.1C51.6547 89.2693 51.5427 88.574 51.3187 88.014C51.104 87.454 50.8007 87.034 50.4087 86.754C50.026 86.474 49.578 86.334 49.0647 86.334C48.5513 86.334 48.0987 86.474 47.7067 86.754C47.3147 87.034 47.0067 87.454 46.7827 88.014C46.568 88.574 46.4607 89.2693 46.4607 90.1C46.4607 90.9307 46.568 91.626 46.7827 92.186C47.0067 92.746 47.3147 93.166 47.7067 93.446C48.0987 93.726 48.5513 93.866 49.0647 93.866Z" fill="#0F711F"/>
<rect x="80.3237" y="-44.6814" width="42.2811" height="244.963" transform="rotate(15 80.3237 -44.6814)" fill="white" fill-opacity="0.28"/>
</g>
<path d="M223 96.0001L220 98.0001V61L223 59.2446V96.0001Z" fill="#9C9C9C"/>
</svg>
